<mxfile host="app.diagrams.net" agent="Mozilla/5.0 (Windows NT 10.0; Win64; x64) AppleWebKit/537.36 (KHTML, like Gecko) Chrome/133.0.0.0 Safari/537.36" version="26.0.16">
  <diagram name="Page-1" id="xxK-Zgs-TqY_IP4dPVcU">
    <mxGraphModel dx="875" dy="521" grid="1" gridSize="10" guides="1" tooltips="1" connect="1" arrows="1" fold="1" page="1" pageScale="1" pageWidth="850" pageHeight="1100" math="0" shadow="0">
      <root>
        <mxCell id="0" />
        <mxCell id="1" parent="0" />
        <mxCell id="yqI1gPK7mimHnNKxgcp7-12" value="" style="rounded=0;whiteSpace=wrap;html=1;" vertex="1" parent="1">
          <mxGeometry x="150" y="90" width="510" height="410" as="geometry" />
        </mxCell>
        <mxCell id="yqI1gPK7mimHnNKxgcp7-1" value="" style="shape=image;verticalLabelPosition=bottom;labelBackgroundColor=default;verticalAlign=top;aspect=fixed;imageAspect=0;image=data:image/png,iVBORw0KGgoAAAANSUhEUgAAAgAAAAIACAYAAAD0eNT6AAAAAXNSR0IArs4c6QAAIABJREFUeAHt3WmMZWed3/GGyUykzCiKkihSFimTCYpGncS47nOq2ru7oQHLbWyw4vQLYsfEUkwcbBkRxsYylm2Qu0l76a5bM1lnMlmkkUiiiZJ3WQRmMYR9GWAQMQ4eGMAMmDEeNi/Ex6ljFTWUXV33nPt/zvl/LF2dqnbVfc75Pr/nPt/frap79+3zHwIIIIAAAggggAACCCCAAAIIIIAAAggggAACCCCAAAIIIIAAAggggAACCCCAAAIIIIAAAggggAACCCCAAAIIIIAAAggggAACCCCAAAIIIIAAAggggAACCCCAAAIIIIAAAggggAACCCCAAAIIIIAAAggggAACCCCAAAIIIIAAAggggAACCCCAAAIIIIAAAggggAACCCCAAAIIIIAAAggggAACCCCAAAIIIIAAAggggAACCCCAAAIIIIAAAggggAACCCCAAAIIIIAAAggggAACCCCAAAIIIIAAAggggAACCCCAAAIIIIAAAggggAACCCCAAAIIIIAAAggggAACCCCAAAIIIIAAAggggAACCCCAAAIIIIAAAggggAACCCCAAAIIIIAAAggggAACCCCAAAIIIIAAAggggAACCCCAAAIIIIAAAggggAACCCCAAAIIIIAAAggggAACCCCAAAIIIIAAAggggAACCCCAAAIIIIAAAggggAACCCCAAAIIIIAAAggggAACCCCAAAIIIIAAAggggAACCCCAAAIIIIAAAggggAACCCCAAAIIIIAAAggggAACCCCAAAIIIIAAAggggAACCCCAAAIIIIAAAggggAACCCCAAAIIIIAAAggggAACCCCAAAIIIIAAAggggAACCCCAAAIIIIAAAggggAACCCCAAAIIIIAAAggggAACCCCAAAIIIIAAAggggAACCCCAAAIIIIAAAggggAACCCCAAAIIIIAAAggggAACCCCAAAIIIIAAAggggAACCCCAAAIIIIAAAggggAACCCCAAAIIIIAAAggggAACCCCAAAIIIIAAAggggAACCCCAAAIIIIDA6AiUUn62aZr7Sinvirg1TfN3RgftJ0/4RaWUe0opH13i7VQp5Zd/8jRG+9mLm6bZWCK77fP0rw8ePPgnxkqvlPKnSin/q5Ty46DbFw8cOPBXxspv63mvrKzsL6WsLyGL7RhTWb9bEfp4TASuuOKKn5nNZr8V9MDRPWA9OZvNXjcmblvPtWmafxrI7/2llCtaidt6TiP6+MWllN8M5PdsBmez2X8aI8N282+a5n9G8yulPHTmmWf+4ohy99yp7t+//+faNTSbzf5HKeXpJbP8aNM0V40xe88B9ME4CbStZ7Pxdxtx5PGJ2Wz2d8dGspRyfMkPGDvN0cNN07xpZPyq2Py3zN+7xvRMQAXNf3sWx/ZMQPvM3U2llK9vycD2a1rW519tmuZX9u3b96KRrWGnO0YCbfMvpfyHCoK/dYGN6pmApmlur4zfj9sf5YzkQaS2zf/ZHI7lmYCKmv/W9dt+PJZnAtrNv/0x2vbzj/78X+7bt+/FY9xTnPNICLSbf9M0/77C8LeLbxQS0LbtSvmNQQKq3Py7+axdAire/LvNs3YJeNHm75x051vbkQSMZC8d42m+eDab/bvuwa7SY9USUEq5oVJuzz2QVfxMQNWbfzevtUrACDb/LoNVSsBm+fmNbp4rPpKAMe6ulZ9za77/ouLQdw8e7bFKCWia5h8E/KLQVi6n8/E/q+zHAaPY/Lv1UZsEjGjz7zJalQRs/tjz33bzO4IjCah8Qx3T6b1oNpv98xGEvnvwaI9VScAzP9/8+6WUp8bEsJ3zSiRgVJt/N8e1SMAIN/9uHVchAZX/2LNj9dOOJGBMu2yl59r+wsuvdQ9qIztWIQHtaxWUUp4YGbtnH1AqkIBRbv7dXEdLwIg3/25DC5WA9s/8mqb5z918jvBIAirdWMdwWu3m/6sjDH334NEeWwn4e1GwZ7PZa8e6+XfzHigBo978t/ALeZ2ACWz+3ToOkYDNv/H/7W4eR3wkAVEbwIjHrf23XbsHh90cQyRgNpu9qpTygxE/cDzHNkACJrH5d3O/7GcCJrT5dxlcqgS85CUv+ZNN0/zXbv4mcCQBI96Ml33qbfNvX26yW3xTOC5VAlZXVw8/80Ih358SwyVKwKQ2/y4Dy5KACW7+3ePPUiSg5bf5yn7duFM5/iuvE7DsrXSE481ms3d2D1oTOy5FApqmObeU8vjE2D37ILgECZjk5t9lYWgJmPDm323Cg0rAGWec8fPB743QXedQRxIwwj15aadcSjnWPVhN9DioBMxms7NKKY9NlN2zD0rtn4MO9NcBk978u0wMJQEJNv9uUxxEAvbv3/8LpZR3d/M04SMJWNqOOqKBSil3TTj03YNHexxEAlZXV8985oV+vp2B4QASkGLz77LRtwQk2vy7ddyrBJx55pl/ppTywW5+EhxJwIj25sFPtaI3pukW+NDH9g2EjvYFdmVl5aWllG8leODYOi/rPT0TkGrz35KR/9jHGwi1m//En7bemrmtH3+xle7V1dVfWuS2+Ta+7ds8b73vDB//Wk/rt6+HUfezGwKllP/e/pJKX7emaR4YIvyvetWrvnjXXXc9cOzYsYVut9xyy3tWV1d/NMA5thIw35Sf9p35Frk90vf5nXfeeY+cOHHi4/fdd9/nFrndc889nzx06NDv9X1+m/f32R7e//x3hzi3Q4cOPXzvvfd+ahF27ffee++9nz58+PCDQ5xjKeX3SyntfS9y+8YQ53bJJZf8znw+/8ONjY0fL3h78uqrr27fejrDpvrcNbaZabOzaP5OnDjxiQsvvPBrA/EjAbvZdGv6mjG8nOzhw4e/tL6+/vUFHziee+A5fvz4h9fW1ibxJ3W7Wcjnnnvut06ePPnFvvjN5/OvthvibsaewtccOnToK/P5/OG++K2vr3/zla985RenwGY313DkyJHPzefzR/vit7GxkUoCXvGKVzzY5+Pf+vr67w0o8X4cUNMG/0LnUrsAtObbZ/i7B6Hjx49/dG1tbYhnAp6z9t08OA79Neecc86jJ0+e/Gx33X0dWwl42cteNtQzAdUwPHjw4MN9bv4d/00J+NLQ8x99/0eOHPlMz5t/J/JPvv71r/9A9PUNPf5FF130u/P5/A+63PR1PHXq1FcOHjzomYAX2iCn/v9rFoCXv/zlD83n896a//bFM/VnAs4666zH7rvvvt/Zft19fT71ZwL6bv7buU/9mYABmn+3+XfHST8TcPHFF39+Pp9/a3tu+vrcMwFT3913cX21CsDm5v+1vsK+0/1M9ZmAAwcOPH733Xd/Yqfr7uvfNyVgcs8EDNX8t3Of6jMBAzb/bvPvjpN8JqDlt7Gx8e3teen784GfCfjVXWxBviSSQI0CsNm8vtJ32He6v6k9E7C2tva9u+++++M7XW/f/77544AvD/106LLuf+jmv53/1J4JWELz7zb/7jipZwIuvfTST29sbDy2PSdDfT7kMwGRe5uxd0GgNgFoH3zbQA4V9p3udyoSsLq6+sP2Wna6zqH+fSoSsOzNv5uPqUhAwOY/KQm47LLLPjWfz7/b5WJZx6EkYBdbkC+JJFCTAFx44YVfHeIXrna7iMYuAe2fNx4/fvxDu73evr9u7BIQtfl38zB2CQjc/CchAa997Ws/OZ/PH+/ysOzjEBIQubcZexcEahGAdvNfX1/v7U+t9rp4xioBTdM8+Y53vOMDe73uvr5vrBIQvfl3/McqARVs/qOWgKNHj35kY2Pje10Ooo59S8AutiBfEkmgBgHY3Py/HBX67eOOTQKapnnq7W9/+/u3X0fU52OTgFo2/26+xiYBFW3+o5SAo0ePtj+y+343/9HHPiUgcm8z9i4IRAvABRdc8Pvr6+vVbP7d4huLBDRN8/Rtt9323u68azmORQJq2/y7+RuLBFS4+Y9KAjY3/x90817LsS8J2MUW5EsiCUQKQPuSlOvr6w/VEvrt53Hs2LEPDfSywb280M3m5n//9vOu5fNWAmp+xcDNP/X7ai28tp/HfD7/xoAvG7xwBnt8ed9u0+77WPVfB1x55ZUPbGxsPLF93mv5fH19/f8u+pc3kXubsXdBIEoA2temP3Xq1P+pJew7nUfNzwTcfPPN79npvGv591qfCai1+W+ft1qfCai4+W+XiCol4Kqrrmp/X6fazb/LIQHYxSY65i+JEIDzzz//G6dOnXqwC1ntxxqfCbjpppveXTu37vxaCWhf2GnRB5O+vr/25t9x6461PRMwguZfrQScffbZ373hhhtacX+qm9+aj4uuuTHvjSnOfdkCMJbmv31R1iQBN95442g2/y0cnzh+/PgHL7/88o+3P7pY9IFlr98/ts2/41eLBIxw8+9kIPSZgIsuuugLt99++/0Rf+PfZWgvx72us+77UmyiY77IZQrA+eef/8319fXe3pVuL4Fe5HtqkIDrr79+jJt/9yD87PHkyZMPXnfddfe371XQPVAs4zjWzb/LbLQEHDly5LM9vaXvT+Shu74lHJ+85ppr3tf+Xsqybu1bF7dv47uEaxuE6aLrcsx7Y4pzX1QATpw48bF77rlnV7f5fL60l/cdasGdOHHi4+3P3iNud955Z/vb/k8PdW3Lvt/2RU8WfX/z0/n+9fX1wd5YZVns2gbZvl5GxK2Gv1NfFmfjbDwrFARg4hqwqABMaUOy6P//oscBBxmQgTYDBIAAPG8ICIAHCpuFDMjANDNAAAgAAdiY5uL2oG1eZUAGni8DBIAAEAACMMgvGD3fA4//Z2OSgfgMEAACQAAIAAGQARlImAECQAAIQMKFr33Fty9zYA6iM0AACAABIADanwzIQMIMEAACQAASLvzo5mF87VcG4jNAAAgAASAA2p8MyEDCDBAAAkAAEi587Su+fZkDcxCdAQJAAAgAAdD+ZEAGEmaAABAAApBw4Uc3D+NrvzIQnwECQAAIAAHQ/mRABhJmgAAQAAKQcOFrX/HtyxyYg+gMEAACQAAIgPYnAzKQMAMEgAAQgIQLP7p5GF/7lYH4DBAAAkAACID2JwMykDADBIAAEICEC1/7im9f5sAcRGeAABAAAkAAtD8ZkIGEGSAABIAAJFz40c3D+NqvDMRngAAQAAJAALQ/GZCBhBkgAASAACRc+NpXfPsyB+YgOgMEgAAQAAKg/cmADCTMAAEgAAQg4cKPbh7G135lID4DBIAAEAACoP3JgAwkzAABIAAEIOHC177i25c5MAfRGSAABIAAEADtTwZkIGEGCAABIAAJF3508zC+9isD8RkgAASAABAA7U8GZCBhBggAASAACRe+9hXfvsyBOYjOAAEgAASAAGh/MiADCTNAAAgAAUi48KObh/G1XxmIzwABIAAEgABofzIgAwkzQAAIAAFIuPC1r/j2ZQ7MQXQGCAABIAAEQPuTARlImAECQAAIQMKFH908jK/9ykB8BggAASAABED7kwEZSJgBAkAACEDCha99xbcvc2AOojNAAAgAASAA2p8MyEDCDBAAAkAAEi786OZhfO1XBuIzQAAIAAEgANqfDMhAwgwQAAJAABIufO0rvn2ZA3MQnQECQAAIAAHQ/mRABhJmgAAQAAKQcOFHNw/ja78yEJ8BAkAACAAB0P5kQAYSZoAAEAACkHDha1/x7cscmIPoDBAAAkAACID2JwMykDADBIAAEICECz+6eRhf+5WB+AwQAAJAAAiA9icDMpAwAwSAABCAhAtf+4pvX+bAHERngAAQAAJAALQ/GZCBhBkgAASAACRc+NHNw/jarwzEZ4AAEAACQAC0PxmQgYQZIAAEgAAkXPjaV3z7MgfmIDoDBIAAEAACoP3JgAwkzAABIAAEIOHCj24extd+ZSA+AwSAABAAAqD9yYAMJMwAASAABCDhwte+4tuXOTAH0RkgAASAABAA7U8GZCBhBggAASAACRd+dPMwvvYrA/EZIAAEgAAQAO1PBmQgYQYIAAEgAAkXvvYV377MgTmIzgABIAAEgABofzIgAwkzQAAIAAFIuPCjm4fxtV8ZiM8AASAABIAAaH8yIAMJM0AACAABSLjwta/49mUOzEF0BggAASAABED7kwEZSJgBAkAACEDChR/dPIyv/cpAfAYIAAEgAARA+5MBGUiYAQJAAAhAwoWvfcW3L3NgDqIzQAAIAAEgANqfDMhAwgwQAAJAABIu/OjmYXztVwbiM0AACAABIADanwzIQMIMEAACQAASLnztK759mQNzEJ0BAkAACAAB0P5kQAYSZoAAEAACkHDhRzcP42u/MhCfAQJAAAgAAdD+ZEAGEmaAABAAApBw4Wtf8e3LHJiD6AwQAAJAAAiA9icDMpAwAwSAABCAhAs/unkYX/uVgfgMEAACQAAIgPYnAzKQMAMEgAAQgIQLX/uKb1/mwBxEZ4AAEAACQAC0PxmQgYQZIAAEgAAkXPjRzcP42q8MxGeAABAAAkAAtD8ZkIGEGSAABIAAJFz42ld8+zIH5iA6AwSAABAAAqD9yYAMJMwAASAABCDhwo9uHsbXfmUgPgMEgAAQAAKg/cmADCTMAAEgAAQg4cLXvuLblzkwB9EZIAAEgAAQAO1PBmQgYQYIAAEgAAkXfnTzML72KwPxGSAABIAAEADtTwZkIGEGCAABIAAJF772Fd++zIE5iM4AASAABIAAaH8yIAMJM0AACAABSLjwo5uH8bVfGYjPAAEgAASAAGh/MiADCTNAAAgAAUi48LWv+PZlDsxBdAYIAAEgAARA+5MBGUiYAQJAAAhAwoUf3TyMr/3KQHwGCAABIAAEQPuTARlImAECQAAIQMKFr33Fty9zYA6iM0AACAABIADanwzIQMIMEAACQAASLvzo5mF87VcG4jNAAAgAASAA2p8MyEDCDBAAAkAAEi587Su+fZkDcxCdAQJAAAgAAdD+ZEAGEmaAABAAApBw4Uc3D+NrvzIQnwECQAAIAAHQ/mRABhJmgAAQAAKQcOFrX/HtyxyYg+gMEAACQAAIgPYnAzKQMAMEgAAQgIQLP7p5GF/7lYH4DBAAAkAACID2JwMykDADBIAAEICEC1/7im9f5sAcRGeAABAAAkAAtD8ZkIGEGSAABIAAJFz40c3D+NqvDMRngAAQAAJAALQ/GZCBhBkgAASAACRc+NpXfPsyB+YgOgMEgAAQAAKg/cmADCTMAAEgAAQg4cKPbh7G135lID4DBIAAEAACoP3JgAwkzAABIAAEIOHC177i25c5MAfRGSAABIAAEADtTwZkIGEGCAABIAAJF3508zC+9isD8RkgAASAABAA7U8GZCBhBggAASAACRe+9hXfvsyBOYjOAAEgAASAAGh/MiADCTNAAAgAAUi48KObh/G1XxmIzwABIAAEgABofzIgAwkzQAAIAAFIuPC1r/j2ZQ7MQXQGCAABIAAEQPuTARlImAECQAAIQMKFH908jK/9ykB8BggAASAABED7kwEZSJgBAkAACEDCha99xbcvc2AOojNAAAgAASAA2p8MyEDCDBAAAkAAEi786OZhfO1XBuIzQAAIAAEgANqfDMhAwgwQAAJAABIufO0rvn2ZA3MQnQECQAAIAAHQ/mRABhJmgAAQAAKQcOFHNw/ja78yEJ8BAkAACAAB0P5kQAYSZoAAEAACkHDha1/x7cscmIPoDBAAAkAACID2JwMykDADBIAAEICECz+6eRhf+5WB+AwQAAJAAAiA9icDMpAwAwSAABCAhAtf+4pvX+bAHERngAAQAAJAALQ/GZCBhBkgAASAACRc+NHNw/jarwzEZ4AAEAACQAC0PxmQgYQZIAAEgAAkXPjaV3z7MgfmIDoDBIAAEAACoP3JgAwkzAABIAAEIOHCj24extd+ZSA+AwSAABAAAqD9yYAMJMwAASAABCDhwte+4tuXOTAH0RkgAASAABAA7U8GZCBhBggAASAACRd+dPMwvvYrA/EZIAAEgAAQAO1PBmQgYQYIAAEgAAkXvvYV377MgTmIzgABIAAEgABofzIgAwkzQAAIAAFIuPCjm4fxtV8ZiM8AASAABIAAaH8yIAMJM0AACAABSLjwta/49mUOzEF0BggAASAABED7kwEZSJgBAkAACEDChR/dPIyv/cpAfAYIAAEgAARA+5MBGUiYAQJAAAhAwoWvfcW3L3NgDqIzQAAIAAEgANqfDMhAwgwQAAJAABIu/OjmYXztVwbiM0AACAABIADanwzIQMIMEAACQAASLnztK759mQNzEJ0BAkAACAAB0P5kQAYSZoAAEAACkHDhRzcP42u/MhCfAQJAAAgAAdD+ZEAGEmaAABAAApBw4Wtf8e3LHJiD6AwQAAJAAAiA9icDMpAwAwSAABCAhAs/unkYX/uVgfgMEAACQAAIgPYnAzKQMAMEgAAQgIQLX/uKb1/mwBxEZ4AAEAACQAC0PxmQgYQZIAAEgAAkXPjRzcP42q8MxGeAABAAAkAAtD8ZkIGEGSAABIAAJFz42ld8+zIH5iA6AwSAABAAAqD9yYAMJMwAASAABCDhwo9uHsbXfmUgPgMEgAAQAAKg/cmADCTMAAEgAAQg4cLXvuLblzkwB9EZIAAEgAAQAO1PBmQgYQYIAAEgAAkXfnTzML72KwPxGSAABIAAEADtTwZkIGEGCAABIAAJF772Fd++zIE5iM4AASAABIAAaH8yIAMJM0AACAABSLjwo5uH8bVfGYjPAAEgAASAAGh/MiADCTNAAAgAAUi48LWv+PZlDsxBdAYIAAEgAARA+5MBGUiYAQJAAAhAwoUf3TyMr/3KQHwGCAABIAAEQPuTARlImAECQAAIQMKFr33Fty9zYA6iM0AACAABIADanwzIQMIMEAACQAASLvzo5mF87VcG4jNAAAgAASAA2p8MyEDCDBAAAkAAEi587Su+fZkDcxCdAQJAAAgAAdD+ZEAGEmaAABAAApBw4Uc3D+NrvzIQnwECQAAIAAHQ/mRABhJmgAAQAAKQcOFrX/HtyxyYg+gMEAACQAAIgPYnAzKQMAMEgAAQgIQLP7p5GF/7lYH4DBAAAkAACID2JwMykDADBIAAEICEC1/7im9f5sAcRGeAABAAAkAAtD8ZkIGEGSAABIAAJFz40c3D+NqvDMRngAAQAAJAALQ/GZCBhBkgAASAACRc+NpXfPsyB+YgOgMEgAAQAAKg/cmADCTMAAEgAAQg4cKPbh7G135lID4DBIAAEAACoP3JgAwkzAABIAAEIOHC177i25c5MAfRGSAABIAAEADtTwZkIGEGCAABIAAJF3508zC+9isD8RkgAASAABAA7U8GZCBhBggAASAACRe+9hXfvsyBOYjOAAEgAASAAGh/MiADCTNAAAgAAUi48KObh/G1XxmIzwABIAAEgABofzIgAwkzQAAIAAFIuPC1r/j2ZQ7MQXQGCAABIAAEQPuTARlImAECQAAIQMKFH908jK/9ykB8BggAASAABED7kwEZSJgBAkAACEDCha99xbcvc2AOojNAAAgAASAA2p8MyEDCDBAAAkAAEi786OZhfO1XBuIzQAAIAAEgANqfDMhAwgwQAAJAABIufO0rvn2ZA3MQnQECQAAIAAHQ/mRABhJmgAAQAAKQcOFHNw/ja78yEJ8BAkAACAAB0P5kQAYSZoAAEAACkHDha1/x7cscmIPoDBAAAkAACID2JwMykDADBIAAEICECz+6eRhf+5WB+AwQAAJAAAiA9icDMpAwAwSAABCAhAtf+4pvX+bAHERngAAQAAJAALQ/GZCBhBkgAASAACRc+NHNw/jarwzEZ4AAEAACQAC0PxmQgYQZIAAEgAAkXPjaV3z7MgfmIDoDBIAAEAACoP3JgAwkzAABIAAEIOHCj24extd+ZSA+AwSAABAAAqD9yYAMJMwAASAABCDhwte+4tuXOTAH0RkgAASAABAA7U8GZCBhBggAASAACRd+dPMwvvYrA/EZIAAEgAAQAO1PBmQgYQYIAAEgAAkXvvYV377MgTmIzgABIAAEgABofzIgAwkzQAAIAAFIuPCjm4fxtV8ZiM8AASAABIAAaH8yIAMJM0AACAABSLjwta/49mUOzEF0BggAASAABED7kwEZSJgBAkAACEDChR/dPIyv/cpAfAYIAAEgAARA+5MBGUiYAQJAAAhAwoWvfcW3L3NgDqIzQAAIAAEgANqfDMhAwgwQAAJAABIu/OjmYXztVwbiM0AACAABIADanwzIQMIMEAACQAASLnztK759mQNzEJ0BAkAACAAB0P5kQAYSZoAAEAACkHDhRzcP42u/MhCfAQJAAAgAAdD+ZEAGEmaAABAAApBw4Wtf8e3LHJiD6AwQAAJAAAiA9icDMpAwAwSAABCAhAs/unkYX/uVgfgMEAACQAAIgPYnAzKQMAMEgAAQgIQLX/uKb1/mwBxEZ4AAEAACQAC0PxmQgYQZIAAEgAAkXPjRzcP42q8MxGeAABAAAkAAtD8ZkIGEGSAABIAAJFz42ld8+zIH5iA6AwSAABAAAqD9yYAMJMwAASAABCDhwo9uHsbXfmUgPgMEgAAQAAKg/cmADCTMAAEgAAQg4cLXvuLblzkwB9EZIAAEgAAQAO1PBmQgYQYIAAEgAAkXfnTzML72KwPxGSAABIAAEADtTwZkIGEGCAABIAAJF772Fd++zIE5iM4AASAABIAAaH8yIAMJM0AACAABSLjwo5uH8bVfGYjPAAEgAASAAGh/MiADCTNAAAgAAUi48LWv+PZlDsxBdAYIAAEgAARA+5MBGUiYAQJAAAhAwoUf3TyMr/3KQHwGCAABIAAEQPuTARlImAECQAAIQMKFr33Fty9zYA6iM0AACAABIADanwzIQMIMEAACQAASLvzo5mF87VcG4jNAAAgAASAA2p8MyEDCDBAAAkAAEi587Su+fZkDcxCdAQJAAAgAAdD+ZEAGEmaAABAAApBw4Ufz9TfBAAAODklEQVQ3D+NrvzIQnwECQAAIAAHQ/mRABhJmgAAQAAKQcOFrX/HtyxyYg+gMEAACQAAIgPYnAzKQMAMEgAAQgIQLP7p5GF/7lYH4DBAAAkAACID2JwMykDADBIAAEICEC1/7im9f5sAcRGeAABAAAkAAtD8ZkIGEGSAABIAAJFz40c3D+NqvDMRngAAQAAJAALQ/GZCBhBkgAASAACRc+NpXfPsyB+YgOgMEgAAQAAKg/cmADCTMAAEgAAQg4cKPbh7G135lID4DBIAAEAACoP3JgAwkzAABIAAEIOHC177i25c5MAfRGSAABIAAEADtTwZkIGEGCAABIAAJF3508zC+9isD8RkgAASAABAA7U8GZCBhBggAASAACRe+9hXfvsyBOYjOAAEgAASAAGh/MiADCTNAAAgAAUi48KObh/G1XxmIzwABIAAEgABofzIgAwkzQAAIAAFIuPC1r/j2ZQ7MQXQGCAABIAAEQPuTARlImAECQAAIQMKFH908jK/9ykB8BggAASAABED7kwEZSJgBAkAACEDCha99xbcvc2AOojNAAAgAASAA2p8MyEDCDBAAArBUAbjjjjved/PNN78n4nbfffd9Ltq4Fx3/zjvvfO+11167tNttt912/3w+/+6i513L97/tbW97z5VXXvlAxK3NfC0c9ngeT1133XX3Hzly5HMRt9e97nUfms/nj+/x3GsTnMfatTX0Wm7H2NjYeGwnZgSAACxNAG688cZ3Lxq4Rb7/wIEDj999992f3Gkx1P7vt9566/1N0zy9CIO9fO/ZZ5/93faB6tSpU1+ondHznd9b3/rW9+zl+vv8nuuvv36sEvD0tddee3+fLPZyX5deeumnxyykJ0+efLCVqLPOOuvxvVz/Xr7n+dbvXu5v6/dMfPsc/+WVUhbaMDY2Np5+vgfV3f6/G264IfzBtw3uWWed9dg999zzmd2edy1f1zb/iM1/62JvP37Na17ziePHj3+4Fi67PY+3vOUtofK5lWMrwrs970q+7qlrrrnmfVuvIfLjyy677FNjeybg2LFjH7rkkks+E8mtHbtld/z48Q91uVr0fMa/Q078CmoQgDe96U3VPPi2gR/bMwF33XXXA03TPLnoYu3r+1sRaZ+N6B5Eaj/W0Py3sx/RMwFVNP/t/Mb0TMDtt98e8szddmZbP7/pppueldCt/7aXjye+fY7/8qIF4M1vfnNVm38X8rFIwLFjxz7YNM0T3XnXchyLBNS4+XdzOAIJqHLz7/iNQQJqzl8rAR3LvR7Hv0NO/AoiBaDWzb8Le+0/DnjnO9/5v1dXV3/UnW9tx1YCNn/JqLZfsHr2fGp62n+nuav4xwFVPe2/E7+afxzQxwa703XX8u8T3z7Hf3lRAlCz+W5dPLU+E3DixImPra2tfX/rudb4ca3PBIwlf+2cVvhMQNXNf/s6qPGZgPYvPraf5xQ/H/8OOfEriBCAMT34touyNgm49957P9We01geMGqTgLHlr53niiRgVJt/t0ZqkoDan/nsmPVxnPj2Of7LW7YA3HLLLaM031okoP0LhWX+iVAfDwLtfdQiAWPc/Ls5qEACRrn5d/xqkIDoP3XuWCzrOP4dcuJXsEwBuPXWW0e5+XeLJVoCTp069flzzz330e58xnaMloAxb/7dXAdKwKg3/45foAQ8/cY3vnHUj38dw9M5Tnz7HP/lLUsA2ldYO53g1Pq1URLQvsjOOeec8+1auez2vKIkYAqbf8c4QAImsfl3/AIk4On2xX268TMdx79DTvwKliEAt99+exUvUtPXwlu2BJw6depL55133iN9nX/0/SxbAqa0+Xdzt0QJmNTm3/FbogSk3fxb1hPfPsd/eUMLwNQ2/+4BZFkSsL6+/tAFF1zw9W7cqRw3JWDwl72d4ubfZWAJEjDJzb/jtwQJeLKmV0jsrnuZx/HvkBO/giEFYPPlaZ9aZuCWOdbQEjCfz79y6NChryzzmpY51tASMOXNv5unASVg0pt/x29ACXjy6quvfn83TtbjxLfP8V/eUALQvqtf0zST3fy7BT2UBMzn868ePHjw4W6cqR6HkoAMm3+XiQEkIMXm3/EbQAKeuOqqqz7Q3X/m4/h3yIlfwRACkGXz7xZ23xIwn88fOXz48IPd/U/92LcEZNr8u2z0KAGpNv+OX48S8MP2bYm7+81+nPj2Of7LW1QA2nfx23p7wxve0L6xxRDN/2ullOM93P7NEIuyfdngO+64473Hjh17YJFb+8Y+A23+f1RKefNsNvuHi9xKKTeUUr7TN8NWAo4ePfrhK6+88oFFbkePHv1I3+e2eX+Pzmaz15dSrljk1jTNVaWUQX6h89WvfvVnLr/88o8tcrv44os/PxC/h1ZWVi6YzWZlkdvq6upqKaWadx4ciNVPewv2R2az2T9eZO1ufu+NzzwOfHdZ5z3+HXLiV7CoACwpSN9YXV39m31NRdM0b1rSef+0hRzxbz9smubivviVUmallG8lYvidpmnWeuT3y6WUVmgjshAx5pdXV1d/qS9+Z5xxxs+XUhZ+o5oR8W9/Cfhv98VvdXX1nFLKY8u4/r7O2f0MRGAEAvBI0zR/q+/LTyQBP5rNZq/um18iCeh18+/moZSSRQJ63fw7fokk4Gt9lp+O37IkoBvPsVIClQvAN/s03+1TkEACnpzNZke3X3dfnyeQgEE2/45/AgkYZPPv+CWQgIdns9lLuuvt+7gMCej7nN1fzwQqFoD2Z66l58v9Y3c3YQl4ajabve6PXXDP/zBhCRh08++mYcISMOjm3/GbsAR8uZTy17vrHOo4tAQMdd7utycClQrAoysrK01Pl/iCdzNBCXi6/YWfF7zwnr6gaZqVif1OwFI2/w7/BCVgKZt/x2+CEvDQ2traX+uub+jjkBIw9Lm7/wUJVCgA32l/03fByzrtb5+QBDz9zG+ZX3faABb8hglJwFI3/w77hCRgqZt/x29CEvCFl770pX+5u65lHYeSgGWdv3H2SKAyAQh58O3QTUECmqb5le56ln2cgASE5m8CEhCy+Xc5n4AEfH5lZeUvddez7OMQErDsazDeaRKoSAD+sJRy4DRPv/cvH7MEzGazW3oHcpp3OGIJCN38O8wjloDQzb/jN2IJ+Fwp5S921xF17FsCoq7DuLskUIkAPN6+SMguT3nwLxujBDRNc/vgYHY5wKYE/MEy/s64pzGq2Pw7vCOUgCo2/47fCCXgE6WUP9+df/SxTwmIvhbjvwCBCgTg8dXV1Qtf4DSX/r/HJAGz2ezepQN6gQFHJAFVbf4d1hFJQFWbf8dvRBLwsbW1tT/XnXctx74koJbrcR47EAgWgD9qmubgDqcW/s8jkYD1cFA7nMAIJKDKzb/DOQIJqHLz7/jVLgFN03zk7LPP/rPd+dZ27EMCarsm57ONQKAAtK9Nf2jb6VT3ac0SMJvNfn3fvn0vqg7alhOqWAKq3vw7hBVLQNWbf8evYgl434EDB/50d561HheVgFqvy3ltEggSgFFs/l1ISin/pKefNff5Ouy/uW/fvhd351jzsX1Bp2feROjbFTFc6utMLDo37athDvUGQnuck4fOPPPMX1z0upb1/fv37/+Fit5AqP0z3f/Sismyrn/RcUop5+31DYQWHdv3D0wgQAC+t7Ky8vKBL6v3u69JAmaz2W9dccUVP9P7RQ54h2ecccZfaP9KoZTSvsJZnyJ0uvc1qs2/m5KKJGBUm3/HrwIJeLSUcrJ9Rqc7pzEd9yoBY7rGlOe6ZAH4QSnlyFhBV/LjgN8upfzsWBm2z1qsrq4efuYpgf+25Oy1ojCKp/13mtsKfhwwiqf9d+IX9OOAj7avyjmmxr8Tv738OGCn+/LvlRAopdy0rNtsNju/ksve82mUUv5RKeVdQbf1/fv3/9yeT76yb1xbW/sbpZQrlngbZfvaOm0rKyt/tRWoiFsNf6e+lYWPl0/gdJ8JWP4ZGhEBBBBAAAEEBiFwOs8EDHIC7hQBBBBAAAEEYgjsVgJizs6oCCCAAAIIIDAYgd1IwGCDu2MEEEAAAQQQiCPwQhIQd2ZGRgABBBBAAIFBCTyfBAw6sDtHAAEEEEAAgVgCO0lA7FkZHQEEEEAAAQQGJ/DTJGDwQQ2AAAIIIIAAAvEEtktA/Bk5AwQQQAABBBBYCoGtErCUAQ2CAAIIIIAAAnUQ6CSgjrNxFggggAACCCCwNALtywYvbTADIYAAAggggAACCCCAAAIIIIAAAggggAACCCCAAAIIIIAAAggggAACCCCAAAIIIIAAAggggAACCCCAAAIIIIAAAggggAACCCCAAAIIIIAAAggggAACCCCAAAIIIIAAAggggAACCCCAAAIIIIAAAggggAACCCCAAAIIIIAAAggggAACCCCAAAIIIIAAAggggAACCCCAAAIIIIAAAggggAACCCCAAAIIIIAAAggggAACCCCAAAIIIIAAAggggAACCCCAAAIIIIAAAggggAACCCCAAAIIIIAAAggggAACCCCAAAIIIIAAAggggAACCCCAAAIIIIAAAggggAACCCCAAAIIIIAAAggggAACCCCAAAIIIIAAAggggAACCCCAAAIIIIAAAggggAACCCCAAAIIIIAAAggggAACCCCAAAIIIIAAAggggAACCCCAAAIIIIAAAggggAACCCCAAAIIIIAAAggggAACCCCAAAIIIIAAAggggAACCCCAAAIIIIAAAggggAACCCCAAAIIIIAAAggggAACCCCAAAIIIIAAAggggAACCCCAAAIIIIAAAggggAACCCCAAAIITIbA/wPkIMPsMr6IdQAAAABJRU5ErkJggg==;" vertex="1" parent="1">
          <mxGeometry x="361.75" y="260.5" width="80" height="80" as="geometry" />
        </mxCell>
        <mxCell id="yqI1gPK7mimHnNKxgcp7-2" value="" style="shape=image;verticalLabelPosition=bottom;labelBackgroundColor=default;verticalAlign=top;aspect=fixed;imageAspect=0;image=data:image/png,iVBORw0KGgoAAAANSUhEUgAAAgAAAAIACAYAAAD0eNT6AAAAAXNSR0IArs4c6QAAIABJREFUeAHtnQeYVEX29t8ZZmDIQXJGkAySDCBJQEFAAUEykkFFJSk5GBDdXXN2P3XN65rXsOawrjmsOesaUXfNrhnd+vrw79am6em5t6pufu/zzDM9PTdU/epUnbfOrQDwIIHkEGgMYAqAMwHcBeBNAJ8D+BnA9wA+BfASgBsBnABgOIDqMcBTF8BYACcDuA3Aq+l8/whAheBnazo9b6f5PwHgbgCXAFiT+u6gVJnsCqBaDMqCWSABEiABEvCJQC0AhwB4WNPR/QDgegBjAFTyKc02HlOWEjjT00JHBE4YHL1pGv4H4B0AVwCYB2AXG6B4DxIgARIggXgRkF7vcQC+sOj8XgcwJ+RCoCqA5QA+tJhvU8ft5fVb0oJAIjuMEMSrDjM3JEACJOCKQBGAmQD+7aED/CeAPVylyp+TRwH4l4f59tKR27j31wAuAzAi5CLNH2vgU0iABEggQQRqA7jGJwf4C4CTQuJopNd/gU/5tuGo/bjHxwB+B6BpguyfWSUBEiCBRBLomOr5yyAyP5xL9jNuTw2uqxEg8SYAJCKRnSZ+/o2HjOH4fwDaB1hGfDQJkAAJkIBHBPoA+CRAJyij1nfyKG+FbrszgLcCzHeUhIZEbK4D0KMQUP6PBEiABEggOgQ6p6fvBe2MRAT4GQloCEAGJQad76g9X4SAjBNoEB0TZ0pJgARIgARyCYgTfC9ETvCW1MyD4txEevC3vPN/JkT5jpoIkPR+lhooemhIxnB4YCK8JQmQAAnEl4A42jtC6ARX+YBc3mlH0emGMc0ipHr6UGZ8BAmQAAmQgCUCR4bUCcqqdrJqnVfHASHNdxidu9M0yUDBJQBkCikPEiABEiCBEBOQJX1tLvDj1FE4PU9WHfTCmUjoP8nz/J3y1z1Plh+WWRU8SIAESIAEQkrgvAj0gid4wG5lBPKt63zDct1HAIZ4UHa8JQmQAAmQgCEB6f3Lxj1hcRjlpeNZy1EAWds/Kcv7lsfUr+/lNc4CQzvl5SRAAiRAApYJHBsB559xVIMs5n12hPKdyX+Uf8vGQ+stlh9vRQIkQAIkYEBA3qtbeQe+V8tW6oL9D1SvHXmU+mbtcerzVRvV04ccqU4YOly1rlPXluO60CCvuZfeb0MAdG3YSJ06YrR6/rAl6qs1x6pfjjkx8J8fN5ygPl25Qb21ZIV6YdFS9eCcQ9TFYyeo1QP2VhO6dFPdGzVWlYqLbZWJ2/tIGZbkFgb/JgESIAES8JeArPjntgHf7vzaZWXq2onTCjq979YdrzYMHqqKi4q2u1bj2TLX3MYWwrLegSxgo52eKiUl6uxRY9RPG04omPcwCIJ8afhs1UZ189SZanm/Aap302baHDQZ3kQR4G9F59NIgARIIJfACs0GfJvDqFe12rYeZj4Hk++7yw+cpIpgLAJ652ZC4++JJvkW53/vrPmRdPz5ykW+e/3Io9RxQ/ZRnRs09EsMXO7TIk8a5sFLSIAESCD+BGSlPe0G/44Zc1w7wRX9B2k/L53WpRaK5SyTfJ+//zjX+S7P8Ybx+8cXLFKTuu6qSrx/TXCuhbLkLUiABEiABDQIvKHrCPfv0EnLCcp78sY1apqIgD9q5DP3EpmfrpWGHo2bqK0bN2vlPYzOvlCa3ly8Qi3ava+qWlqqxcoh4825hcO/SYAESIAEvCVQCuBnh430Dg7gtmmztJ2gvHfWfS4AGbxneryr+/xzRo3RznchZxvm/729dKU6qEt3kzKr6NqFpgXK60mABEiABJwTqK/rBCU0LAP7dJ3WnTPmVOQQCv3/eedZLPfMb3TzLu/KdfMd9evum7VA7dq4SaGy0f2fLB28W7mlxX+QAAmQAAlYJdBG1wk2q1XLyAm+csRyXUch171tSEE2PZI56a7TIAMYv1+/ySjvURcBMsVQZnR4MI1QdqEUUcqDBEiABEjAYwIddZygXNOxfgMjJ7jlqDWunW9WWmVpWZNDVgDUen5ZSYlRvqPu/LPTf+/M+ap5rdpaHAvwv8fSNE8T++C1JEACJBB7AhQALoUABcD2ixz9Z8V6Nah1G9siYHXsax4zSAIkQAIBE6AAoAAwjmjIK5Fp3XvaFAEyHkBskwcJkAAJkIBHBCgAKACMBYC8Fvh54+ZtywwXCO27FQj3Wt74yaMqxNuSAAmQQDQJUABQAFgRAJmxAesHDXXr6Audf3A0qxVTTQIkQALhJ0ABQAFgVQCIEFjSt38hp+7mf59wVkD4GxGmkARIIJoEKAAoAKwLAHkdMKdXHzeOvtC5p0azajHVJEACJBBuAhQAFADWBYBEAX5Yv0kNaNW6kGN3+r/vATQNdzVi6kiABEggegQoAEIgAB6cc4ia33t31bVhI9WgenVVt2pV45/61aqrnevW27Zq3wEdO2/b8vdPYw9Sby1Z4YnDz4wByP4taz00rVnLqaMvdN4p0ataTDEJkAAJhJsABUCAAuCL1ceocZ26FHJ8nvyvVZ06297TPzZ/kedi4P7ZC2zsKPgtgEbhrkpMHQmQAAlEiwAFQEACQJx/90aNPXHwbqbiybr+lx04cVvIPrv3bvPzMrONnzKMGAWIVtvC1JIACYScAAVAQAJgYldPd9bLOE3Hv9vW20ldN2m6JxGB/649btvrCDfCJM+5XwKoGvL6xOSRAAmQQGQIUAAEIAAeX7BIyaZCeZxc4N8Na7uLemfpKutC4Pbps23kbXJkahYTSgIkQAIhJ0ABEIAAsDhP3oZT3eEeMgjxLwdNtS4CRnfotMOzXIqgO0Nen5g8EiABEogMAQqAAARA3xYtTR2h59dLhEJW9ZM5/bbGAzy18AjTyMcvAFpEpnYxoSRAAiQQYgIUAAEIAHnf7rLnG9j5M3v0VlstioAxHTub5mVtiOsTk0YCJEACkSFAARCAAJBpeFERAJLOWT3tiQCJAhjm/YnI1C4mlARIgARCTIACIAAB0LpOXVMn6Pv18jrA1quAPZq3MEn/zwDqhbhOMWkkQAIkEAkCFAABCIA2daMnAGRMwPWWpgmeN3qsiQCQaw+MRO1iIkmABEggxAQoACgAHDvj2mVl6r1lq40jAbIIUrXSUsfPzfPK4NwQ1ykmjQRIgAQiQYACIAABIGv053FqkfhO9hWw8SrgoC5GCyG9EYnaxUSSAAmQQIgJUABQALgWHncdPNdYBFw4Zrzr5+aIpoYhrldMGgmQAAmEngAFQAACIErTAHOc7jan3adpc+P1Ad5dtspUAAwKfe1iAkmABEggxAQoAAIQALvsVN/E+fUCUNfBT1MAuwKYCOACAFvyOXPd7+6ZOc84CtChfgMTDgtDXK+YNBIgARIIPQEKgOgJgF00raoygNkA3tZ1+tnXyTt807EAc3r1MREAp2ty4GUkQAIkQAIAKAACEADtzSIAugIgY/C1AFyS7cx1PleuVEl9ufoYIxHwh31HmgiAOzIZ4m8SIAESIAH3BCgAkicAMlZyvI7jz77mhskzjATAbdNmmQgAiWTwIAESIAES0CRAARCAADB8991es6zzXXZptkN3+/mQ3fY0EgBvLl5hIgB+yJchfkcCJEACJOCMAAVAAAKgo9ngtw7OitbRWXVMBgf2a9HKSADIJkPFRUUmIqCmo1zyJBIgARIggR0IUAAEIAA6NWho4vRsCgAxiHVue/6Z8+uUlRkJABlEWKtKFRMWrXewaH5BAiRAAiTgiAAFQAACoLOZAJAys3mIE9V2wv9de5yRCGhWq5b2swHYFkM2ufJeJEACJBBqAhQALp1fWUmJkcOTXm/IBEARgG91RcCWo9YY8TCMhnQPde1i4kiABEggxAQoAAIQAF0aNjLp9XbywJ4+0BUAMpDPZD2Ank2amrCQRZF4kAAJkAAJaBCgAKAAKE2NA/hZVwD8Z8V6IwFgOCPCCzGkUY14CQmQAAlEjwAFQAACoKtZBKCzZTMboOv8i1Ckfli/yUgAGI4BaGWZBW9HAiRAAokhQAEQgADo1qixSdi7i2Xr1F4LoFWdOkbO38IsAO4IaNkYeDsSIIHkEKAAiJ4AsBkB2MMk/D+yfUcjAfD5qo0mQuh/AKokp6oypyRAAiRglwAFQAACYNfGTUwcX1dLJlAfwKu64X+5buPgYUYC4KmFR5hw+NgSB96GBEiABBJJgAIgmQKgAYBnTZy/XPvo/MOMBMB1k6abCICnE1ljmWkSIAESsESAAiAAAdDDLALQzbDsRwL4yNT5N61ZS8lSviZTANcNGmIiAP5qyIGXkwAJkECiCVAABCAADOe+6wiAEgD7AbjP1PFnrl8zcG8j5y/CYVjbXUwEwO8TXXOZeRIgARIwJEABED0BcCyABQ5+jgJwKgDpKX+dcdw2fpcUF6t/LVlpJAAkelC7rMxEAEwztH1eTgIkQAKJJkABED0BYOI0rVw7v/fuRs5fev+PzDvMNC22BkMmugFg5kmABJJLgAIgAAHQu2kzU+cX2PXVSkvVu8tWGQsAeYVgEI34HoCsYMiDBEiABEhAkwAFAAWAK0d8yvBRxs5fIgCGqyHer2nvvIwESIAESCBNgAIgAAHQp2lzV07XoKds9Tl9W7RUP204wVgAPH/YEtN0bWANJgESIAESMCNAAUAB4MgZN6pRQ72z1Dz0L73/w/fo5+iZBYRPfzOz59UkQAIkQAIUAAEIgN2btTB1gL5eX1ZSoh6cc4hxz1+c/3/XHqfqmI3+/xJAZVZdEiABEiABMwIUABQABcVE5UqV1M1TZ1px/iIAzhp5QMHnFej1Z66TzYt4kAAJkAAJGBKgAAhAAAxq3SbjzEL9u0blyuoWi87/+/WblOwg6MDJFzpnlKHN83ISIAESIAEAFAABCIBp3XsWcnCh+F+L2rXV04ccaa3nL73/c0aNMc3bFwz/s90iARIgATsEKAACEAAXj51g6gg9vX5spy7q3yvWWXX+X6w+RjWpWdM03WfaMXvehQRIgARIgAIgAAHw5epjlIyqNwyFW79eHPSl4yZadfzS85cfCyP/Jb9c/Y9tFgmQAAlYIkABEIAAEId4xfhJ1h24rqCQNfnXDhyivlpzrCfO/6mFR6hKxcWm+X3Aks3zNiRAAiRAAhwDANdOSabEZXq1pr+PG7KPKkKR6zToOvrc6zrWb6D+sO9IJeF507yUd/03a49TXRo2spHH8ayxJEACJEAC9ggwAhBQBCDjMG+YPEPtXLeeDQdZ4T2qlJSo/i1bq3WDhlgf4JfJT+7vRbv3rTBducIkz98vASi2Z/a8EwmQAAmQAAVAwAJAHOYP6zepuw6eq9YPGqpm9uitJnTppiZ27a5k1z3dnyV9+29z9NLDv2biNPXPQ45U36473rOefq7jl7+vmzTdVoRjEqsqCZAACZCAXQIUACEQAPmcZ9S/e2LB4ap65crs/dutr7wbCZAACVgjQAFAAWA9KiDbBTetWcuG85d7jLBm7bwRCZAACZDArwQoACgArAqAD49aqzo3aGjL+d/8q6XyAwmQAAmQgFUCFAAUANYEgDj/Tvac/48A2lu1dt6MBEiABEjgVwIUABQAVgTAG4uPVh3qN7DV85f7rPvVSvmBBEiABEjAOgEKAAoAYwHwyLzDbK9s+DSAUuvWzhuSAAmQAAn8SoACgALASADIvgZVS0tt9vy/B9D5VwvlBxIgARIgAU8IUABQAGgJAFnhb17v3Ww6/sy9Fnhi6bwpCZAACZDAdgQoACgAXAuA+2YtUO13qp9x2DZ/X7qddfIPEiABEiABzwi0ybPsqqMGvUfjJq4dR/biNluOWuPoOeWk7yNDImXl3LfCNNncCyCbRxQ+yxbBslKhR/sXPAegmmG58nISIAESIAGHBMQR/qLjDEe270gBkN7qNgrO2ySNX685Vp04bISqW7VqhQJJx5YAbAHQyqHN8jQSIAESIAFLBB7WabRPHj6KAiDmAuCzVRu37RbYsHoNrxy/3PcrALtasmXehgRIgARIwAWBWW4FgKzx/sHyNRQAMRUAzxy6WC3os4ettfwLiYcfAAx1Yas8lQRIgARIwCKBSgAedSMCNg8bbuT8JRzNMQAnGjM0CevnXvvioqVq4+BhNpfxLeT45X/i/EdatGPeigRIgARIQINAEwCvOREBB/fopX7euNnYeVEAhEMA/HXKwap/y9YVOWvb/5e5/tzkR6Oi8hISIAES8IJAXQCXlTcosE5ZmTptxGgrzp8RgOCd/48bTlCLdu9r27E7uZ+88x/mhQHzniRAAiRAAmYEOgBYDeCK3Zq12DK7Zx8lq73JgLDcsLHJ34wABCsClvTt78RZ2z5HRvv3NDNPXk0CJEACJOA5gV+O2fxnEydf6FoKgOAEwL2z5ns1l7+QYJD1/Zt6brR8AAmQAAmQgDkBCgDs4NDisBDQqPYdd8iXk/EfBufIqyUu8mNeJXkHEiABEvCHAAVA/ATA9+s3qZLiYr8EwDcAZvhjrXwKCZAACZCANQIUAPETAM8ftsQv5y8LTMleEzxIgARIgASiRoACIH4CQBb5MQjlO7n2OwArAcj6EjxIgARIgASiSIACIH4CQDb08VAAXJ+aSrpzFG2daSYBEiABEsgiQAEQPwEgMzN6NWlqWwTICP9BWabDjyRAAiRAAlEmQAHgnwD46Oi16uapM9Ul4w5St0ydabzXQqEpmOeOHmtTAMhukgOjbOdMOwmQAAmQQA4BCgDvBcBj8xepYW13UcVFRds5Zfl7UOud1SPzDrO6AJMIg60bN9te/vdTDvjLqTz8kwRIgASiTIACwFsBIEsrV6pgSl4RipTp1sv5ogFvL12pmtastZ3oMBwb8C8AjaNs70w7CZAACZBAmgAFgHcCQEL9bhzu7/bZz3ok4OlDjlQ1q1RxlY4K0vwUgBqsQCRAAiRAAhEnQAHgjQCQ9/21y8pcOV6JBFw5frJ1EXDHjDmqtFIlV2mpQATcBqAk4qbP5JMACZBAsglQAHgjAI4bso+Ww61SUqJkHf98IX2T72SzJxEYFTh2N///Y7JrDnNPAiRAAhEnQAHgjQDo26KlG2e63bl1q1ZVLyxaal0EbBw8bLvnWBAD6yJu/kw+CZAACSSXAAWANwKgXtVqRs62Wa1a6p2lq6yLgEN229MoXTmi4X8AZiW39jDnJEACJBBhAhQA3ggA2VEwx1m6/rtH4ybqy9XHWBUBP6zfpIa3a+86LQXy8hOAYRGuAkw6CZAACSSTAAVAeAWAON3BbXZWsrufyfv/3GtFVPS0u1Lg1wB6JLMGMdckQAIkEFECFADhFgAiAqZ066F+3rjZqgj4YPka1bpOXZuRgC0AWka0GjDZJEACJJA8AhQA4RcAIgI2DB5qVQBIVODFRUuV6ViFnFcDLwGom7xaxByTAAmQQLQIVAfQ7dpJ0+555Yjl25aOzQ0Vm/695ag1Jj3MjwxxluU4J8dpkff3pnm3MQYgN/3njBpjnK7cfD0we6GynNYHAFQxLDteTgIkQAIk4AEBeVd7Q2o/9++zHUyjGjXUUXsNVJ+sXG/NyVAA7BhdyGbu9rMsKXzTlIOtlU9GDFx90JQd9ilwm7ac8/8MoMgD2+UtSYAESIAENAkcBeDnnMZ6u55x4xo11cPzDrXiZCgA7AoAKTdZ1vephUdYKZ+MAJDfv9935HZ2UMhGHP5vs6aN8jISIAESIAHLBBY7bLi3OZnnDlti7GQoAOwLACnDJjVrqreWrDAun2wBIJ+P2KOfbRFwuGUb5u1IgARIgARcEmgPQOZrO27gezVpajwugALAOW83ZSPndmrQ0OrrGhEAsoXwuE5dHNuIgzRLtGmsS1vl6SRAAiRAAhYJXOSgsd6h4b956kyjXiYFgHcCQMpzQKvW6tt1xxuVUW4U4Ju1x6l+LVrtYAs69pO+5jsAfS3aMm9FAiRAAiTgkEAxgE91GvA5vfoYORcKAG8FgJTpQV26G0dqckXAf1asVx3qN7ApAj4BsItDe+VpJEACJEAClgg01HH+cs1eLVtRABxzohYDy1PrCjrj5f0GaKUx1/Fn//3G4qOVzAzRtZ08170JQGyRBwmQAAmQgE8EOuRpjB017PKeOdspuP3MCID3EYBM2Z6+3/5GZZWvbB9fsEhVr1zZka1k0lHB78cBVPPJ7vkYEiABEkg8gY4VNMrlNvAd6zcwcioUAP4JgOKiInXdpOlG5ZVPBNwydaYqKS4u10Y0bOtmAJUSXysJgARIgAR8IEAB4GL2gzi0sK4EWJGzrVpaqv4x9xDrIuD8/cfZFAByr/N8sHs+ggRIgAQST4ACICECQATCTtWqqZcPX2ZdBBy910DbImBZ4msmAZAACZCAxwQoABIkAEQE7Fy3nvrwqLVWRYDsRjh91542RcD/AEzz2PZ5exIgARJINAEKgIQJABEBfZo2V1+vOdaqCPhh/SY1dOd2NkXAjwCGJLp2MvMkQAIk4CEBCoAECgARASPbd1Q/bjjBqgj4YvUxqnujxjZFwJeyK6WH9s9bkwAJkEBiCVAAJFQAiAiY33t3qwJAZgq8t2y1alG7tk0R8DaAxomtocw4CZAACXhEgAIgegLgD+K8bf2cOGyEdRHw9CFHbts0ylYaATwKoIpHdYC3JQESIIFEEqAAcOlMQzANsCqAS2051yIUqSvHT7YuAm6fPluVVqpkTagAuCCRNZSZJgESIAGPCFAARE8AlAEoTW2ic6ctESCO+q6D51oXAVeMn6REYNhKJ4AxHtUD3pYESIAEEkeAAiCaAkAMtRaA52w51zplZer5w5ZYFwEbBw+zKQDeT+c7cRWVGSYBEiAB2wQoAKIrAMQWmgJ415YIaFarlnpn6SrrIuCQ3fa0KQI22q4EvB8JkAAJJJEABUC0BYDYbFcAMl3OipPt0biJ+nL1MVZFgKwRMLxdeyvpA/AFgDpJrKzMMwmQAAnYJEAB4NJxhmAQoIwByD0GAfjBlggY3GZn9f36TVZFgIiKnk2a2hIBS3IB8G8SIAESIAF3BCgA4iEApNQnA5AldK042SndeihZ4jffLoC6332wfI1qXaeujfS94M7MeTYJkAAJkEAuAQoAlw4zpBGATLmutiUA5D7rBw21KgBEOLy4aKmqV7WaDREgtsuDBEiABEhAkwAFQLwEgJjBWTZFwDmjxlgXAQ/MXrhtW2XDdC7WtHleRgIkQAIkAIACIH4CoBKAWwyd66899JLiYvW36bOti4AzRx7w6zM003o9azAJkAAJkIA+AQqA+AkAsYbqAJ7QdKw7OOaaVaqopxYeYVUEyPiCfi1a7fAsF2l+Q9/seSUJkAAJkAAFQDwFgFh2QwBvuXCoBZ1xk5o11b+WrLQqAq6bNL3gMytI+y/pFRFZi0mABEiABDQIUADEVwCIObQF8O8KHKljJ9ypQUP1ycr11kTAV2uOVfKKwSB9TTRsnpeQAAmQAAlwDID7KXMhnwWQz6j7AfjOwMlu56AHtmqjvlt3vDURsHPdetvd32U6u+TLML8jARIgARKomMAuLhvcXxvrNnXrGjkBCSfrPhvABxVnreAZspmO1vOlx7rVYH68XFvJrNcraXd7HAhAQuZaec69bmLX7kYMstcR6NygoUmaOrsFwfNJgARIgAT+j0Dj3Mbd6d9VS0uNFop5aO6hJg3/KxYK8Hunec0978Oj1mqLH1kMJ/d+Lv6WnrzuIdPmTJ693bXL+w3QZpAtAGQTIoN0tdeFwetIgARIIOkEqhk0vkYjw/+w70iThv9RCwWn/W78+knTtZ3ftROnmeT7I8N8n2xS3rnXnrHf/tocRAS8csRyExZyLfcEMDQIXk4CJJBsAuJUtBpi3V6gTAHr3bSZ1jPTab3SQpGJiNBKw/jOXbUd37hOXbSemU7rw4b5LgZwjW6+c6+TVxk3TJ6hzWLdoCEmLL42ZMHLSYAESCDxBB7Ibdid/l2ttFRr+9irD5pi0vDLtRsslNolTvOZe14RitTjCxa5dnyPzDtMybW593Px98UW8i2bCT3o4pkF0yuvguR1TnZY38nn95evVrWqVCl47wrS+JgFFrwFCZAACSSawO8raGgLNtJ7NG+hvnUxKvzVI5bbWAt+uIUSO8wk3zJ6/d8r1jl2fHKuDJw0eSaAhRbyLbeoB+Blw7T8mpf61aqrFxYtdcxC7EV2HDR8/pmWWPA2JEACJJBYAiMMG2K1V8tWysnAOOkBN61Zy7Th/zG90p1pgWmvgZDhJfPiRdBU1OOVd91ybuY6g98ya8PW0TolKLRf/+TmYadq1dTf5yyskMXHR69T+7TdxQYLmdnAgwRIgARIwIBAVQBf5Tbobv+uW7WqOnHYCCWj3HMd4vOHLVHze+9uuuhLxmncbpDX3Etfd5vP3PMlBL6y/2D15uIVO+T7jcVHqxX9Byk5J/c6jb9tzHzIzX9vAP/VSEve/BQXFalZPXvnHRz6nxXr1cnDR6lGNWrkvdZlGmQ2hCx3zIMESIAESMCQwEUuG+ByG3FxAtLblV6eLBrTsnadcs/VfOY0w7xmX75eMw1587TLTvXV3m3abvtpV2+nvOcYPG9tdsItft4PwFaDdOXNZ7NatVT/lq3V8HbtVdeGjZTYhcVn/MVi/nkrEiABEkg0gT0sNs42G/rce/0HgExdtHW0ACCvFHKfE7a/fwDQzFam89xnXgQYZJfJwDx54FckQAIkQAKaBO6JgBNYrZm3QpddGIF8X1AoA5b+d1wEOIgIkF0OeZAACZAACVgk0Dc1ve5/IXYCHwKoaTG/mVu1sblWvgf8vgXQMpNYD38XAdCeGulBvrN7/NmfB3vIgLcmARIggcQSCHNveIqHpbLORweW7cycfPYi6lEeStln4K4Qs7i2vITzexIgARIgATMCMj/83RA6gJvMslXh1VUAPB3CfEu4u3KFqbd7Qi0Az4aQhSzd3MBuVnk3EiABEiCBbAKyfexPIXIAbwOom51Ajz63BfBliPL9BQB5PRHEIQMO3wsRC5lPN0/zAAAgAElEQVSlYGPxpyBY8pkkQAIkECkCMtXO2vaxBo5EHPKuPpIbFpJZATLqf28f853vUV0AfGpQdk5ebzg954h8CeR3JEACJEAC3hBYEvCgQFmcaC9vslbwrgcFHAGRaYnjC6bQv3/2AiCRCKeO2ovzvFr/wD+KfBIJkAAJRJDAwQE5w48BiPMJ6pDFcb4JwPHJqnz7BpXpcp4r5fBBACwkArW8nDTxaxIgARIgAR8ISChapuB50bvLd89HfJr2VhE6efXwmo/5lqV+u1WUqID+3yT1Dl57+2QNhp+n5vuPDCivfCwJkAAJkEAWgUYAZApWPodt6zt5730sAJmKFpZD1h04z+PxED+nRrefA6BGWDJdTjpKAKwC8L3HdnCbx6selpM9fk0CJEACJFCIgIzE/qdlByCLD90AwOZOd4XyoPO/3QA8YDnfIpzuAyAb8kTpkHK6ygNR9FLKtg6IEgimlQRIgASSRkBWjBsFQHpqJpvIyAh/WXioa4QA9gcgG9GY9IJlJ7urAxrgaBO1zBI423CQoLznlyWoxwAotpk43osESIAESMBbAvJqYG6q934lgHcqmDUgo9tfSDuNsQBkG+KoHrUBTAUguyjKlsISxi/vVYj8T84RsSOrGcq1cTqkHEUQnpFy5M+kXhPIq5zyWMj3sr6ACKBDAMjYAh4kQAIkQAIxICDOQHr0A9KDuGREu+wxIGFjeYcc10NW6+uU7tWPACA/MoVRvvN7Jb+gGVcC0A6A7DC5D4DRAIak7SLs4xyCZsfnkwAJkAAJkAAJkAAJkAAJkAAJkAAJkAAJkAAJkAAJkAAJkAAJkAAJkAAJkAAJkAAJkAAJkAAJkAAJkAAJkAAJkAAJkAAJkAAJkAAJkAAJkAAJkAAJkAAJkAAJkAAJkAAJkAAJkAAJkAAJkAAJkAAJkAAJkAAJkAAJkAAJkAAJkAAJkAAJkAAJkAAJkAAJkAAJkAAJkAAJkAAJkAAJkAAJkAAJkAAJkAAJkAAJkAAJkAAJkAAJkAAJkAAJkAAJkAAJkAAJkAAJkAAJkAAJkAAJOCFQG0A3AKMBzASwDMAmAOcC+COAa/L8XAHgAgCnAVgPYBGAKQAGAWgDoLKTB/McEkgT6A3g+JQdXg/gbwAuAjAdQI2EERoI4HcAbgJwK4DzAUwAUCVhHJhdEiABywTaAhgLYA2AP6c+PwvgSwDKg59fAGxJCYL700Li0LQ4ELHBgwQyBJqlHX55NvhvALMyJ8f4d0cADxeoh+8COCDG+WfWSIAELBIoAzA03TuXnsQnBRqX8hpfL74XYfAygIsBLADQyWKeeatoERCn96FDuzwDQHG0suc4tcMAfOGAw/9S5y12fFeeSAIkkCgCuwI4GsBdAL5z0KB44eB17vkBgD8BmApgp0SVWHIzK6H9113aqLyKilsofDKAH11wEAE9PLlmw5yTAAlkE+iS+uMYAK+6aER0nLRf1/wM4KF0T0fCwzziSWCdpr3eC6BWTJBIb14cutu69UpqvESlmDBgNkiABFwSaJcepPeeRuPhtrEJ8nxpHGUMwcEAqrtkxNPDTUDeaeva1ksARPhG9aiaHlyrm3+5bnBUM890kwAJuCcgoc8ZAB4EIO8CTRqPKF77dXpkeB/36HhFyAjsbMF+vwUwN2T5cpIcGfPyvIX8S9SPBwmQQMwJNAKwEoC8J4+i4/YizU+lowKlMS/7uGZvL4u2LOMCmkYAVAmAIwB8YynvMj2XBwmQQEwJSC9J5kK7GSDkhbMN8z0ljCzrD8iMBx7RIdDTkhPM2KY4VekRh3Xtid0APGE5z6dGp7iZUhIgAacEWqcX2NlqucHINJZx/C1zxSVKIu9WeYSfgAzi+8kD+5axAZNCNECua3q9DS9e2c0PfzEzhSRAAk4JyPQ3metMx6//qkMWHpK1BThC2qnVBXfe7R4IgIy4lemF8wKcMrgngL96OFZHxFMUXnsEZ118MglEhID0WqX36tWKfJlGMUm/pSc4KiLln9RkyjgAL3rG2Xb+WXop3QEAijwG3SK19sYKSwP8svOQ7/N5HueFtycBEvCBgKy9/46HPaF8jUeSvrsBANcS8MGQNR9xgo+2L/VM9q6QxaZs9J5FuA9JrU54XHoJX535/Dp1UVbRjMs6CJpmw8tIINoEmgC4zMfGT6ehics1Ml1MIix8LRC+OiNL+54ZUD14E8AtAE4BcAiAEakVNPsB6J6qmzIAtyUAWapYpp3KUr0iHGSg4VWp6NKTAH4IIN3i/CXSwIMESCCiBGTuMsP9+u/5dYWJjMKWBp1H+AjIinhevw7QtZuwXPc4gPrhKzqmiARIwAmBhumBQWFpULLTIcvvyqqC/0hHJk5O7xi4EMBB6R9Zf1x6QvKzf/o72a71yFTmpWd0VnoL02dS330eQO8oOz/lfZb9EWQuttfvg53YA8/ZnoCs9ujFzIDybCFK30ukotr2uPgXCZBAVAiIw5SpamFodGTXMRmBvTm1f4BsRNINgBcL6tQDIHubyzbAMmjpnyGa4XCnpffAUbG/qKRT6oms+BiGehKWNPy/1LLfsogQDxIggYgRkPfOJwUc3hSHf116elzngLdUlfX8ZQ3zY1PvXB8DIJGHoBraj1L7DAyKmD0lIbntAUgUKSi7CMtzJVrFrX+TYPHMYywJSMj/voAaMhnxLGF8mWoV5sFvEiWQwVXXB7R9say5INsn85VAuKqg7Hsha2KExRn7nQ4Z7CeROR4kQAIRJCAjh/1eu1/eu8uIall2NIoOTaID8kpCwvN+TanKNOwSIeE71vBVNBl/IhGsTDkl4bes8c8VLcNni0wRCTgiMNbihh9OGjwZuCe96Dith98qRVoGFkqY3gkDG+fILIHGjkqYJ/lJILNCpt+i0IZNubnHawD29RMsn0UCJGCXwDKfeq8yWvqK9BxluzkI190kFDzTx3fC8upE1m/nET4CXmyo48ZBe3Vu2DcyCp8lMEUkEDICEnI/zYfeqjj+CwHIhkFJO2SEuGwD7FVDnLmvrNEgS8fyyE+gL4A/pMTnralBlPenN7uRhXSkp+71IaPhD08NaP3QBzvI2INXv6Uu/8mn2Siy4NJIAOemZwDdm362RA75usFrq+X9Y01AKpdM1fGqoZD7yiIpl6dXKIs1zAoyJ0JrDAAZJOUlb1k9kOHY7QujeWqlvLsKcBfhtGT7Szz7S7b9lXUDJGzupR14cW9ZQVBWAW3nGZ3tb9wLwHMFOL0PQF5b8iABEnBJQEbYX1KgctloQGQFMFmilMdvBKQnKLv+ebm2wo8Axv/2yER/6uCi1y31wa9561L/pBcra0zYqGte3kM2JpK1N2R2kF+HiGURsxXlSzoYnHLoV6nwObEgIL1R6ZVXVLl0//8fANMiOqLfrwKum97gxatlZGWaoKwRn+RDZme47WnfGMBWvF1ShSQDR9/ysE66rcvfp/cbkNkMErXw85C2w83W4jLIUlb55EECJOCAwGEeNTTizKQX5cc7VQfZjMQp8s7+FY/KQ6ahJXl2wCpNrncENLVSXsnJAk/yvvtVzbS7dfTZ50tP/6bULp+zAty1T6JjOrMmXgh4obBINDZMJAnIwBkvws8fpwfrkLB7AjIN8lSPVl083X1yYnPFGwZO9NkQbMcsO2/KawLZCljGjrjpFWc79vI+S539a3r8Q4+AHahEJSUKUl5anXzP142xqbrMiFcEZES6k8rk5hzpMUljxcOMwFAAMrDJDfuKzhWxJz3LpB3NLHB8G4AsQR2WQ/a9kOWGRwNYnorunJ9K3zWpVTPvTg38fCQ9YE5eI7ybjirJzBP5n/Tq5ZWfOFgRFLLYV+2wZCr9yuVKC+UlER8eJEACBQgcZ6GiZZyO9Ehk/QAe9gg0AHCPxTKSskri1MvelhjKDIED7BUv75RDQISaiJdMm2LyW5Zg5kECJFCAwNmWKpuED7khTQHQBv+SEeInWnwlIM4waYeM/jdxJtnXytgW2RgrzHtTRLF8ZcdNmytmbooiBKaZBPwkYCMCIO9HZW512A5Jk+zYNzu9Uc7G1GIhv0u/Q5XVBy8GIAJIGvPV6elDEwHIfOOaYctM6r2vpE1GY2c7I53PSYwAyLgKWalOh1d510hkRnqsPMwIiJBa58GYBnm9wYMESKAAAdMxALKgSq0C9/fjX9KA9Ew7cHkHKouFOJkzXF7DnvleohqyP4GIhEkhGdewp+GgzaSOARA7vNayABA7kZHyE/ww8pg+o01qyt5DHpSLbEEsO3TyIAESKEDAZBbART4ulJKbBenFHpVexlXey2actte/X08vYSzzoYNaelRWXvuXZp6TPAtg11RP82dNbhXZlUSUZLwGD2cEZCCqLLv8lUflIZE+HiRAAg4I6KwDIANsZKqOn4coelk2VUYye7VgTkUNffb/pZchEQeJosiIbD8Peb3hdr2ApK8DIOVztEcOR+xCtrGWeet+1ws/7c7Gs3YBcJ+H5SCrKXJLbBslxXskgoA0WG6m3ZzgMxVZ1etvHvbesp267udPAJzs81gIWYr1GYcNqczQ2M/ncgvr42RApW45O7nuwdSqeUkcaFlRectql7K+hWwe5ISjzjkyHsnPJYoryjP/TwKRICDv0SVsVihE+t/0qmB+ZEhChNKzfszDxkKnganoGmncZIMUWc7Vj6NGOgpRKF2y45wMhuTxG4G1HtuVrF4nq2CGcXDsbxT8+SRLBy9K7X74qcfMHwUgIoMHCZCAJoFOqaV7z0qvNCYhbnlH92QqrHmsT8paHP+8kK2DXsi5lvc/eUVxM4DumuXg9jKZQnVpSqC9k5rRIJv/SGP79/SqbrIGPo8dCcimMV6/SpId86Q+JXG2gLwWmw9AFlAqr57Y+l5eKYgY5kECJBBRArIimah4W41CGO4jPUGJCNSPaJnEPdlTAIiT9tpWZPqmrOkvK/fF/RBHfIRPjl/K7c8BbNgU9zJk/kjANwKyQY2sby7O0uuGOKj7y3Qx6XFy8RjfzMrxg/r7EJ7O2J3Y+C0A9onhkswypU9eI8pgyEx+vf4t45E46NKxqfNEEggXgZkeTgXyuvHRuf/jAGQaH49wEZCR6W63CtYp/+xrJDQui1O1ChcKV6mRqbCyXe+9Pgt4ec0111VKeTIJkEBoCMhKe7IhSXaDmJTPXwOYHpqSYEIyBGRDHNkox287lHEIMthV1rWIwiqNMqZE1sH4iwerKzphLxtk9c0UGn+TAAlEi4AstSsL6jip7HE+R8YGcOBSuGxXwsmyLHSh2TBe2+RL6elywwGEYQCnDMyVRZRkDQVZg8PGctS6DGWwH6f5havOMDUk4JiALJTix6Ar3QbG7+tkMR8JP/MIF4EhqdkoH4RApMr6DbKwjSxHLYtgyZLXVTxEJQJI3uXLFFzZLli29vZzpc3y6p8IsuMDXHnUQ+S8NQkkg8DKEDSo5TUwQX4vU/YY0gxfHZCVJ73YP8DU1kQUyHiFW1PLD58DYEX6PfyI1IJZu6derbUF0DQ9J17mxcteHfJ7p9SMlJ3TU1NlXYjxqcGPh6dWzft9Opz/RGo7b3k9ZZo+29fLWAkZqMmDBEggggRk5Pt5IWxYbDdUJveTneqkAecRPgKzQtILNrGvqF4riykFvdlY+CySKSKBiBCQbVivC8j5y+Cqd1O9B9m29fzUoi8b0gOt5DWEzP+Whv3Q1DtNiUxsTs8nlkWPggp5yshmbmEaTsOWqaoyZiOqjjRq6ZbNrmQMBA8SIIGIEpCev8x59qvxkS2AxdnL1CoJcZpsCCJLuIpIkMiFDMryKw8yT3xiRMs7Cckek5p+JqPQ/bKHpD1HXm/IKwmTupsEO2QeSSD0BGQ0tdcNmPSaRWSIs/ZyxLTM3V/vkxgQISMDsXiEk4A4J4kayd4YXtt3ku4vMwy6hbPImSoSIAE3BGROtZehdNngRhphGdjk9yE7vcnuidJb8aqBvsjvTPF5rgnI+v5xX8HSK/vOvu+rAEa7ps8LSIAEQktgskfOUdYPkM2CvJwK5RSqLNoiG714MS/6CwCymQqP8BPomt6R0euNhbKdZhw+y+h+GY9TEv4iZgpJgATcEDjZsgCQUfIyLzkMjj+XQwuPBoh1zH0Q/w41AVng6q8+7DAYdef/RnoALh1/qM2ZiSMBfQIXWhQAV6XnNeunxp8r90vNx5bGzVYD3c+fZPMplgnIeJEzUivnyVgOW7YQh/s8lV7MiI7fssHxdiQQNgIykte00foqPbgvbHkrlB7Z48DWdLEOhR7E/4WeQIPUksLrfNwW17S+eXH9d+n6sFvoS4sJJAESsEZAVhkzaVCktxDlXfNk2VaTUeKyfTC3DrZmjoHeSNbSl5XsZMBgUqICUn9l++sgBukGWth8OAmQwP9tciNL3OqIAAn5V44BRBkcpruevCzxyiN+BGQKoayzL1EiGdeiUz/Ceo2slyHjdDrFr9iYIxIgAbcEjtBo4E4HID2muBwtUwv7vOySg0yflLXcecSbgCxxOwnAnwBscWkjYRABEt6XzYKWRTxaF28rY+5IICACsrOYzJd30ljJFKpVAaXT68dKGPRhhxx+AjDS6wTx/qEkIIvgLE1vQBRGQSCvLx5IL5u9L4CqoaTIRJEACYSGgLzHPrGCRXPkVcG40KTYm4TIngj/r4IpYvK6YJA3j+ddI0hAokeyLPSm1A5+N6RnmMhS0U4Etek5nwC4L73OxcLUzoN9OF8/ghbEJJNASAi0ByBrAzwLQBoXWcnv7+nNeWTVwKQcsp/7ueklhT9Ph35lCdRF7FElxQSM8ilCUtaHkJ0jxTGfAECm3N4I4EEALwJ4K/W/jwCIfcmPzKaR3zKwVP4ni2k9BuC21NbBlwOQ124SxpeBu7LKZX2jFPJiEiABEiABEiABEiABEiABEiABEiABEiABEiABEiABEiABEiABEiABEiABEiABEiABEiABEiABEiABEiABEiABEiABEiABEiABEiABEiABEiABEiABEiABEiABEiABEiABEiABEiABEiABEiABEiABEiABEiABEiABEiABEiABEiABEiABEiABEiABEiABEiABEiABEiABEiABEiABEiABEiABEiABEiABEiABEiABEiABEiABEiABEiABEiABEiABEiCBUBGoCmBXABMBrAdwJYAHADwF4E0AHwH4AsDnAN4B8BKAJwDcDuDc1PdHAhgOoDWA4lDljIkhgd8IiG2KjYqtLk7brtiw2LLYtNi22LjYuti82L7UgfvTdWJduo5IXZE6w4MESIAEIkdAGq/+AFYCuBvAjwCUpZ+v0/eUe/cGUBQ5OkxwnAjsDGABgGsAfGrJxqWu/JwWBycBGEZBECeTYV5IIH4EqgA4EMBNAH6w2BBWJBw+AHAygG7xQ8ochZRAdwCnANjio51/n4qi3QhgHIDKIeXCZJEACSSMgIQrzwHwmY+NYXmi4BkASwDUTlgZMLveE6gDYCmAZ0Ng5xJpOBuACBEeJEACJOA7gZ7psOf/QtAg5goCeU1wBoDGvlPhA+NGoH4qQ8ek393n2lkY/pZXbH3jBp35IQESCCeBvQDcF0Knn68x/gbAqQDqhRMlUxViAuL4TwPwbURs/R4KgRBbE5NGAhEnIE5UetW/RKRBzBYEMvJaRmVzBkHEjdCH5Mug0oMB/CeCdi7RuMtSsw8a+sCJjyABEkgAAXGaMso5DO/4s526zueH+N40ARarn0UZz/JIBB1/bl2QMQLzKXj1DYFXkgAJABIG/VsMGsTsBnJrqmDlnS6jAbTwDAHp9UuEyOZ01WybC+rzvRwHkyli/iYBEnBDYJDP05z8biRv5tgAN+YQ23Nlxsi1MRO52XXpYwD7xLb0mDESIAHrBNamFyLJbkji+FlWZutjnR5vGBUCuwN4L8bOP1NnZVGh1VEpFKaTBEggGAKVUiHD8xPQIGYaRvktMwX2CwY3nxoggaEAZLpoti3E/fOfAJQEyJyPJgESCCkBWclPljONeyOYL3/y7ndKSMuFybJPYCqAnxJq67JSJ/cZsG9TvCMJRJZA9fSGJPmcY1K+k+mNiyJbgky4UwJHAAjj4lV+1jPZfEjqPA8SIIGEEyiN4Uh/3cZUHMPshNtDnLM/jc7/1wifLBwkUT8eJEACCSUgU+Fka15dh+nqurIaNVWbbj1Vr31GqiHT5qixR6xQk1cfr2Yc83s1e9OpatamU9XUdZvVxBUb1eiFi1X/A6eorv33Vo3btFPFlUpcPcsgTxIa5piA+FWIUQBkCqjndlRaWqp67rGHmjx3nlq5+SR17l+uVdfc/6C6+fGn1L0vv6bue+U1dfszz6kbHn5UXXzzreq4M89Wc45covYeOUrV3Wknz9OXxeBy7qYZP0NnjkjAKQFZ6tTTBqdB85aq7wET1EFHrVcLTz5PLTzlfK2fuSeeoUYuOFJ17T9YlVWv4Wma0wMD93AKkeeFnkA/r5f0FcctDv+sq65W/3jzbfXklo+1fp744CN11T33qcUbNqoOXbt5bedyf9nVkAcJkEDCCMzyyvmXVK6iug0cqiYevUHL2VckEub//mw1fPahqtkuHb1sIGWrVy6pGv1KIRtCfeSVre8+YKA65U+XqkfffV/L4VckFK6+9wE1ed58VbVaNS9tfUb0i5k5IAEScEqgc7qXa7VRqVxWti28P/O4kz1x/PmEwdgjV6qWnTzrKd3JFQOdmlQoz5NXXPKu26qdy/0G7LOvuuS22z1x+vlEwd0vvLztNUG1Gp5Ev/4LoGMoS5CJIgESsEqgzIs9zVt17qamrT/RN8efKwb2P3SpqtuosfWGPjVdbI1V+ryZnwQ22nb+LVq3UWdecZVvjj9XDMjYgZETDvLCzl8AUM3PwuGzSIAE/Cdwgc1GsVqt2mrUwsWBOf5sITDvd2epHkNGqKKiIpsNpAwc437r/tup6RP721zNsri4WM0+crF6+O33AnP+2WLgzCv/rOo3bGTTzuVe55pC5/UkQALhJbCXzWlQzdp12DaCP9sJh+Hz6EOXqmo1a9lsHKV3JNMleUSDgKx295wtoSsD/ILs9Wc7/uzPdz3/kuq79xCbdi5rYVDsRsPGmUoScEXAaqO46+B91AKDUf1eC4XpG05UtRtY7SEtdUWbJwdJ4Ghbzr9dx07qb08/E4pef7bzz3x+/P0P1fi582yKgH8CkCXBeZAACcSIwDIrjWJRkdpj1LhQhPwrEhHjVx6r6rdoZatxlHXjm8XIHuKalRYAZFCbcbl37dlL3fPiK6F1/hkR8MDb76uZK9eoouJi4zynuclqiTxIgARiQmAnWxufDBg/JRLOX8TBtONOVmOP3qDqt2htq2G8JCb2EOdsWFnYqlffvuqht94JvfMXEfDQe1vU1S+8quasWW/Lzr8EUDfORsK8kUCSCBxno0fUZ/j+kXH+IgBmHH+KGr/6eHXAsnWqTqMmNhpH2Va1XZIMJ2J5bWtjtT8J+8uKfZkedth/P/Leh9sEgIiACYcebsPO5R4bIlb2TC4JkEAeArUAfG4qADru0T9Szl8EwMGbTt0mAEQEjDpihZKliE05AJBZFDzCSeBC0/Jt2KSJuuOZ5yPj/EWcPPb+bwJARMDgsQfasPPPUqsE1gxnMTNVJEACTgmsMm0U6zVppuaedFbkBMDME077VQCICBg0fa6N96SyV0BLp/B5nm8E5N2/bOus7fwqlZSoP95wU6ScvwiAJz74+NcIgAiAy596TrXu2EmbQxZDGUzJgwRIIKIEZOqa0TKopVXK1ORVx0bO+UsEYObmM7YTACICugwcaqNh/H1E7SHOyT45y3FplfGiVWsi5/wzryeufvHV7UTAqTf/TZWZLx/8IQCZPcSDBEggggT2N20U+405KJLOXwTArM2n7yAADlx1rI3xALJPAKdKhadCiJMyErodu3VTj7+3JcIC4LXtBIBEAqYvX6ElhHLajJHhKWamhARIwA2Ba3Iqs6sGQUL/839/TqwEgEQBhsw6xMZqgcPdFATP9ZSAbPXryrazz5dV/i6+5bbIOn+JAlz94o4C4MpnX1KtOhhvmPVnT0uONycBEvCEgEzj+T67oXP7+YBFR0XW+ZcXARABID+tuvXQdhhpjjLdjEc4CFzt1razzz9g8pRIO//yBIBEAdZfdKmpnX8HoHY4ipmpIAEScEpgfnYj5/Zz07btI+38KxIAwxcuUUVFRgunfAugutPC4HmeEZCR6tpCVwb+3fjIY7EVACICOvbqYyoCZntWerwxCZCAJwSudev0s88fHZINfsSR6/7kGwOQiQDI7xadjbcRHuFJyfGmbgiMzrZbt59HHDg+8s6/UARABMDq8y80FQB8DeDGInkuCQRMoAjAJ24bw8z59Ro31Xa6us7ai+sqEgB7z1xo2jByNkDAhp6aq35Kxm51fl92+12xFwAiApq3bWdi6x8DkDaFBwmQQAQI7KrTGGau2XP/8YkQABIFqLlTA5OG8ckI2ELck/hMxm7d/m7Tvn0snH9FEQARAFOWLDOxc7m2a9wNifkjgbgQkJ3rtCp8UVGRmr7hpMQIgC6DhmlxSvOVpYG5ZnpwtaYeANnCVqsMj1i7PjEC4Nx7/66KiytpcUrzPTK4YuaTSYAE3BDQ3hClUeu2sXD+8kqholcAEgHYd8GRJo2iXDvUTcHwXKsE9tF1/nLdDQ89khgBIFGAdt13NbH1y62WHG9GAiTgGYGndRvGXvuMSpQAEBFQtWYtk4bxMM9KkTeuiIBsW6tVdg0aN4mN83fyCkAEwNh5C7RYpRk/UVFh8P8kQALBE5DBOtr7oe9/6NLECYCWXYx6RmcEX+SJTcHZugJg1ISJiRMAa/94sYkA+IoDARNbz5jxCBFortsooqhIzdl8euIEwK77jDRpGO+MkG3ELal369r60Zs2J04AXPzokyZ2Ltc2jZsBMT8kEDcCe+s2ivJ5rIkAACAASURBVNVq1Y6N83c6BkBeAfSfNNOkYXw7bgYUofy8o2vrZ//5L4kTAPIaoE79+ia2PihCtsGkkkAiCYzXbRSbtuuQSAEw4lCjKVJfJtLKwpFp7VddtzzxdCIFQKfeu5kIgHHhKHamggRIoDwCM3UFQPvd+iZSAMgOgUCRbsMo09C4SEp51ujd98JcawqgTHV9/P0PEykABuw/RtfO5bqDvStO3pkESMAGAe2R0V37D06kAJDXAJVKS00aRu4JYMNy3d1D9gDQKrNq1avHyvk7nQUgrwD2nTxVi1ma9SJ3RcSzSYAE/CawWrdh7Dl0RGIFQFn1GiYNY2O/C5nPQxNdO6/fsFFiBcCYuUZTAVfR7kiABMJN4HjdhnG3EQckVgBUr1vPRAC0DbdJxDJ1wlyrzJq3ap1YATDx8MVazNKspW3hQQIkEGICFADpHQSdrAQo4X/5qWEmANqF2B7imjRhruXMWrRuQwGgx44CIK61ifmKDQEKAAqA2BhzgYxQAGz5+Fchc/WLryl5x1/RDyMABSyK/yKBGBCgAKAAiIEZV5gFCgAKgAqNhCeQQNIIUABQACTB5ikAKACSYOfMIwm4IkABQAHgymAiejIFAAVARE2XySYB7whQAFAAeGdd4bkzBQAFQHiskSkhgZAQoACgAAiJKXqaDAoACgBPDYw3J4EoEqAAoACIot26TTMFAAWAW5vh+SQQewIUABQAsTdyABQAFABJsHPmkQRcEaAAoABwZTARPZkCgAIgoqbLZJOAdwQoACgAvLOu8NyZAoACIDzWyJSQQEgIUABQAITEFD1NBgUABYCnBsabk0AUCVAAUABE0W7dppkCgALArc3wfBKIPQEKAAqA2Bs5BwH+tg/Ak1s+VtwLIAkmzzySQMUEKAAoACq2kuifwQgAIwDRt2LmgAQsE6AAoACwbFKhvB0FAAVAKA2TiSKBIAlQAFAABGl/fj2bAoACwC9b43NIIDIEKAAoACJjrAYJpQCgADAwH15KAvEkQAFAARBPy94+VxQAFADbWwT/IgESAAUABUASqgEFAAVAEuyceSQBVwQoACgAXBlMRE+mAKAAiKjpMtkk4B0BCgAKAO+sKzx3pgCgAAiPNTIlJBASAhQAFAAhMUVPk0EBQAHgqYHx5iQQRQIUABQAUbRbt2mmAKAAcGszPJ8EYk+AAoACIPZGzqWAuRRwEoyceSQBtwQoACgA3NpMFM9nBIARgCjaLdNMAp4SoACgAPDUwEJycwoACoCQmCKTQQLhIUABQAEQHmv0LiUUABQA3lkX70wCESVAAUABEFHTdZVsCgAKAFcGw5NJIAkEKAAoAJJg5xQAFABJsHPmkQRcEaAASAuAmZvPUONXH+/op0bdegqA7o84Ix7+EqAA2E4AvKqufqHin4mHL9a1cblO2hYeJEACISZAAZAWAAdvOs2R8xeRQAEQYovOnzQKgLQAePyDjxw5fxEIFAD5jYnfkkBcCFAApAXAlI2/owCIi1XvmA8KgLQAuP/t9ykAdrQPfkMCiSRAAXDK+WrOSWep8Wuchf8ZAYhkPaEA2PKxeuKDj9X1L79OARBJE2aiScA+gcQLAHH+E9ae4Lj3TwFg3wh9uGPiBYCE/m9+7U3Hzp+vAHywSj6CBAImoC0Aeu0zSs058cxI/sw+6Uw184TT1dSNv3fl+DODBDkGIGCrdf94bQHQrHVr9eA7H0T2R0L+d775trr2pddcOX8KAPdGxitIIGoEtAVAl4FDtZxnxolG+TcFQNTMHNoCoHHLlq4dp5MR9lE4h4MAI2fnTDAJuCJAAeBw6l+2YKEAcGVjYTiZAsDBtL9cUUIBEAbTZRpIwDsCFAAUAN5ZV3juTAFAARAea2RKSCAkBCgAKABCYoqeJoMCgALAUwPjzUkgigQoACgAomi3btNMAUAB4NZmeD4JxJ4ABQAFQOyNHOAgwNz3+07+5hiAJFQN5jHJBCgAKACSYP+MADACkAQ7Zx5JwBUBCgAKAFcGE9GTKQAoACJqukw2CXhHgAKAAsA76wrPnSkAKADCY41MCQmEhAAFAAVASEzR02RQAFAAeGpgvDkJhJ1AEYBdAEwDsAnApanPb+jua19Wo6aq27hpIn+KK5WY7JN+N4BzAKwCsC+AumE3nAimT5gOTzMW1sJcq8xKK1dWO3fu4ulPlz32VIPGjFVH/O4UddlTz/q68uBVz72kVpx9vhp20CS16179t8tn3YYNtZilWUvbIm2MtDVT021PBE2JSSaB6BIoTjuZCwB8pNsI8jo95+GQ2/8APAFgdarBbBNdUws85W0BrAXwJABhauK8Aru2XqPGavkZZ/siAjZd+RfVot0ufub1QwDnAxgGQDokPEiABDwgUBXAYpMeflQb0Iin+xcAtwAY7IFNxPWWewO4DYCw89OZefasoqIiNWv1Ok9FwMpzzlelVap4lgcHZfE6gCMBlMXVMJkvEvCbgKjquQA+cFABg6z8fHbFzup2AN38NqAIPW9XAHfF1c6Liyup9Rde4okIOP22u1TV6tXDUgffAzCLEYEI1TwmNZQEdgZwf1wbxITm68dUOHsDgNJQWlwwiaqcchbHAvgp7jbRsn0H9efnX7EuAvbcd0RYnH92Ou7lK7BgKhSfGn0CowB8GfcGMcH5exhAk+ibqXEOmqYG9z2aJDvYdNU1VgXAhQ89ripVqpTteMP0+WsA44ythDcggQQRkMFjkR30lKTG3DCvWwB0T5Bd52a1JwAZRBYmh+V5WqYvX2FVAMi7/5AzlLEcR+cWPv8mARLYkYBMsQl7hWb67JXRZwD67GgGsf9mt9SAsc+TaOsHzJqt/vrqm9Z+Dt90YlTqo7zm4UECJFAOgZVJbBCZZ4gI6FCOTcTx645Jdf5i6/OXHaWe3PKxtZ/N510QFQEg6TwqjgbNPJGAKYEJcZr2RKfuOorzJoCdTI0oAtc3APBWku1DHLZNAXDVPfdFSQDI64ADI2CnTCIJ+EZARvt/leRGkXnfJhhu8s3ignmQTGmVNRGi5LCsprWsalV1/6uvWxUAIiZatG5jNZ0el5EMbm4djAnyqSQQLgKyst8jHle4KDUOSU/r/HCZp9XUHJJ0O5995GLrzl8EwLFnnBW1evMPANL28SCBRBOYl/RGkfnfrkcsA+Pqx7BG1APwaZLLulP37uqht97xRAA88cFHasS4A6MmAmSxIB4kkFgCNQH8O8mNIvO+nfPPNOBnxrBGnJvkst5j4CB170uveuL8M+MJHnnnfTVmytSMDUXht+xlUj2Gts4skYAjAkuT3Cgy73mdvzTc3wNo5MiConGSLHj0Q9LKu7i4WHXr1Vsdf/a56vH3P/TU+WdEgPw+5+prlAiOkpLSKIgA2TuABwkkjkAJgHdtNYo16tRVXfsPVntPmaVGLVysDly6hj8eMxi3eKUaPucwtde4yapVl+6qpNRqg3t8jGrECbbsvEpZmRq473B19KbN6tRLLlN/uvVv6rLb7wrdz9X3PqDue+U135x+tgDIfP7Hm2+rax74hxU2Z//5L+qYM85UE2bOUg2bNLEpLN4GUClGts6skIAjArK3uXFFqlm3nhoydbZacPJ5auEp5/MnQAYzj/2D6jpgiCq2syyrbKgSh0FSkgfjjaykNzt53nx19wsvB+pUM841yb8lmiFioFHTpsbtV7oN3MdRi8mTSCBGBC41FQDNO3RWszedSqcfoNPPJ7oOOGyZKqtew0bjODAG9j7E1M7r1Kun/nj9TXT8FhcPsiFg7n35tW2vGkzLF8BFMbBzZoEEHBOQ+dD/Mak4LTp2UfP/cC6df8icf0YQTDx6g6pcVmYqAn7n2KLCe+LJJnZevWZNdc39D9L5h8z5ZwTEY+9+oPYcNNjUzj/m1sHhrcBMmX0CXU0axZr16qvZJ5xG5x9S558RAcNnH2LaMD5m3/R8v+OTJrZ+yp8upfMPqfPPiACJBDRp3tzU1jv5bpl8IAkERGCuSaM4dPo8Ov+QO/+MCGjevpNJw/gTgMoB2aiNx1YBsFXX1vsO3pvOP+TOPyMCjj/rHBM7l2tn2zA43oMEokBAQrtaFUZ6/ws54C8yAmj/Q5dqlXOWfUR5kyDp1Wnn/4LrbqQAiIgAkIGBhlGAE6PQcDONJGCDwHW6DWP3gUMj4/wyveAk/5ZxGmXVq2s7QQAjbRhcQPcYrWvndXfaST3+3hYKgIgIAIkETJ47z8TOrwnIRvlYEvCdwD26DeOwGfMpACIS/s8InxYdOps0jNN8t057D5yha+f9hgyh84+Q8xcBsOmc80zs/G57Zsc7kUC4CTyu2zCOOfwoCoCICYCOu/czaRhlA52oHodp2/mUqRQAERMA8spGt7wBxGHAa1TrKdPtM4FndCvKhGVrKQAiJgC6DRxq0jAu8dk2bT5O0q6V9ynzF1AAREwAXHHn3VplnbYRaRN5kEAiCFAARMyJZ8L5Or8pANyLgKnzF1IAUAAkwhkwk8kjQAFAAeC0t5TICAAFwMeRE0CMACTPkTHHegQoACgAKAAKvB6gAKAA0GtaeRUJhJ8ABQAFAAUABUDkevmZhX/y/WYEIPyOhykMBwEKAAoACgAKAAqA32xA2kQeJOApgcYAJqX2n5a91q8EcCMAmX/q98/XuqOjG7Zso5q178SfCDGoUbeeU2ef77zXArBPW/VB0p4vTxV+17hZM7X7gIH8iRCDrj17VViuBexB2kRbdufmPuIDrkhtvX0cgIkAxEfwiBGB6gAWpVZUe6KA8ZkYLq/VbORZHnrOkdzIjTbgqQ3IOi2yhoX4Dh4RJVAKYHnK+X/CyuJpZaEAogCiDdAG4mgD4juWAiiJqA9MbLI7A3iOjp+OnzZAG6AN0AYMbeBZANyuOCJyYiyAbw0LPI5qlnliL402QBugDejZwDcADoiID0xsMmXjlJ/p/Kn4aQO0AdoAbcCyDWwFMDWx3jXkGR8B4CfLBU61rKeWyY3caAO0gTjagPiYfULuCxOXvOYAPqXzp+KnDdAGaAO0AY9t4DMArRLnZUOc4ds8LvA4KlnmiT002gBtgDagZwN3hNgfJippMuiPRkwGtAHaAG2ANuCnDYxOlKcNaWafpACgAKIN0AZoA7QBn23gaQBFIfWLiUhWP58L3E91yWexN0MboA3QBsJtA3skwtOGNJPnUABQ9dMGaAO0AdpAQDZwVkh9YyKS9WZAhU5VHm5VzvJh+dAGaAN+2IBseMUjAAKN6Pyp+mkDtAHaAG0gYBtoEID/S/wjB5kUeu02u6h+x5+rRlx6R6R+ei/fpK1qd9ullrprUw/tnzMW7qL97DptOxpxHnDShdrPblG/inaehdfVK7toP7tK7XpG+Y6afdpMr7DTreNSZia2Ljaj+2yxVRMOUld0ny111CTf0kboPrvPUScY5duEWfa1e19yhyq6wOHPunMVWrTVznOa1YDEe+MAAEzWNdSyuvXV1Mc/VHPe2Bq5n30vulXbWIf3rqd+uXVv7Z+HT+6t/eyGPfYwYj3+zhe1n92xeTXtPAuvLZfvpf3sqg0aG+U7ijZqK83CTreOS5mZ2LrYjO6zxVZNGEhd0X221FGTfEsbofvs4RffZpRvE2bZ1055fasqetbFz31bFGrvpJ1vABMD8H+Jf+Q8XUPdefSkUBhqttE6/UwB4D7cSQEQPaEr9YECwL2tUwBsVa4FwLNbFYZPNBEA4ot4+EzgEF0B0HHKAgoAjUgAIwDuG2RGAPTFBwWAe3ujANAUABPmmwgA8UU8fCZAAeBylC9fAei9/uArAH0n7jSyle88CgAKgHx2UdF3WhEACgCf3bf54ygAKAAcqXa+AgjGgVfUUFf0fwoACoCKbCTf/ykAzJ1rFO5AAUABQAEQwYGs+RrtfN9RAFAA5LOLir6jAIiC+zZPIwWAWwHQp7765fYR2j8Pn7anI4ebb2xGoLMAWlTXzrPw2nLV3tr5FidWUYPF/+ePUBgJgKv2Nirzji2qa5d5oLMATtvTKN/D+9TXzndkZwHIIEC+AjD3yD7fgQLApQAYsXsL9b+/z9f+eeS8MdqNQ6ACoGUd7TwLrw9vnKadbwqA/M7diegxEQBSZia23rFlHe0yD1IASB01ybe0EfkEvJPvKAB89oAJfxwFAAWAo8ZKGnOTRpECQN+JO3H05Z1DAeD+FQAFAGcBJEUXUABQAFAAcAxAXhtgBEAv0scIgHvRBUB8EQ+fCVAAUADkbfxzw5WMAATTgy+vZ+/0e0YA3DsjRgAYAfDZDwf2OAoACgAKAEYA8toAIwCMALhZDpiDAAPz49oPpgCgAMjb+DMCEM0ef25kgBEARgBybcLJ35wGqO1TI3VhIgXA8Etud+T0cp2g/D2qb0ujwXCcBeC+QRYn5qTR4jk7ihYKAPf2xlcAfAUQKS9ukNhECoCxt/xTWwDMHdWBAkBjGiRnAezonP0QLBQAFAA6dsYIgIFXjdCliRQAM1/6RpVWr6klAs5d1p8CgAIgMhEJCgAKAAqACHlkn5OaSAEgFaLduBmuBUBZ5UrbFrQxmQ/PVwDuG2S+AtCPHlAAuLc3vgLgKwCf/XBgj0usADjovtdVpbKqrkTA6uk9jHr/IhwoANw3yBQAFABue7Gyama+MTxOvqMAoAAIzCP7/ODECgBpUPY+/UpVVFzsqKEY0qup+vHeuRQAGuF/ET4cA6DvxN06v+zzGQFwLzgpACgAfPbDgT0u0QJAGsp9/niTKqtb/uYdRUVQs/drr767e46x82cEwH1jLD02RgD0xQMFgHubowCgAAjMI/v84MQLABEBM575TO224kTVsOeeqkrteqpyaYnauWlNNW90R/XY+WOtOP7MuAG+AnDfIFMAUABkRzWcfOYrAH2bEb6cBeCzJw7ocRQAeVaBe/PRzVadfsb5MwLg3vkzAmDWkDMC4N7mGAGgAAjIH/v+WAoACgBHYyC4F4CZI3bSa/XiHAoACgAdu2IEwHdfHMgDKQAoACgA8tiATqMZxmsoACgAdOySAiAQf+z7QykA8jT+fAWwY6PJCAAjANmvspx8FptxMu0u3znj73zRaLEljgEws1cKAN99cSAPpACgAHDUSFMAmDWoOr0wG9cwArCjmM0nOLK/4xgAjgEIxBsH8FAKAAoACoA8NmDD+YbhHhQAFAA6dsgIQADeOIBHUgDkafz5CmDHRpMRAEYAnIT9s8/hK4Ad61F2pCHf5+EX32b06kPH2ee7hgIgAG8cwCMpACgAGAHIYwP5GsUofscIgHsnzFcAfAUQgC8O5JEUAHkaf0YAdmw0GQFgBCC7d+/kMyMAO9ajfL3+7O8YAQjEDyb2oRQAFACMAOSxgSj29vOlmREA906YEQBGAJKiCCgA8jT+jADs2GgyAsAIgJNef/Y5jADsWI+ye/v5PjMCkBTXG458UgBQADACkMcG8vWmo/gdIwDunTAjAIwAhMM9e58KCoA8jT8jADs2mowAMAKQ3bt38pkRgB3rUb5ef/Z3jAB47/T4hN8IUABQADACkMcGotjbz5dmRgDcO2FGABgB+M1FxvsTBUCexp8RgB0bTUYAGAFw0uvPPocRgB3rUXZvP99nRgDi7XDDljsKAAoARgDy2EC+3nQUv2MEwL0TZgSAEYCwOWqv0kMBkKfxZwRgx0aTEQBGALJ7904+MwKwYz3K1+vP/o4RAK9cHe+bjwAFAAUAIwB5bCCKvf18aWYEwL0TZgSAEYB8zjKO31EA5Gn8GQHYsdFkBIARACe9/uxzGAHYsR5l9/bzfWYEII5uNrx5ogCgAGAEII8N5OtNR/E7RgDcO2FGABgBCK/LtpsyCoA3tqrp//xU9Tl6s2rYYw9VpXY9VaVyidq5aU01b3RH9eh5Y1R2r8b0szQu+ZS/k+8kfSZOaPydL2o/mxEARgDc2j4jAO7FByMAdh0c71aYQOIFwLALblRV6uxUrmMsKoKaOaK9+u7uOVaEAAWA+0ZRerEmwifJ1zIC4N7eGAFgBKCw24zPfxMtAPY+/UpVVFxcrvPP7pUP6dVU/XjvXGMRQAHgvkGmANCPPlAAuLc3CgAKgPi4+MI5SawAOOje11SlsqqOnH9GCKye3oMC4O/ztRh8eOM0V6wzzOU3BQAFgNsojrwuy7YhN58pACgACrvN+Pw3sQKg3bgZrhuIssqVlDgyt+9Cs89nBMB9j4wCgAKAAkDfBtyyk/OnvL5VFT3r7gcT5rtuU7OEmfgiHj4TSKQAmPnSN6q0ek0tYz1n2V4UABpRAEYA/G3AM40+XwG4F5yMAFAA+OyHA3tcIgXA2Fue1nL+olbnjOxAAUABEJlBiRQAFAAZMejmNyMAgflkXx+cSAEw/JLbtQXAqL4tKQAoACgAHNgApwG6Fx+cBuir/0v8wxIpAPa96FZtATBi9xYUAA4a/+xxD/KZrwD4CiDrfW+F9U/WrHDTY809l4MAzeyNEYBkaAMKALhT6RQAnAWQ62zC/DdfAbir3yJSOAaAYwCS4f4BCgAKgAp7Y9IociVAsx5VUCKBAoACQMf2GAFIhgSgAKAAoADgXgB5bcB0yivHALgXHxwDkAzHG5ZcUgBQAORt/HPf1zICwAhA7riOiv6mAKAAyG1HCvwtvoiHzwQoACgAKAAYAchrA4wA6I13kXFCBRxdwf8xAuCzB0z44ygAKAAKNkiZhowRAEYAKurx5/6fEQBGADLth4PfjAAEIEYoACgAKAAYAchrA4wAMALgZjlgLgUcgAc3fCQFAAVA3sY/V7EzAsAIQG4Pv6K/GQFgBCC3HSnwNyMAhs5c53IKAAoACgBGAPLaACMAjAAwAqDjVqNzDQUABUDexj9XqTMCwAhART3+3P8zAsAIQG47UuBvRgAC0A0UABQAFACMAOS1AUYAGAFgBCAAr+zjIykAXAqAob2bqc9uPVj7585TRuZtbAso41/Pl/XNdVb1ylwj66s7eU6+c3ZpXls7z8Lrlcsnaj9bVrPL5IG/3UUiTFYClDIzsXWxmXy25OS7IPcCkDpqkm9pI5zkMd85nAboo/fjo7gUcL5KGNbvghQAQTKhAHDn9LNFkokACLLMgxQAQeabAoBe2U8CjAC4jAAE2ThQAOg7wmynmKTPFADu38MHWccpAPx0f3xWIgXAiEvv0A7RBdk4NOqzl1EofMI9r0Yy39UbNzfKd5Icfm5ehV2QNqv7bLHV3Ly4+Vvqiu6zg7xuxKV3GuXbDaNC53IzoGSIg0QKgHG3PhPJxqHNfhOMGocZz30RyXzX797HKN+FGrq4/69+116RLHOxVZOyaT38wEjm+8DbnzfKtwmz7GspACgAClagjlMWhMJQs43W6edpT35cMG9B9gAKPbvzwYcbMy+tXjNyeW85dH/jfDu1jbid12LvUZEr79IatYzLu/OMwyKXb6n70576j3HebdgwBQAFQMEKFGUBIBWkdptdCuavkCMO6n+DT7vcuHFo2m9o5PLde/km43zbaBSjeI9eS4+NXHk3G7CvcXkPOvmSyOW7Vut2xvm2ZaMUABQABStQ1AVAt3nLCuYvKCdf3nOLS0rV9Kc/MW4g9txwRqTyLTwOvOMF43zbahijdp9xtz0bufLud+zZxuUtdaW4tHKk8t594QrjfNuyTwoACoCClSfqAmDsLU+rouLignkszxkH8X3rEeOtNA5THnlflVStFpl81+/W20q+bTWMUbzPTl16Rqa8S6pWV1Me/cBKmbfed1xk8i1tkYxNCot9UQBQABSsPFEXAFLR2u4/pWAeg3D0+Z5ZVKmS1V7wroeuikS+hYXM2AhLoxjVdOx3+d2RKe8ei9ZaK+/xd72kiiuVRCLv7cbNsJZvG3ZKAUABULDixEEATHzgTVWldt2C+cznkP3+Tl5X2KjUmXvMeOYzVaNZq9Dn21bUI5PvJP+OQm+4ZvPWasazn1u19a5zloTezqvUrqcmPfgvq/k2tXUKAAqAghUnDgJAKon0MMPcS5BBe7Ne/d564yDTjWS0td9ixunz6rTrpESomDZkvP7/Fk+SaXV1O3QNbXmXVqvhSQhc6k7TfkNCm29pe8Iy9z+7rlAAUAAUrDRxEQBi9INOuVRVqlylYH6dOi6b5zXefaCn04JE/FSuVSd0+a7bvoua+Pe36Pwtb1IkEa+6u3QOXXlLFG6/y+7yrLxlal2jPv1Dl+9KVcrU4NOu8Czf2Q7d7WcKAAqAghUmTgJAKsfoa/6hqjXS38TDpuNHUZHqOHWhmvXKd543DvKetE7bjgXL2mreKlh6WULVtsPAbhu/OJ8vUZWWww4ITXmLIBl/18ue2/msl79VHSbPU1K3/LTn8p5VvUkLtf91D3ueb11bpgCgAChYUeImAKSiHPz8l0rmTQcZGm+yxyC1//WP+NowiNDou/FMVbV+o4JlXl5jZuP7ep12VWFZB1230YzSdftedKuq17F7YOUtexTIdD8/RG52uYy+9iHVeLcBgeW7cs3aqvey49XBz3/lax3PZuDk8+TXtyo3WwHLuZgw34SrrErLw2cCiVwKuKIKMPOFr9Ww829Q7SfOUbKmeM2WO28bLCihSps/4nClEZbV2nZbeZKacPcrgTYK0hjLa4HOBy9S8vqhdpv2VvObYVdWr4GSMH/zgcNVzyM3qLE3PxVoviuyhzj/f8xfn1Q9j1ivZPEdKRMpm0w52fwttiQ2JatZio357fhzy1CiDrutOHFb3ZM6KHXRZn4z95K2Q9qQDpPmqmEX3KikbclNSxj/Hv0qBYDPvjiQx1EAWH7PGsbKzDRxF0HaAG3AjQ10f4kCIBCP7PNDKQAoACLRI3HTePFcOjvagL4NjHttqyp9jgLAZ18cyOMoACgAKABoA7QB2sA2Gxjx6lZVTcP5cwxAIP7b+KHaAqDBpAWqz8tb+UMGtAHaAG0gwjbQ++WtquuLW1WDF9z3+rMHCnIQoLE/9v0G2gIABy1wsvlXnQAAArtJREFUPUo021j42ayykR/50QZoA2GyAQoA3/238QMpAJ5lIxKmRoRpoT3SBqJpAxQAxv7Y9xtQAFAAMJJDG6AN0AaMbYACwHf/bfxACgBWfOOKzx5bNHtsLDeWm00boAAw9se+34ACgAKAAoA2QBugDRjbAAWA7/7b+IEUAKz4xhXfZi+C92KvlDYQTRugADD2x77fgAKAAoACgDZAG6ANGNsABYDv/tv4gRQArPjGFZ89tmj22FhuLDebNkABYOyPfb8BBQAFAAUAbYA2QBswtgEKAN/9t/EDKQBY8Y0rvs1eBO/FXiltIJo2QAFg7I99vwEFAAUABQBtgDZAGzC2AQoA3/238QMpAFjxjSs+e2zR7LGx3FhuNm2AAsDYH/t+A30BACjwhwxoA7QB2gBtwNwGxBfx8JkABYC54bLykyFtgDZAGzCzAQoAn52/PG4ee/GMZNAGaAO0AdpAwDYgvoiHzwQOCLjQqZrNVDP5kR9tgDYQBxvY32ffx8cB2I0CgMqfNkAboA3QBgK2gV70yP4TqAbg24ALPg7qlXlgL4w2QBugDejZgPgg8UU8AiBwEwUA1T9tgDZAG6ANBGQD1wfg9/jINIGDAip0qmU9tUxu5EYboA3EyQbG0xsHR6AIwJMUAVT/tAHaAG2ANuCzDTwBQHwQjwAJDACw1eeCj5OCZV7YI6MN0AZoA+5sQHzOXgH6PT46i8CRFABU/7QB2gBtgDbgkw0syvI//BgCAif4VPBUyu6UMnmRF22ANhAXG/gfgOND4O+YhDwEZgD4jkKAvQDaAG2ANkAbsGwDMuVvah6/w69CRKAZgAsA/Gy58OOiYJkP9sZoA7QB2oBzG/gFwDUAWofIzzEpFRBoCkA2abgFwEsAvqQgYI+ANkAboA3QBiqwAfEV4jNuBrAw1aFsUoGviey//z89AjsQhJiJMAAAAABJRU5ErkJggg==;" vertex="1" parent="1">
          <mxGeometry x="270" y="260.5" width="76.5" height="76.5" as="geometry" />
        </mxCell>
        <mxCell id="yqI1gPK7mimHnNKxgcp7-4" value="" style="shape=image;verticalLabelPosition=bottom;labelBackgroundColor=default;verticalAlign=top;aspect=fixed;imageAspect=0;image=data:image/png,iVBORw0KGgoAAAANSUhEUgAAAgAAAAIACAYAAAD0eNT6AAAAAXNSR0IArs4c6QAAIABJREFUeAHtnQeYVEX29t8ZZmDIQXJGkAySDCBJQEFAAUEykkFFJSk5GBDdXXN2P3XN65rXsOawrjmsOesaUXfNrhnd+vrw79am6em5t6pufu/zzDM9PTdU/epUnbfOrQDwIIHkEGgMYAqAMwHcBeBNAJ8D+BnA9wA+BfASgBsBnABgOIDqMcBTF8BYACcDuA3Aq+l8/whAheBnazo9b6f5PwHgbgCXAFiT+u6gVJnsCqBaDMqCWSABEiABEvCJQC0AhwB4WNPR/QDgegBjAFTyKc02HlOWEjjT00JHBE4YHL1pGv4H4B0AVwCYB2AXG6B4DxIgARIggXgRkF7vcQC+sOj8XgcwJ+RCoCqA5QA+tJhvU8ft5fVb0oJAIjuMEMSrDjM3JEACJOCKQBGAmQD+7aED/CeAPVylyp+TRwH4l4f59tKR27j31wAuAzAi5CLNH2vgU0iABEggQQRqA7jGJwf4C4CTQuJopNd/gU/5tuGo/bjHxwB+B6BpguyfWSUBEiCBRBLomOr5yyAyP5xL9jNuTw2uqxEg8SYAJCKRnSZ+/o2HjOH4fwDaB1hGfDQJkAAJkIBHBPoA+CRAJyij1nfyKG+FbrszgLcCzHeUhIZEbK4D0KMQUP6PBEiABEggOgQ6p6fvBe2MRAT4GQloCEAGJQad76g9X4SAjBNoEB0TZ0pJgARIgARyCYgTfC9ETvCW1MyD4txEevC3vPN/JkT5jpoIkPR+lhooemhIxnB4YCK8JQmQAAnEl4A42jtC6ARX+YBc3mlH0emGMc0ipHr6UGZ8BAmQAAmQgCUCR4bUCcqqdrJqnVfHASHNdxidu9M0yUDBJQBkCikPEiABEiCBEBOQJX1tLvDj1FE4PU9WHfTCmUjoP8nz/J3y1z1Plh+WWRU8SIAESIAEQkrgvAj0gid4wG5lBPKt63zDct1HAIZ4UHa8JQmQAAmQgCEB6f3Lxj1hcRjlpeNZy1EAWds/Kcv7lsfUr+/lNc4CQzvl5SRAAiRAApYJHBsB559xVIMs5n12hPKdyX+Uf8vGQ+stlh9vRQIkQAIkYEBA3qtbeQe+V8tW6oL9D1SvHXmU+mbtcerzVRvV04ccqU4YOly1rlPXluO60CCvuZfeb0MAdG3YSJ06YrR6/rAl6qs1x6pfjjkx8J8fN5ygPl25Qb21ZIV6YdFS9eCcQ9TFYyeo1QP2VhO6dFPdGzVWlYqLbZWJ2/tIGZbkFgb/JgESIAES8JeArPjntgHf7vzaZWXq2onTCjq979YdrzYMHqqKi4q2u1bj2TLX3MYWwrLegSxgo52eKiUl6uxRY9RPG04omPcwCIJ8afhs1UZ189SZanm/Aap302baHDQZ3kQR4G9F59NIgARIIJfACs0GfJvDqFe12rYeZj4Hk++7yw+cpIpgLAJ652ZC4++JJvkW53/vrPmRdPz5ykW+e/3Io9RxQ/ZRnRs09EsMXO7TIk8a5sFLSIAESCD+BGSlPe0G/44Zc1w7wRX9B2k/L53WpRaK5SyTfJ+//zjX+S7P8Ybx+8cXLFKTuu6qSrx/TXCuhbLkLUiABEiABDQIvKHrCPfv0EnLCcp78sY1apqIgD9q5DP3EpmfrpWGHo2bqK0bN2vlPYzOvlCa3ly8Qi3ava+qWlqqxcoh4825hcO/SYAESIAEvCVQCuBnh430Dg7gtmmztJ2gvHfWfS4AGbxneryr+/xzRo3RznchZxvm/729dKU6qEt3kzKr6NqFpgXK60mABEiABJwTqK/rBCU0LAP7dJ3WnTPmVOQQCv3/eedZLPfMb3TzLu/KdfMd9evum7VA7dq4SaGy0f2fLB28W7mlxX+QAAmQAAlYJdBG1wk2q1XLyAm+csRyXUch171tSEE2PZI56a7TIAMYv1+/ySjvURcBMsVQZnR4MI1QdqEUUcqDBEiABEjAYwIddZygXNOxfgMjJ7jlqDWunW9WWmVpWZNDVgDUen5ZSYlRvqPu/LPTf+/M+ap5rdpaHAvwv8fSNE8T++C1JEACJBB7AhQALoUABcD2ixz9Z8V6Nah1G9siYHXsax4zSAIkQAIBE6AAoAAwjmjIK5Fp3XvaFAEyHkBskwcJkAAJkIBHBCgAKACMBYC8Fvh54+ZtywwXCO27FQj3Wt74yaMqxNuSAAmQQDQJUABQAFgRAJmxAesHDXXr6Audf3A0qxVTTQIkQALhJ0ABQAFgVQCIEFjSt38hp+7mf59wVkD4GxGmkARIIJoEKAAoAKwLAHkdMKdXHzeOvtC5p0azajHVJEACJBBuAhQAFADWBYBEAX5Yv0kNaNW6kGN3+r/vATQNdzVi6kiABEggegQoAEIgAB6cc4ia33t31bVhI9WgenVVt2pV45/61aqrnevW27Zq3wEdO2/b8vdPYw9Sby1Z4YnDz4wByP4taz00rVnLqaMvdN4p0ataTDEJkAAJhJsABUCAAuCL1ceocZ26FHJ8nvyvVZ06297TPzZ/kedi4P7ZC2zsKPgtgEbhrkpMHQmQAAlEiwAFQEACQJx/90aNPXHwbqbiybr+lx04cVvIPrv3bvPzMrONnzKMGAWIVtvC1JIACYScAAVAQAJgYldPd9bLOE3Hv9vW20ldN2m6JxGB/649btvrCDfCJM+5XwKoGvL6xOSRAAmQQGQIUAAEIAAeX7BIyaZCeZxc4N8Na7uLemfpKutC4Pbps23kbXJkahYTSgIkQAIhJ0ABEIAAsDhP3oZT3eEeMgjxLwdNtS4CRnfotMOzXIqgO0Nen5g8EiABEogMAQqAAARA3xYtTR2h59dLhEJW9ZM5/bbGAzy18AjTyMcvAFpEpnYxoSRAAiQQYgIUAAEIAHnf7rLnG9j5M3v0VlstioAxHTub5mVtiOsTk0YCJEACkSFAARCAAJBpeFERAJLOWT3tiQCJAhjm/YnI1C4mlARIgARCTIACIAAB0LpOXVMn6Pv18jrA1quAPZq3MEn/zwDqhbhOMWkkQAIkEAkCFAABCIA2daMnAGRMwPWWpgmeN3qsiQCQaw+MRO1iIkmABEggxAQoACgAHDvj2mVl6r1lq40jAbIIUrXSUsfPzfPK4NwQ1ykmjQRIgAQiQYACIAABIGv053FqkfhO9hWw8SrgoC5GCyG9EYnaxUSSAAmQQIgJUABQALgWHncdPNdYBFw4Zrzr5+aIpoYhrldMGgmQAAmEngAFQAACIErTAHOc7jan3adpc+P1Ad5dtspUAAwKfe1iAkmABEggxAQoAAIQALvsVN/E+fUCUNfBT1MAuwKYCOACAFvyOXPd7+6ZOc84CtChfgMTDgtDXK+YNBIgARIIPQEKgOgJgF00raoygNkA3tZ1+tnXyTt807EAc3r1MREAp2ty4GUkQAIkQAIAKAACEADtzSIAugIgY/C1AFyS7cx1PleuVEl9ufoYIxHwh31HmgiAOzIZ4m8SIAESIAH3BCgAkicAMlZyvI7jz77mhskzjATAbdNmmQgAiWTwIAESIAES0CRAARCAADB8991es6zzXXZptkN3+/mQ3fY0EgBvLl5hIgB+yJchfkcCJEACJOCMAAVAAAKgo9ngtw7OitbRWXVMBgf2a9HKSADIJkPFRUUmIqCmo1zyJBIgARIggR0IUAAEIAA6NWho4vRsCgAxiHVue/6Z8+uUlRkJABlEWKtKFRMWrXewaH5BAiRAAiTgiAAFQAACoLOZAJAys3mIE9V2wv9de5yRCGhWq5b2swHYFkM2ufJeJEACJBBqAhQALp1fWUmJkcOTXm/IBEARgG91RcCWo9YY8TCMhnQPde1i4kiABEggxAQoAAIQAF0aNjLp9XbywJ4+0BUAMpDPZD2Ank2amrCQRZF4kAAJkAAJaBCgAKAAKE2NA/hZVwD8Z8V6IwFgOCPCCzGkUY14CQmQAAlEjwAFQAACoKtZBKCzZTMboOv8i1Ckfli/yUgAGI4BaGWZBW9HAiRAAokhQAEQgADo1qixSdi7i2Xr1F4LoFWdOkbO38IsAO4IaNkYeDsSIIHkEKAAiJ4AsBkB2MMk/D+yfUcjAfD5qo0mQuh/AKokp6oypyRAAiRglwAFQAACYNfGTUwcX1dLJlAfwKu64X+5buPgYUYC4KmFR5hw+NgSB96GBEiABBJJgAIgmQKgAYBnTZy/XPvo/MOMBMB1k6abCICnE1ljmWkSIAESsESAAiAAAdDDLALQzbDsRwL4yNT5N61ZS8lSviZTANcNGmIiAP5qyIGXkwAJkECiCVAABCAADOe+6wiAEgD7AbjP1PFnrl8zcG8j5y/CYVjbXUwEwO8TXXOZeRIgARIwJEABED0BcCyABQ5+jgJwKgDpKX+dcdw2fpcUF6t/LVlpJAAkelC7rMxEAEwztH1eTgIkQAKJJkABED0BYOI0rVw7v/fuRs5fev+PzDvMNC22BkMmugFg5kmABJJLgAIgAAHQu2kzU+cX2PXVSkvVu8tWGQsAeYVgEI34HoCsYMiDBEiABEhAkwAFAAWAK0d8yvBRxs5fIgCGqyHer2nvvIwESIAESCBNgAIgAAHQp2lzV07XoKds9Tl9W7RUP204wVgAPH/YEtN0bWANJgESIAESMCNAAUAB4MgZN6pRQ72z1Dz0L73/w/fo5+iZBYRPfzOz59UkQAIkQAIUAAEIgN2btTB1gL5eX1ZSoh6cc4hxz1+c/3/XHqfqmI3+/xJAZVZdEiABEiABMwIUABQABcVE5UqV1M1TZ1px/iIAzhp5QMHnFej1Z66TzYt4kAAJkAAJGBKgAAhAAAxq3SbjzEL9u0blyuoWi87/+/WblOwg6MDJFzpnlKHN83ISIAESIAEAFAABCIBp3XsWcnCh+F+L2rXV04ccaa3nL73/c0aNMc3bFwz/s90iARIgATsEKAACEAAXj51g6gg9vX5spy7q3yvWWXX+X6w+RjWpWdM03WfaMXvehQRIgARIgAIgAAHw5epjlIyqNwyFW79eHPSl4yZadfzS85cfCyP/Jb9c/Y9tFgmQAAlYIkABEIAAEId4xfhJ1h24rqCQNfnXDhyivlpzrCfO/6mFR6hKxcWm+X3Aks3zNiRAAiRAAhwDANdOSabEZXq1pr+PG7KPKkKR6zToOvrc6zrWb6D+sO9IJeF507yUd/03a49TXRo2spHH8ayxJEACJEAC9ggwAhBQBCDjMG+YPEPtXLeeDQdZ4T2qlJSo/i1bq3WDhlgf4JfJT+7vRbv3rTBducIkz98vASi2Z/a8EwmQAAmQAAVAwAJAHOYP6zepuw6eq9YPGqpm9uitJnTppiZ27a5k1z3dnyV9+29z9NLDv2biNPXPQ45U36473rOefq7jl7+vmzTdVoRjEqsqCZAACZCAXQIUACEQAPmcZ9S/e2LB4ap65crs/dutr7wbCZAACVgjQAFAAWA9KiDbBTetWcuG85d7jLBm7bwRCZAACZDArwQoACgArAqAD49aqzo3aGjL+d/8q6XyAwmQAAmQgFUCFAAUANYEgDj/Tvac/48A2lu1dt6MBEiABEjgVwIUABQAVgTAG4uPVh3qN7DV85f7rPvVSvmBBEiABEjAOgEKAAoAYwHwyLzDbK9s+DSAUuvWzhuSAAmQAAn8SoACgALASADIvgZVS0tt9vy/B9D5VwvlBxIgARIgAU8IUABQAGgJAFnhb17v3Ww6/sy9Fnhi6bwpCZAACZDAdgQoACgAXAuA+2YtUO13qp9x2DZ/X7qddfIPEiABEiABzwi0ybPsqqMGvUfjJq4dR/biNluOWuPoOeWk7yNDImXl3LfCNNncCyCbRxQ+yxbBslKhR/sXPAegmmG58nISIAESIAGHBMQR/qLjDEe270gBkN7qNgrO2ySNX685Vp04bISqW7VqhQJJx5YAbAHQyqHN8jQSIAESIAFLBB7WabRPHj6KAiDmAuCzVRu37RbYsHoNrxy/3PcrALtasmXehgRIgARIwAWBWW4FgKzx/sHyNRQAMRUAzxy6WC3os4ettfwLiYcfAAx1Yas8lQRIgARIwCKBSgAedSMCNg8bbuT8JRzNMQAnGjM0CevnXvvioqVq4+BhNpfxLeT45X/i/EdatGPeigRIgARIQINAEwCvOREBB/fopX7euNnYeVEAhEMA/HXKwap/y9YVOWvb/5e5/tzkR6Oi8hISIAES8IJAXQCXlTcosE5ZmTptxGgrzp8RgOCd/48bTlCLdu9r27E7uZ+88x/mhQHzniRAAiRAAmYEOgBYDeCK3Zq12DK7Zx8lq73JgLDcsLHJ34wABCsClvTt78RZ2z5HRvv3NDNPXk0CJEACJOA5gV+O2fxnEydf6FoKgOAEwL2z5ns1l7+QYJD1/Zt6brR8AAmQAAmQgDkBCgDs4NDisBDQqPYdd8iXk/EfBufIqyUu8mNeJXkHEiABEvCHAAVA/ATA9+s3qZLiYr8EwDcAZvhjrXwKCZAACZCANQIUAPETAM8ftsQv5y8LTMleEzxIgARIgASiRoACIH4CQBb5MQjlO7n2OwArAcj6EjxIgARIgASiSIACIH4CQDb08VAAXJ+aSrpzFG2daSYBEiABEsgiQAEQPwEgMzN6NWlqWwTICP9BWabDjyRAAiRAAlEmQAHgnwD46Oi16uapM9Ul4w5St0ydabzXQqEpmOeOHmtTAMhukgOjbOdMOwmQAAmQQA4BCgDvBcBj8xepYW13UcVFRds5Zfl7UOud1SPzDrO6AJMIg60bN9te/vdTDvjLqTz8kwRIgASiTIACwFsBIEsrV6pgSl4RipTp1sv5ogFvL12pmtastZ3oMBwb8C8AjaNs70w7CZAACZBAmgAFgHcCQEL9bhzu7/bZz3ok4OlDjlQ1q1RxlY4K0vwUgBqsQCRAAiRAAhEnQAHgjQCQ9/21y8pcOV6JBFw5frJ1EXDHjDmqtFIlV2mpQATcBqAk4qbP5JMACZBAsglQAHgjAI4bso+Ww61SUqJkHf98IX2T72SzJxEYFTh2N///Y7JrDnNPAiRAAhEnQAHgjQDo26KlG2e63bl1q1ZVLyxaal0EbBw8bLvnWBAD6yJu/kw+CZAACSSXAAWANwKgXtVqRs62Wa1a6p2lq6yLgEN229MoXTmi4X8AZiW39jDnJEACJBBhAhQA3ggA2VEwx1m6/rtH4ybqy9XHWBUBP6zfpIa3a+86LQXy8hOAYRGuAkw6CZAACSSTAAVAeAWAON3BbXZWsrufyfv/3GtFVPS0u1Lg1wB6JLMGMdckQAIkEFECFADhFgAiAqZ066F+3rjZqgj4YPka1bpOXZuRgC0AWka0GjDZJEACJJA8AhQA4RcAIgI2DB5qVQBIVODFRUuV6ViFnFcDLwGom7xaxByTAAmQQLQIVAfQ7dpJ0+555Yjl25aOzQ0Vm/695ag1Jj3MjwxxluU4J8dpkff3pnm3MQYgN/3njBpjnK7cfD0we6GynNYHAFQxLDteTgIkQAIk4AEBeVd7Q2o/9++zHUyjGjXUUXsNVJ+sXG/NyVAA7BhdyGbu9rMsKXzTlIOtlU9GDFx90JQd9ilwm7ac8/8MoMgD2+UtSYAESIAENAkcBeDnnMZ6u55x4xo11cPzDrXiZCgA7AoAKTdZ1vephUdYKZ+MAJDfv9935HZ2UMhGHP5vs6aN8jISIAESIAHLBBY7bLi3OZnnDlti7GQoAOwLACnDJjVrqreWrDAun2wBIJ+P2KOfbRFwuGUb5u1IgARIgARcEmgPQOZrO27gezVpajwugALAOW83ZSPndmrQ0OrrGhEAsoXwuE5dHNuIgzRLtGmsS1vl6SRAAiRAAhYJXOSgsd6h4b956kyjXiYFgHcCQMpzQKvW6tt1xxuVUW4U4Ju1x6l+LVrtYAs69pO+5jsAfS3aMm9FAiRAAiTgkEAxgE91GvA5vfoYORcKAG8FgJTpQV26G0dqckXAf1asVx3qN7ApAj4BsItDe+VpJEACJEAClgg01HH+cs1eLVtRABxzohYDy1PrCjrj5f0GaKUx1/Fn//3G4qOVzAzRtZ08170JQGyRBwmQAAmQgE8EOuRpjB017PKeOdspuP3MCID3EYBM2Z6+3/5GZZWvbB9fsEhVr1zZka1k0lHB78cBVPPJ7vkYEiABEkg8gY4VNMrlNvAd6zcwcioUAP4JgOKiInXdpOlG5ZVPBNwydaYqKS4u10Y0bOtmAJUSXysJgARIgAR8IEAB4GL2gzi0sK4EWJGzrVpaqv4x9xDrIuD8/cfZFAByr/N8sHs+ggRIgAQST4ACICECQATCTtWqqZcPX2ZdBBy910DbImBZ4msmAZAACZCAxwQoABIkAEQE7Fy3nvrwqLVWRYDsRjh91542RcD/AEzz2PZ5exIgARJINAEKgIQJABEBfZo2V1+vOdaqCPhh/SY1dOd2NkXAjwCGJLp2MvMkQAIk4CEBCoAECgARASPbd1Q/bjjBqgj4YvUxqnujxjZFwJeyK6WH9s9bkwAJkEBiCVAAJFQAiAiY33t3qwJAZgq8t2y1alG7tk0R8DaAxomtocw4CZAACXhEgAIgegLgD+K8bf2cOGyEdRHw9CFHbts0ylYaATwKoIpHdYC3JQESIIFEEqAAcOlMQzANsCqAS2051yIUqSvHT7YuAm6fPluVVqpkTagAuCCRNZSZJgESIAGPCFAARE8AlAEoTW2ic6ctESCO+q6D51oXAVeMn6REYNhKJ4AxHtUD3pYESIAEEkeAAiCaAkAMtRaA52w51zplZer5w5ZYFwEbBw+zKQDeT+c7cRWVGSYBEiAB2wQoAKIrAMQWmgJ415YIaFarlnpn6SrrIuCQ3fa0KQI22q4EvB8JkAAJJJEABUC0BYDYbFcAMl3OipPt0biJ+nL1MVZFgKwRMLxdeyvpA/AFgDpJrKzMMwmQAAnYJEAB4NJxhmAQoIwByD0GAfjBlggY3GZn9f36TVZFgIiKnk2a2hIBS3IB8G8SIAESIAF3BCgA4iEApNQnA5AldK042SndeihZ4jffLoC6332wfI1qXaeujfS94M7MeTYJkAAJkEAuAQoAlw4zpBGATLmutiUA5D7rBw21KgBEOLy4aKmqV7WaDREgtsuDBEiABEhAkwAFQLwEgJjBWTZFwDmjxlgXAQ/MXrhtW2XDdC7WtHleRgIkQAIkAIACIH4CoBKAWwyd66899JLiYvW36bOti4AzRx7w6zM003o9azAJkAAJkIA+AQqA+AkAsYbqAJ7QdKw7OOaaVaqopxYeYVUEyPiCfi1a7fAsF2l+Q9/seSUJkAAJkAAFQDwFgFh2QwBvuXCoBZ1xk5o11b+WrLQqAq6bNL3gMytI+y/pFRFZi0mABEiABDQIUADEVwCIObQF8O8KHKljJ9ypQUP1ycr11kTAV2uOVfKKwSB9TTRsnpeQAAmQAAlwDID7KXMhnwWQz6j7AfjOwMlu56AHtmqjvlt3vDURsHPdetvd32U6u+TLML8jARIgARKomMAuLhvcXxvrNnXrGjkBCSfrPhvABxVnreAZspmO1vOlx7rVYH68XFvJrNcraXd7HAhAQuZaec69bmLX7kYMstcR6NygoUmaOrsFwfNJgARIgAT+j0Dj3Mbd6d9VS0uNFop5aO6hJg3/KxYK8Hunec0978Oj1mqLH1kMJ/d+Lv6WnrzuIdPmTJ693bXL+w3QZpAtAGQTIoN0tdeFwetIgARIIOkEqhk0vkYjw/+w70iThv9RCwWn/W78+knTtZ3ftROnmeT7I8N8n2xS3rnXnrHf/tocRAS8csRyExZyLfcEMDQIXk4CJJBsAuJUtBpi3V6gTAHr3bSZ1jPTab3SQpGJiNBKw/jOXbUd37hOXbSemU7rw4b5LgZwjW6+c6+TVxk3TJ6hzWLdoCEmLL42ZMHLSYAESCDxBB7Ibdid/l2ttFRr+9irD5pi0vDLtRsslNolTvOZe14RitTjCxa5dnyPzDtMybW593Px98UW8i2bCT3o4pkF0yuvguR1TnZY38nn95evVrWqVCl47wrS+JgFFrwFCZAACSSawO8raGgLNtJ7NG+hvnUxKvzVI5bbWAt+uIUSO8wk3zJ6/d8r1jl2fHKuDJw0eSaAhRbyLbeoB+Blw7T8mpf61aqrFxYtdcxC7EV2HDR8/pmWWPA2JEACJJBYAiMMG2K1V8tWysnAOOkBN61Zy7Th/zG90p1pgWmvgZDhJfPiRdBU1OOVd91ybuY6g98ya8PW0TolKLRf/+TmYadq1dTf5yyskMXHR69T+7TdxQYLmdnAgwRIgARIwIBAVQBf5Tbobv+uW7WqOnHYCCWj3HMd4vOHLVHze+9uuuhLxmncbpDX3Etfd5vP3PMlBL6y/2D15uIVO+T7jcVHqxX9Byk5J/c6jb9tzHzIzX9vAP/VSEve/BQXFalZPXvnHRz6nxXr1cnDR6lGNWrkvdZlGmQ2hCx3zIMESIAESMCQwEUuG+ByG3FxAtLblV6eLBrTsnadcs/VfOY0w7xmX75eMw1587TLTvXV3m3abvtpV2+nvOcYPG9tdsItft4PwFaDdOXNZ7NatVT/lq3V8HbtVdeGjZTYhcVn/MVi/nkrEiABEkg0gT0sNs42G/rce/0HgExdtHW0ACCvFHKfE7a/fwDQzFam89xnXgQYZJfJwDx54FckQAIkQAKaBO6JgBNYrZm3QpddGIF8X1AoA5b+d1wEOIgIkF0OeZAACZAACVgk0Dc1ve5/IXYCHwKoaTG/mVu1sblWvgf8vgXQMpNYD38XAdCeGulBvrN7/NmfB3vIgLcmARIggcQSCHNveIqHpbLORweW7cycfPYi6lEeStln4K4Qs7i2vITzexIgARIgATMCMj/83RA6gJvMslXh1VUAPB3CfEu4u3KFqbd7Qi0Az4aQhSzd3MBuVnk3EiABEiCBbAKyfexPIXIAbwOom51Ajz63BfBliPL9BQB5PRHEIQMO3wsRC5lPN0/zAAAgAElEQVSlYGPxpyBY8pkkQAIkECkCMtXO2vaxBo5EHPKuPpIbFpJZATLqf28f853vUV0AfGpQdk5ebzg954h8CeR3JEACJEAC3hBYEvCgQFmcaC9vslbwrgcFHAGRaYnjC6bQv3/2AiCRCKeO2ovzvFr/wD+KfBIJkAAJRJDAwQE5w48BiPMJ6pDFcb4JwPHJqnz7BpXpcp4r5fBBACwkArW8nDTxaxIgARIgAR8ISChapuB50bvLd89HfJr2VhE6efXwmo/5lqV+u1WUqID+3yT1Dl57+2QNhp+n5vuPDCivfCwJkAAJkEAWgUYAZApWPodt6zt5730sAJmKFpZD1h04z+PxED+nRrefA6BGWDJdTjpKAKwC8L3HdnCbx6selpM9fk0CJEACJFCIgIzE/qdlByCLD90AwOZOd4XyoPO/3QA8YDnfIpzuAyAb8kTpkHK6ygNR9FLKtg6IEgimlQRIgASSRkBWjBsFQHpqJpvIyAh/WXioa4QA9gcgG9GY9IJlJ7urAxrgaBO1zBI423CQoLznlyWoxwAotpk43osESIAESMBbAvJqYG6q934lgHcqmDUgo9tfSDuNsQBkG+KoHrUBTAUguyjKlsISxi/vVYj8T84RsSOrGcq1cTqkHEUQnpFy5M+kXhPIq5zyWMj3sr6ACKBDAMjYAh4kQAIkQAIxICDOQHr0A9KDuGREu+wxIGFjeYcc10NW6+uU7tWPACA/MoVRvvN7Jb+gGVcC0A6A7DC5D4DRAIak7SLs4xyCZsfnkwAJkAAJkAAJkAAJkAAJkAAJkAAJkAAJkAAJkAAJkAAJkAAJkAAJkAAJkAAJkAAJkAAJkAAJkAAJkAAJkAAJkAAJkAAJkAAJkAAJkAAJkAAJkAAJkAAJkAAJkAAJkAAJkAAJkAAJkAAJkAAJkAAJkAAJkAAJkAAJkAAJkAAJkAAJkAAJkAAJkAAJkAAJkAAJkAAJkAAJkAAJkAAJkAAJkAAJkAAJkAAJkAAJkAAJkAAJkAAJkAAJkAAJkAAJkAAJkAAJkAAJkAAJkAAJkAAJOCFQG0A3AKMBzASwDMAmAOcC+COAa/L8XAHgAgCnAVgPYBGAKQAGAWgDoLKTB/McEkgT6A3g+JQdXg/gbwAuAjAdQI2EERoI4HcAbgJwK4DzAUwAUCVhHJhdEiABywTaAhgLYA2AP6c+PwvgSwDKg59fAGxJCYL700Li0LQ4ELHBgwQyBJqlHX55NvhvALMyJ8f4d0cADxeoh+8COCDG+WfWSIAELBIoAzA03TuXnsQnBRqX8hpfL74XYfAygIsBLADQyWKeeatoERCn96FDuzwDQHG0suc4tcMAfOGAw/9S5y12fFeeSAIkkCgCuwI4GsBdAL5z0KB44eB17vkBgD8BmApgp0SVWHIzK6H9113aqLyKilsofDKAH11wEAE9PLlmw5yTAAlkE+iS+uMYAK+6aER0nLRf1/wM4KF0T0fCwzziSWCdpr3eC6BWTJBIb14cutu69UpqvESlmDBgNkiABFwSaJcepPeeRuPhtrEJ8nxpHGUMwcEAqrtkxNPDTUDeaeva1ksARPhG9aiaHlyrm3+5bnBUM890kwAJuCcgoc8ZAB4EIO8CTRqPKF77dXpkeB/36HhFyAjsbMF+vwUwN2T5cpIcGfPyvIX8S9SPBwmQQMwJNAKwEoC8J4+i4/YizU+lowKlMS/7uGZvL4u2LOMCmkYAVAmAIwB8YynvMj2XBwmQQEwJSC9J5kK7GSDkhbMN8z0ljCzrD8iMBx7RIdDTkhPM2KY4VekRh3Xtid0APGE5z6dGp7iZUhIgAacEWqcX2NlqucHINJZx/C1zxSVKIu9WeYSfgAzi+8kD+5axAZNCNECua3q9DS9e2c0PfzEzhSRAAk4JyPQ3metMx6//qkMWHpK1BThC2qnVBXfe7R4IgIy4lemF8wKcMrgngL96OFZHxFMUXnsEZ118MglEhID0WqX36tWKfJlGMUm/pSc4KiLln9RkyjgAL3rG2Xb+WXop3QEAijwG3SK19sYKSwP8svOQ7/N5HueFtycBEvCBgKy9/46HPaF8jUeSvrsBANcS8MGQNR9xgo+2L/VM9q6QxaZs9J5FuA9JrU54XHoJX535/Dp1UVbRjMs6CJpmw8tIINoEmgC4zMfGT6ehics1Ml1MIix8LRC+OiNL+54ZUD14E8AtAE4BcAiAEakVNPsB6J6qmzIAtyUAWapYpp3KUr0iHGSg4VWp6NKTAH4IIN3i/CXSwIMESCCiBGTuMsP9+u/5dYWJjMKWBp1H+AjIinhevw7QtZuwXPc4gPrhKzqmiARIwAmBhumBQWFpULLTIcvvyqqC/0hHJk5O7xi4EMBB6R9Zf1x6QvKzf/o72a71yFTmpWd0VnoL02dS330eQO8oOz/lfZb9EWQuttfvg53YA8/ZnoCs9ujFzIDybCFK30ukotr2uPgXCZBAVAiIw5SpamFodGTXMRmBvTm1f4BsRNINgBcL6tQDIHubyzbAMmjpnyGa4XCnpffAUbG/qKRT6oms+BiGehKWNPy/1LLfsogQDxIggYgRkPfOJwUc3hSHf116elzngLdUlfX8ZQ3zY1PvXB8DIJGHoBraj1L7DAyKmD0lIbntAUgUKSi7CMtzJVrFrX+TYPHMYywJSMj/voAaMhnxLGF8mWoV5sFvEiWQwVXXB7R9say5INsn85VAuKqg7Hsha2KExRn7nQ4Z7CeROR4kQAIRJCAjh/1eu1/eu8uIall2NIoOTaID8kpCwvN+TanKNOwSIeE71vBVNBl/IhGsTDkl4bes8c8VLcNni0wRCTgiMNbihh9OGjwZuCe96Dith98qRVoGFkqY3gkDG+fILIHGjkqYJ/lJILNCpt+i0IZNubnHawD29RMsn0UCJGCXwDKfeq8yWvqK9BxluzkI190kFDzTx3fC8upE1m/nET4CXmyo48ZBe3Vu2DcyCp8lMEUkEDICEnI/zYfeqjj+CwHIhkFJO2SEuGwD7FVDnLmvrNEgS8fyyE+gL4A/pMTnralBlPenN7uRhXSkp+71IaPhD08NaP3QBzvI2INXv6Uu/8mn2Siy4NJIAOemZwDdm362RA75usFrq+X9Y01AKpdM1fGqoZD7yiIpl6dXKIs1zAoyJ0JrDAAZJOUlb1k9kOHY7QujeWqlvLsKcBfhtGT7Szz7S7b9lXUDJGzupR14cW9ZQVBWAW3nGZ3tb9wLwHMFOL0PQF5b8iABEnBJQEbYX1KgctloQGQFMFmilMdvBKQnKLv+ebm2wo8Axv/2yER/6uCi1y31wa9561L/pBcra0zYqGte3kM2JpK1N2R2kF+HiGURsxXlSzoYnHLoV6nwObEgIL1R6ZVXVLl0//8fANMiOqLfrwKum97gxatlZGWaoKwRn+RDZme47WnfGMBWvF1ShSQDR9/ysE66rcvfp/cbkNkMErXw85C2w83W4jLIUlb55EECJOCAwGEeNTTizKQX5cc7VQfZjMQp8s7+FY/KQ6ahJXl2wCpNrncENLVSXsnJAk/yvvtVzbS7dfTZ50tP/6bULp+zAty1T6JjOrMmXgh4obBINDZMJAnIwBkvws8fpwfrkLB7AjIN8lSPVl083X1yYnPFGwZO9NkQbMcsO2/KawLZCljGjrjpFWc79vI+S539a3r8Q4+AHahEJSUKUl5anXzP142xqbrMiFcEZES6k8rk5hzpMUljxcOMwFAAMrDJDfuKzhWxJz3LpB3NLHB8G4AsQR2WQ/a9kOWGRwNYnorunJ9K3zWpVTPvTg38fCQ9YE5eI7ybjirJzBP5n/Tq5ZWfOFgRFLLYV+2wZCr9yuVKC+UlER8eJEACBQgcZ6GiZZyO9Ehk/QAe9gg0AHCPxTKSskri1MvelhjKDIED7BUv75RDQISaiJdMm2LyW5Zg5kECJFCAwNmWKpuED7khTQHQBv+SEeInWnwlIM4waYeM/jdxJtnXytgW2RgrzHtTRLF8ZcdNmytmbooiBKaZBPwkYCMCIO9HZW512A5Jk+zYNzu9Uc7G1GIhv0u/Q5XVBy8GIAJIGvPV6elDEwHIfOOaYctM6r2vpE1GY2c7I53PSYwAyLgKWalOh1d510hkRnqsPMwIiJBa58GYBnm9wYMESKAAAdMxALKgSq0C9/fjX9KA9Ew7cHkHKouFOJkzXF7DnvleohqyP4GIhEkhGdewp+GgzaSOARA7vNayABA7kZHyE/ww8pg+o01qyt5DHpSLbEEsO3TyIAESKEDAZBbART4ulJKbBenFHpVexlXey2actte/X08vYSzzoYNaelRWXvuXZp6TPAtg11RP82dNbhXZlUSUZLwGD2cEZCCqLLv8lUflIZE+HiRAAg4I6KwDIANsZKqOn4coelk2VUYye7VgTkUNffb/pZchEQeJosiIbD8Peb3hdr2ApK8DIOVztEcOR+xCtrGWeet+1ws/7c7Gs3YBcJ+H5SCrKXJLbBslxXskgoA0WG6m3ZzgMxVZ1etvHvbesp267udPAJzs81gIWYr1GYcNqczQ2M/ncgvr42RApW45O7nuwdSqeUkcaFlRectql7K+hWwe5ISjzjkyHsnPJYoryjP/TwKRICDv0SVsVihE+t/0qmB+ZEhChNKzfszDxkKnganoGmncZIMUWc7Vj6NGOgpRKF2y45wMhuTxG4G1HtuVrF4nq2CGcXDsbxT8+SRLBy9K7X74qcfMHwUgIoMHCZCAJoFOqaV7z0qvNCYhbnlH92QqrHmsT8paHP+8kK2DXsi5lvc/eUVxM4DumuXg9jKZQnVpSqC9k5rRIJv/SGP79/SqbrIGPo8dCcimMV6/SpId86Q+JXG2gLwWmw9AFlAqr57Y+l5eKYgY5kECJBBRArIimah4W41CGO4jPUGJCNSPaJnEPdlTAIiT9tpWZPqmrOkvK/fF/RBHfIRPjl/K7c8BbNgU9zJk/kjANwKyQY2sby7O0uuGOKj7y3Qx6XFy8RjfzMrxg/r7EJ7O2J3Y+C0A9onhkswypU9eI8pgyEx+vf4t45E46NKxqfNEEggXgZkeTgXyuvHRuf/jAGQaH49wEZCR6W63CtYp/+xrJDQui1O1ChcKV6mRqbCyXe+9Pgt4ec0111VKeTIJkEBoCMhKe7IhSXaDmJTPXwOYHpqSYEIyBGRDHNkox287lHEIMthV1rWIwiqNMqZE1sH4iwerKzphLxtk9c0UGn+TAAlEi4AstSsL6jip7HE+R8YGcOBSuGxXwsmyLHSh2TBe2+RL6elywwGEYQCnDMyVRZRkDQVZg8PGctS6DGWwH6f5havOMDUk4JiALJTix6Ar3QbG7+tkMR8JP/MIF4EhqdkoH4RApMr6DbKwjSxHLYtgyZLXVTxEJQJI3uXLFFzZLli29vZzpc3y6p8IsuMDXHnUQ+S8NQkkg8DKEDSo5TUwQX4vU/YY0gxfHZCVJ73YP8DU1kQUyHiFW1PLD58DYEX6PfyI1IJZu6derbUF0DQ9J17mxcteHfJ7p9SMlJ3TU1NlXYjxqcGPh6dWzft9Opz/RGo7b3k9ZZo+29fLWAkZqMmDBEggggRk5Pt5IWxYbDdUJveTneqkAecRPgKzQtILNrGvqF4riykFvdlY+CySKSKBiBCQbVivC8j5y+Cqd1O9B9m29fzUoi8b0gOt5DWEzP+Whv3Q1DtNiUxsTs8nlkWPggp5yshmbmEaTsOWqaoyZiOqjjRq6ZbNrmQMBA8SIIGIEpCev8x59qvxkS2AxdnL1CoJcZpsCCJLuIpIkMiFDMryKw8yT3xiRMs7Cckek5p+JqPQ/bKHpD1HXm/IKwmTupsEO2QeSSD0BGQ0tdcNmPSaRWSIs/ZyxLTM3V/vkxgQISMDsXiEk4A4J4kayd4YXtt3ku4vMwy6hbPImSoSIAE3BGROtZehdNngRhphGdjk9yE7vcnuidJb8aqBvsjvTPF5rgnI+v5xX8HSK/vOvu+rAEa7ps8LSIAEQktgskfOUdYPkM2CvJwK5RSqLNoiG714MS/6CwCymQqP8BPomt6R0euNhbKdZhw+y+h+GY9TEv4iZgpJgATcEDjZsgCQUfIyLzkMjj+XQwuPBoh1zH0Q/w41AVng6q8+7DAYdef/RnoALh1/qM2ZiSMBfQIXWhQAV6XnNeunxp8r90vNx5bGzVYD3c+fZPMplgnIeJEzUivnyVgOW7YQh/s8lV7MiI7fssHxdiQQNgIykte00foqPbgvbHkrlB7Z48DWdLEOhR7E/4WeQIPUksLrfNwW17S+eXH9d+n6sFvoS4sJJAESsEZAVhkzaVCktxDlXfNk2VaTUeKyfTC3DrZmjoHeSNbSl5XsZMBgUqICUn9l++sgBukGWth8OAmQwP9tciNL3OqIAAn5V44BRBkcpruevCzxyiN+BGQKoayzL1EiGdeiUz/Ceo2slyHjdDrFr9iYIxIgAbcEjtBo4E4HID2muBwtUwv7vOySg0yflLXcecSbgCxxOwnAnwBscWkjYRABEt6XzYKWRTxaF28rY+5IICACsrOYzJd30ljJFKpVAaXT68dKGPRhhxx+AjDS6wTx/qEkIIvgLE1vQBRGQSCvLx5IL5u9L4CqoaTIRJEACYSGgLzHPrGCRXPkVcG40KTYm4TIngj/r4IpYvK6YJA3j+ddI0hAokeyLPSm1A5+N6RnmMhS0U4Etek5nwC4L73OxcLUzoN9OF8/ghbEJJNASAi0ByBrAzwLQBoXWcnv7+nNeWTVwKQcsp/7ueklhT9Ph35lCdRF7FElxQSM8ilCUtaHkJ0jxTGfAECm3N4I4EEALwJ4K/W/jwCIfcmPzKaR3zKwVP4ni2k9BuC21NbBlwOQ124SxpeBu7LKZX2jFPJiEiABEiABEiABEiABEiABEiABEiABEiABEiABEiABEiABEiABEiABEiABEiABEiABEiABEiABEiABEiABEiABEiABEiABEiABEiABEiABEiABEiABEiABEiABEiABEiABEiABEiABEiABEiABEiABEiABEiABEiABEiABEiABEiABEiABEiABEiABEiABEiABEiABEiABEiABEiABEiABEiABEiABEiABEiABEiABEiABEiABEiABEiABEiABEiABEiCBUBGoCmBXABMBrAdwJYAHADwF4E0AHwH4AsDnAN4B8BKAJwDcDuDc1PdHAhgOoDWA4lDljIkhgd8IiG2KjYqtLk7brtiw2LLYtNi22LjYuti82L7UgfvTdWJduo5IXZE6w4MESIAEIkdAGq/+AFYCuBvAjwCUpZ+v0/eUe/cGUBQ5OkxwnAjsDGABgGsAfGrJxqWu/JwWBycBGEZBECeTYV5IIH4EqgA4EMBNAH6w2BBWJBw+AHAygG7xQ8ochZRAdwCnANjio51/n4qi3QhgHIDKIeXCZJEACSSMgIQrzwHwmY+NYXmi4BkASwDUTlgZMLveE6gDYCmAZ0Ng5xJpOBuACBEeJEACJOA7gZ7psOf/QtAg5goCeU1wBoDGvlPhA+NGoH4qQ8ek393n2lkY/pZXbH3jBp35IQESCCeBvQDcF0Knn68x/gbAqQDqhRMlUxViAuL4TwPwbURs/R4KgRBbE5NGAhEnIE5UetW/RKRBzBYEMvJaRmVzBkHEjdCH5Mug0oMB/CeCdi7RuMtSsw8a+sCJjyABEkgAAXGaMso5DO/4s526zueH+N40ARarn0UZz/JIBB1/bl2QMQLzKXj1DYFXkgAJABIG/VsMGsTsBnJrqmDlnS6jAbTwDAHp9UuEyOZ01WybC+rzvRwHkyli/iYBEnBDYJDP05z8biRv5tgAN+YQ23Nlxsi1MRO52XXpYwD7xLb0mDESIAHrBNamFyLJbkji+FlWZutjnR5vGBUCuwN4L8bOP1NnZVGh1VEpFKaTBEggGAKVUiHD8xPQIGYaRvktMwX2CwY3nxoggaEAZLpoti3E/fOfAJQEyJyPJgESCCkBWclPljONeyOYL3/y7ndKSMuFybJPYCqAnxJq67JSJ/cZsG9TvCMJRJZA9fSGJPmcY1K+k+mNiyJbgky4UwJHAAjj4lV+1jPZfEjqPA8SIIGEEyiN4Uh/3cZUHMPshNtDnLM/jc7/1wifLBwkUT8eJEACCSUgU+Fka15dh+nqurIaNVWbbj1Vr31GqiHT5qixR6xQk1cfr2Yc83s1e9OpatamU9XUdZvVxBUb1eiFi1X/A6eorv33Vo3btFPFlUpcPcsgTxIa5piA+FWIUQBkCqjndlRaWqp67rGHmjx3nlq5+SR17l+uVdfc/6C6+fGn1L0vv6bue+U1dfszz6kbHn5UXXzzreq4M89Wc45covYeOUrV3Wknz9OXxeBy7qYZP0NnjkjAKQFZ6tTTBqdB85aq7wET1EFHrVcLTz5PLTzlfK2fuSeeoUYuOFJ17T9YlVWv4Wma0wMD93AKkeeFnkA/r5f0FcctDv+sq65W/3jzbfXklo+1fp744CN11T33qcUbNqoOXbt5bedyf9nVkAcJkEDCCMzyyvmXVK6iug0cqiYevUHL2VckEub//mw1fPahqtkuHb1sIGWrVy6pGv1KIRtCfeSVre8+YKA65U+XqkfffV/L4VckFK6+9wE1ed58VbVaNS9tfUb0i5k5IAEScEqgc7qXa7VRqVxWti28P/O4kz1x/PmEwdgjV6qWnTzrKd3JFQOdmlQoz5NXXPKu26qdy/0G7LOvuuS22z1x+vlEwd0vvLztNUG1Gp5Ev/4LoGMoS5CJIgESsEqgzIs9zVt17qamrT/RN8efKwb2P3SpqtuosfWGPjVdbI1V+ryZnwQ22nb+LVq3UWdecZVvjj9XDMjYgZETDvLCzl8AUM3PwuGzSIAE/Cdwgc1GsVqt2mrUwsWBOf5sITDvd2epHkNGqKKiIpsNpAwc437r/tup6RP721zNsri4WM0+crF6+O33AnP+2WLgzCv/rOo3bGTTzuVe55pC5/UkQALhJbCXzWlQzdp12DaCP9sJh+Hz6EOXqmo1a9lsHKV3JNMleUSDgKx295wtoSsD/ILs9Wc7/uzPdz3/kuq79xCbdi5rYVDsRsPGmUoScEXAaqO46+B91AKDUf1eC4XpG05UtRtY7SEtdUWbJwdJ4Ghbzr9dx07qb08/E4pef7bzz3x+/P0P1fi582yKgH8CkCXBeZAACcSIwDIrjWJRkdpj1LhQhPwrEhHjVx6r6rdoZatxlHXjm8XIHuKalRYAZFCbcbl37dlL3fPiK6F1/hkR8MDb76uZK9eoouJi4zynuclqiTxIgARiQmAnWxufDBg/JRLOX8TBtONOVmOP3qDqt2htq2G8JCb2EOdsWFnYqlffvuqht94JvfMXEfDQe1vU1S+8quasWW/Lzr8EUDfORsK8kUCSCBxno0fUZ/j+kXH+IgBmHH+KGr/6eHXAsnWqTqMmNhpH2Va1XZIMJ2J5bWtjtT8J+8uKfZkedth/P/Leh9sEgIiACYcebsPO5R4bIlb2TC4JkEAeArUAfG4qADru0T9Szl8EwMGbTt0mAEQEjDpihZKliE05AJBZFDzCSeBC0/Jt2KSJuuOZ5yPj/EWcPPb+bwJARMDgsQfasPPPUqsE1gxnMTNVJEACTgmsMm0U6zVppuaedFbkBMDME077VQCICBg0fa6N96SyV0BLp/B5nm8E5N2/bOus7fwqlZSoP95wU6ScvwiAJz74+NcIgAiAy596TrXu2EmbQxZDGUzJgwRIIKIEZOqa0TKopVXK1ORVx0bO+UsEYObmM7YTACICugwcaqNh/H1E7SHOyT45y3FplfGiVWsi5/wzryeufvHV7UTAqTf/TZWZLx/8IQCZPcSDBEggggT2N20U+405KJLOXwTArM2n7yAADlx1rI3xALJPAKdKhadCiJMyErodu3VTj7+3JcIC4LXtBIBEAqYvX6ElhHLajJHhKWamhARIwA2Ba3Iqs6sGQUL/839/TqwEgEQBhsw6xMZqgcPdFATP9ZSAbPXryrazz5dV/i6+5bbIOn+JAlz94o4C4MpnX1KtOhhvmPVnT0uONycBEvCEgEzj+T67oXP7+YBFR0XW+ZcXARABID+tuvXQdhhpjjLdjEc4CFzt1razzz9g8pRIO//yBIBEAdZfdKmpnX8HoHY4ipmpIAEScEpgfnYj5/Zz07btI+38KxIAwxcuUUVFRgunfAugutPC4HmeEZCR6tpCVwb+3fjIY7EVACICOvbqYyoCZntWerwxCZCAJwSudev0s88fHZINfsSR6/7kGwOQiQDI7xadjbcRHuFJyfGmbgiMzrZbt59HHDg+8s6/UARABMDq8y80FQB8DeDGInkuCQRMoAjAJ24bw8z59Ro31Xa6us7ai+sqEgB7z1xo2jByNkDAhp6aq35Kxm51fl92+12xFwAiApq3bWdi6x8DkDaFBwmQQAQI7KrTGGau2XP/8YkQABIFqLlTA5OG8ckI2ELck/hMxm7d/m7Tvn0snH9FEQARAFOWLDOxc7m2a9wNifkjgbgQkJ3rtCp8UVGRmr7hpMQIgC6DhmlxSvOVpYG5ZnpwtaYeANnCVqsMj1i7PjEC4Nx7/66KiytpcUrzPTK4YuaTSYAE3BDQ3hClUeu2sXD+8kqholcAEgHYd8GRJo2iXDvUTcHwXKsE9tF1/nLdDQ89khgBIFGAdt13NbH1y62WHG9GAiTgGYGndRvGXvuMSpQAEBFQtWYtk4bxMM9KkTeuiIBsW6tVdg0aN4mN83fyCkAEwNh5C7RYpRk/UVFh8P8kQALBE5DBOtr7oe9/6NLECYCWXYx6RmcEX+SJTcHZugJg1ISJiRMAa/94sYkA+IoDARNbz5jxCBFortsooqhIzdl8euIEwK77jDRpGO+MkG3ELal369r60Zs2J04AXPzokyZ2Ltc2jZsBMT8kEDcCe+s2ivJ5rIkAACAASURBVNVq1Y6N83c6BkBeAfSfNNOkYXw7bgYUofy8o2vrZ//5L4kTAPIaoE79+ia2PihCtsGkkkAiCYzXbRSbtuuQSAEw4lCjKVJfJtLKwpFp7VddtzzxdCIFQKfeu5kIgHHhKHamggRIoDwCM3UFQPvd+iZSAMgOgUCRbsMo09C4SEp51ujd98JcawqgTHV9/P0PEykABuw/RtfO5bqDvStO3pkESMAGAe2R0V37D06kAJDXAJVKS00aRu4JYMNy3d1D9gDQKrNq1avHyvk7nQUgrwD2nTxVi1ma9SJ3RcSzSYAE/CawWrdh7Dl0RGIFQFn1GiYNY2O/C5nPQxNdO6/fsFFiBcCYuUZTAVfR7kiABMJN4HjdhnG3EQckVgBUr1vPRAC0DbdJxDJ1wlyrzJq3ap1YATDx8MVazNKspW3hQQIkEGICFADpHQSdrAQo4X/5qWEmANqF2B7imjRhruXMWrRuQwGgx44CIK61ifmKDQEKAAqA2BhzgYxQAGz5+Fchc/WLryl5x1/RDyMABSyK/yKBGBCgAKAAiIEZV5gFCgAKgAqNhCeQQNIIUABQACTB5ikAKACSYOfMIwm4IkABQAHgymAiejIFAAVARE2XySYB7whQAFAAeGdd4bkzBQAFQHiskSkhgZAQoACgAAiJKXqaDAoACgBPDYw3J4EoEqAAoACIot26TTMFAAWAW5vh+SQQewIUABQAsTdyABQAFABJsHPmkQRcEaAAoABwZTARPZkCgAIgoqbLZJOAdwQoACgAvLOu8NyZAoACIDzWyJSQQEgIUABQAITEFD1NBgUABYCnBsabk0AUCVAAUABE0W7dppkCgALArc3wfBKIPQEKAAqA2Bs5BwH+tg/Ak1s+VtwLIAkmzzySQMUEKAAoACq2kuifwQgAIwDRt2LmgAQsE6AAoACwbFKhvB0FAAVAKA2TiSKBIAlQAFAABGl/fj2bAoACwC9b43NIIDIEKAAoACJjrAYJpQCgADAwH15KAvEkQAFAARBPy94+VxQAFADbWwT/IgESAAUABUASqgEFAAVAEuyceSQBVwQoACgAXBlMRE+mAKAAiKjpMtkk4B0BCgAKAO+sKzx3pgCgAAiPNTIlJBASAhQAFAAhMUVPk0EBQAHgqYHx5iQQRQIUABQAUbRbt2mmAKAAcGszPJ8EYk+AAoACIPZGzqWAuRRwEoyceSQBtwQoACgA3NpMFM9nBIARgCjaLdNMAp4SoACgAPDUwEJycwoACoCQmCKTQQLhIUABQAEQHmv0LiUUABQA3lkX70wCESVAAUABEFHTdZVsCgAKAFcGw5NJIAkEKAAoAJJg5xQAFABJsHPmkQRcEaAASAuAmZvPUONXH+/op0bdegqA7o84Ix7+EqAA2E4AvKqufqHin4mHL9a1cblO2hYeJEACISZAAZAWAAdvOs2R8xeRQAEQYovOnzQKgLQAePyDjxw5fxEIFAD5jYnfkkBcCFAApAXAlI2/owCIi1XvmA8KgLQAuP/t9ykAdrQPfkMCiSRAAXDK+WrOSWep8Wuchf8ZAYhkPaEA2PKxeuKDj9X1L79OARBJE2aiScA+gcQLAHH+E9ae4Lj3TwFg3wh9uGPiBYCE/m9+7U3Hzp+vAHywSj6CBAImoC0Aeu0zSs058cxI/sw+6Uw184TT1dSNv3fl+DODBDkGIGCrdf94bQHQrHVr9eA7H0T2R0L+d775trr2pddcOX8KAPdGxitIIGoEtAVAl4FDtZxnxolG+TcFQNTMHNoCoHHLlq4dp5MR9lE4h4MAI2fnTDAJuCJAAeBw6l+2YKEAcGVjYTiZAsDBtL9cUUIBEAbTZRpIwDsCFAAUAN5ZV3juTAFAARAea2RKSCAkBCgAKABCYoqeJoMCgALAUwPjzUkgigQoACgAomi3btNMAUAB4NZmeD4JxJ4ABQAFQOyNHOAgwNz3+07+5hiAJFQN5jHJBCgAKACSYP+MADACkAQ7Zx5JwBUBCgAKAFcGE9GTKQAoACJqukw2CXhHgAKAAsA76wrPnSkAKADCY41MCQmEhAAFAAVASEzR02RQAFAAeGpgvDkJhJ1AEYBdAEwDsAnApanPb+jua19Wo6aq27hpIn+KK5WY7JN+N4BzAKwCsC+AumE3nAimT5gOTzMW1sJcq8xKK1dWO3fu4ulPlz32VIPGjFVH/O4UddlTz/q68uBVz72kVpx9vhp20CS16179t8tn3YYNtZilWUvbIm2MtDVT021PBE2JSSaB6BIoTjuZCwB8pNsI8jo95+GQ2/8APAFgdarBbBNdUws85W0BrAXwJABhauK8Aru2XqPGavkZZ/siAjZd+RfVot0ufub1QwDnAxgGQDokPEiABDwgUBXAYpMeflQb0Iin+xcAtwAY7IFNxPWWewO4DYCw89OZefasoqIiNWv1Ok9FwMpzzlelVap4lgcHZfE6gCMBlMXVMJkvEvCbgKjquQA+cFABg6z8fHbFzup2AN38NqAIPW9XAHfF1c6Liyup9Rde4okIOP22u1TV6tXDUgffAzCLEYEI1TwmNZQEdgZwf1wbxITm68dUOHsDgNJQWlwwiaqcchbHAvgp7jbRsn0H9efnX7EuAvbcd0RYnH92Ou7lK7BgKhSfGn0CowB8GfcGMcH5exhAk+ibqXEOmqYG9z2aJDvYdNU1VgXAhQ89ripVqpTteMP0+WsA44ythDcggQQRkMFjkR30lKTG3DCvWwB0T5Bd52a1JwAZRBYmh+V5WqYvX2FVAMi7/5AzlLEcR+cWPv8mARLYkYBMsQl7hWb67JXRZwD67GgGsf9mt9SAsc+TaOsHzJqt/vrqm9Z+Dt90YlTqo7zm4UECJFAOgZVJbBCZZ4gI6FCOTcTx645Jdf5i6/OXHaWe3PKxtZ/N510QFQEg6TwqjgbNPJGAKYEJcZr2RKfuOorzJoCdTI0oAtc3APBWku1DHLZNAXDVPfdFSQDI64ADI2CnTCIJ+EZARvt/leRGkXnfJhhu8s3ignmQTGmVNRGi5LCsprWsalV1/6uvWxUAIiZatG5jNZ0el5EMbm4djAnyqSQQLgKyst8jHle4KDUOSU/r/HCZp9XUHJJ0O5995GLrzl8EwLFnnBW1evMPANL28SCBRBOYl/RGkfnfrkcsA+Pqx7BG1APwaZLLulP37uqht97xRAA88cFHasS4A6MmAmSxIB4kkFgCNQH8O8mNIvO+nfPPNOBnxrBGnJvkst5j4CB170uveuL8M+MJHnnnfTVmytSMDUXht+xlUj2Gts4skYAjAkuT3Cgy73mdvzTc3wNo5MiConGSLHj0Q9LKu7i4WHXr1Vsdf/a56vH3P/TU+WdEgPw+5+prlAiOkpLSKIgA2TuABwkkjkAJgHdtNYo16tRVXfsPVntPmaVGLVysDly6hj8eMxi3eKUaPucwtde4yapVl+6qpNRqg3t8jGrECbbsvEpZmRq473B19KbN6tRLLlN/uvVv6rLb7wrdz9X3PqDue+U135x+tgDIfP7Hm2+rax74hxU2Z//5L+qYM85UE2bOUg2bNLEpLN4GUClGts6skIAjArK3uXFFqlm3nhoydbZacPJ5auEp5/MnQAYzj/2D6jpgiCq2syyrbKgSh0FSkgfjjaykNzt53nx19wsvB+pUM841yb8lmiFioFHTpsbtV7oN3MdRi8mTSCBGBC41FQDNO3RWszedSqcfoNPPJ7oOOGyZKqtew0bjODAG9j7E1M7r1Kun/nj9TXT8FhcPsiFg7n35tW2vGkzLF8BFMbBzZoEEHBOQ+dD/Mak4LTp2UfP/cC6df8icf0YQTDx6g6pcVmYqAn7n2KLCe+LJJnZevWZNdc39D9L5h8z5ZwTEY+9+oPYcNNjUzj/m1sHhrcBMmX0CXU0axZr16qvZJ5xG5x9S558RAcNnH2LaMD5m3/R8v+OTJrZ+yp8upfMPqfPPiACJBDRp3tzU1jv5bpl8IAkERGCuSaM4dPo8Ov+QO/+MCGjevpNJw/gTgMoB2aiNx1YBsFXX1vsO3pvOP+TOPyMCjj/rHBM7l2tn2zA43oMEokBAQrtaFUZ6/ws54C8yAmj/Q5dqlXOWfUR5kyDp1Wnn/4LrbqQAiIgAkIGBhlGAE6PQcDONJGCDwHW6DWP3gUMj4/wyveAk/5ZxGmXVq2s7QQAjbRhcQPcYrWvndXfaST3+3hYKgIgIAIkETJ47z8TOrwnIRvlYEvCdwD26DeOwGfMpACIS/s8InxYdOps0jNN8t057D5yha+f9hgyh84+Q8xcBsOmc80zs/G57Zsc7kUC4CTyu2zCOOfwoCoCICYCOu/czaRhlA52oHodp2/mUqRQAERMA8spGt7wBxGHAa1TrKdPtM4FndCvKhGVrKQAiJgC6DRxq0jAu8dk2bT5O0q6V9ynzF1AAREwAXHHn3VplnbYRaRN5kEAiCFAARMyJZ8L5Or8pANyLgKnzF1IAUAAkwhkwk8kjQAFAAeC0t5TICAAFwMeRE0CMACTPkTHHegQoACgAKAAKvB6gAKAA0GtaeRUJhJ8ABQAFAAUABUDkevmZhX/y/WYEIPyOhykMBwEKAAoACgAKAAqA32xA2kQeJOApgcYAJqX2n5a91q8EcCMAmX/q98/XuqOjG7Zso5q178SfCDGoUbeeU2ef77zXArBPW/VB0p4vTxV+17hZM7X7gIH8iRCDrj17VViuBexB2kRbdufmPuIDrkhtvX0cgIkAxEfwiBGB6gAWpVZUe6KA8ZkYLq/VbORZHnrOkdzIjTbgqQ3IOi2yhoX4Dh4RJVAKYHnK+X/CyuJpZaEAogCiDdAG4mgD4juWAiiJqA9MbLI7A3iOjp+OnzZAG6AN0AYMbeBZANyuOCJyYiyAbw0LPI5qlnliL402QBugDejZwDcADoiID0xsMmXjlJ/p/Kn4aQO0AdoAbcCyDWwFMDWx3jXkGR8B4CfLBU61rKeWyY3caAO0gTjagPiYfULuCxOXvOYAPqXzp+KnDdAGaAO0AY9t4DMArRLnZUOc4ds8LvA4KlnmiT002gBtgDagZwN3hNgfJippMuiPRkwGtAHaAG2ANuCnDYxOlKcNaWafpACgAKIN0AZoA7QBn23gaQBFIfWLiUhWP58L3E91yWexN0MboA3QBsJtA3skwtOGNJPnUABQ9dMGaAO0AdpAQDZwVkh9YyKS9WZAhU5VHm5VzvJh+dAGaAN+2IBseMUjAAKN6Pyp+mkDtAHaAG0gYBtoEID/S/wjB5kUeu02u6h+x5+rRlx6R6R+ei/fpK1qd9ullrprUw/tnzMW7qL97DptOxpxHnDShdrPblG/inaehdfVK7toP7tK7XpG+Y6afdpMr7DTreNSZia2Ljaj+2yxVRMOUld0ny111CTf0kboPrvPUScY5duEWfa1e19yhyq6wOHPunMVWrTVznOa1YDEe+MAAEzWNdSyuvXV1Mc/VHPe2Bq5n30vulXbWIf3rqd+uXVv7Z+HT+6t/eyGPfYwYj3+zhe1n92xeTXtPAuvLZfvpf3sqg0aG+U7ijZqK83CTreOS5mZ2LrYjO6zxVZNGEhd0X221FGTfEsbofvs4RffZpRvE2bZ1055fasqetbFz31bFGrvpJ1vABMD8H+Jf+Q8XUPdefSkUBhqttE6/UwB4D7cSQEQPaEr9YECwL2tUwBsVa4FwLNbFYZPNBEA4ot4+EzgEF0B0HHKAgoAjUgAIwDuG2RGAPTFBwWAe3ujANAUABPmmwgA8UU8fCZAAeBylC9fAei9/uArAH0n7jSyle88CgAKgHx2UdF3WhEACgCf3bf54ygAKAAcqXa+AgjGgVfUUFf0fwoACoCKbCTf/ykAzJ1rFO5AAUABQAEQwYGs+RrtfN9RAFAA5LOLir6jAIiC+zZPIwWAWwHQp7765fYR2j8Pn7anI4ebb2xGoLMAWlTXzrPw2nLV3tr5FidWUYPF/+ePUBgJgKv2Nirzji2qa5d5oLMATtvTKN/D+9TXzndkZwHIIEC+AjD3yD7fgQLApQAYsXsL9b+/z9f+eeS8MdqNQ6ACoGUd7TwLrw9vnKadbwqA/M7diegxEQBSZia23rFlHe0yD1IASB01ybe0EfkEvJPvKAB89oAJfxwFAAWAo8ZKGnOTRpECQN+JO3H05Z1DAeD+FQAFAGcBJEUXUABQAFAAcAxAXhtgBEAv0scIgHvRBUB8EQ+fCVAAUADkbfxzw5WMAATTgy+vZ+/0e0YA3DsjRgAYAfDZDwf2OAoACgAKAEYA8toAIwCMALhZDpiDAAPz49oPpgCgAMjb+DMCEM0ef25kgBEARgBybcLJ35wGqO1TI3VhIgXA8Etud+T0cp2g/D2qb0ujwXCcBeC+QRYn5qTR4jk7ihYKAPf2xlcAfAUQKS9ukNhECoCxt/xTWwDMHdWBAkBjGiRnAezonP0QLBQAFAA6dsYIgIFXjdCliRQAM1/6RpVWr6klAs5d1p8CgAIgMhEJCgAKAAqACHlkn5OaSAEgFaLduBmuBUBZ5UrbFrQxmQ/PVwDuG2S+AtCPHlAAuLc3vgLgKwCf/XBgj0usADjovtdVpbKqrkTA6uk9jHr/IhwoANw3yBQAFABue7Gyama+MTxOvqMAoAAIzCP7/ODECgBpUPY+/UpVVFzsqKEY0qup+vHeuRQAGuF/ET4cA6DvxN06v+zzGQFwLzgpACgAfPbDgT0u0QJAGsp9/niTKqtb/uYdRUVQs/drr767e46x82cEwH1jLD02RgD0xQMFgHubowCgAAjMI/v84MQLABEBM575TO224kTVsOeeqkrteqpyaYnauWlNNW90R/XY+WOtOP7MuAG+AnDfIFMAUABkRzWcfOYrAH2bEb6cBeCzJw7ocRQAeVaBe/PRzVadfsb5MwLg3vkzAmDWkDMC4N7mGAGgAAjIH/v+WAoACgBHYyC4F4CZI3bSa/XiHAoACgAdu2IEwHdfHMgDKQAoACgA8tiATqMZxmsoACgAdOySAiAQf+z7QykA8jT+fAWwY6PJCAAjANmvspx8FptxMu0u3znj73zRaLEljgEws1cKAN99cSAPpACgAHDUSFMAmDWoOr0wG9cwArCjmM0nOLK/4xgAjgEIxBsH8FAKAAoACoA8NmDD+YbhHhQAFAA6dsgIQADeOIBHUgDkafz5CmDHRpMRAEYAnIT9s8/hK4Ad61F2pCHf5+EX32b06kPH2ee7hgIgAG8cwCMpACgAGAHIYwP5GsUofscIgHsnzFcAfAUQgC8O5JEUAHkaf0YAdmw0GQFgBCC7d+/kMyMAO9ajfL3+7O8YAQjEDyb2oRQAFACMAOSxgSj29vOlmREA906YEQBGAJKiCCgA8jT+jADs2GgyAsAIgJNef/Y5jADsWI+ye/v5PjMCkBTXG458UgBQADACkMcG8vWmo/gdIwDunTAjAIwAhMM9e58KCoA8jT8jADs2mowAMAKQ3bt38pkRgB3rUb5ef/Z3jAB47/T4hN8IUABQADACkMcGotjbz5dmRgDcO2FGABgB+M1FxvsTBUCexp8RgB0bTUYAGAFw0uvPPocRgB3rUXZvP99nRgDi7XDDljsKAAoARgDy2EC+3nQUv2MEwL0TZgSAEYCwOWqv0kMBkKfxZwRgx0aTEQBGALJ7904+MwKwYz3K1+vP/o4RAK9cHe+bjwAFAAUAIwB5bCCKvf18aWYEwL0TZgSAEYB8zjKO31EA5Gn8GQHYsdFkBIARACe9/uxzGAHYsR5l9/bzfWYEII5uNrx5ogCgAGAEII8N5OtNR/E7RgDcO2FGABgBCK/LtpsyCoA3tqrp//xU9Tl6s2rYYw9VpXY9VaVyidq5aU01b3RH9eh5Y1R2r8b0szQu+ZS/k+8kfSZOaPydL2o/mxEARgDc2j4jAO7FByMAdh0c71aYQOIFwLALblRV6uxUrmMsKoKaOaK9+u7uOVaEAAWA+0ZRerEmwifJ1zIC4N7eGAFgBKCw24zPfxMtAPY+/UpVVFxcrvPP7pUP6dVU/XjvXGMRQAHgvkGmANCPPlAAuLc3CgAKgPi4+MI5SawAOOje11SlsqqOnH9GCKye3oMC4O/ztRh8eOM0V6wzzOU3BQAFgNsojrwuy7YhN58pACgACrvN+Pw3sQKg3bgZrhuIssqVlDgyt+9Cs89nBMB9j4wCgAKAAkDfBtyyk/OnvL5VFT3r7gcT5rtuU7OEmfgiHj4TSKQAmPnSN6q0ek0tYz1n2V4UABpRAEYA/G3AM40+XwG4F5yMAFAA+OyHA3tcIgXA2Fue1nL+olbnjOxAAUABEJlBiRQAFAAZMejmNyMAgflkXx+cSAEw/JLbtQXAqL4tKQAoACgAHNgApwG6Fx+cBuir/0v8wxIpAPa96FZtATBi9xYUAA4a/+xxD/KZrwD4CiDrfW+F9U/WrHDTY809l4MAzeyNEYBkaAMKALhT6RQAnAWQ62zC/DdfAbir3yJSOAaAYwCS4f4BCgAKgAp7Y9IociVAsx5VUCKBAoACQMf2GAFIhgSgAKAAoADgXgB5bcB0yivHALgXHxwDkAzHG5ZcUgBQAORt/HPf1zICwAhA7riOiv6mAKAAyG1HCvwtvoiHzwQoACgAKAAYAchrA4wA6I13kXFCBRxdwf8xAuCzB0z44ygAKAAKNkiZhowRAEYAKurx5/6fEQBGADLth4PfjAAEIEYoACgAKAAYAchrA4wAMALgZjlgLgUcgAc3fCQFAAVA3sY/V7EzAsAIQG4Pv6K/GQFgBCC3HSnwNyMAhs5c53IKAAoACgBGAPLaACMAjAAwAqDjVqNzDQUABUDexj9XqTMCwAhART3+3P8zAsAIQG47UuBvRgAC0A0UABQAFACMAOS1AUYAGAFgBCAAr+zjIykAXAqAob2bqc9uPVj7585TRuZtbAso41/Pl/XNdVb1ylwj66s7eU6+c3ZpXls7z8Lrlcsnaj9bVrPL5IG/3UUiTFYClDIzsXWxmXy25OS7IPcCkDpqkm9pI5zkMd85nAboo/fjo7gUcL5KGNbvghQAQTKhAHDn9LNFkokACLLMgxQAQeabAoBe2U8CjAC4jAAE2ThQAOg7wmynmKTPFADu38MHWccpAPx0f3xWIgXAiEvv0A7RBdk4NOqzl1EofMI9r0Yy39UbNzfKd5Icfm5ehV2QNqv7bLHV3Ly4+Vvqiu6zg7xuxKV3GuXbDaNC53IzoGSIg0QKgHG3PhPJxqHNfhOMGocZz30RyXzX797HKN+FGrq4/69+116RLHOxVZOyaT38wEjm+8DbnzfKtwmz7GspACgAClagjlMWhMJQs43W6edpT35cMG9B9gAKPbvzwYcbMy+tXjNyeW85dH/jfDu1jbid12LvUZEr79IatYzLu/OMwyKXb6n70576j3HebdgwBQAFQMEKFGUBIBWkdptdCuavkCMO6n+DT7vcuHFo2m9o5PLde/km43zbaBSjeI9eS4+NXHk3G7CvcXkPOvmSyOW7Vut2xvm2ZaMUABQABStQ1AVAt3nLCuYvKCdf3nOLS0rV9Kc/MW4g9txwRqTyLTwOvOMF43zbahijdp9xtz0bufLud+zZxuUtdaW4tHKk8t594QrjfNuyTwoACoCClSfqAmDsLU+rouLignkszxkH8X3rEeOtNA5THnlflVStFpl81+/W20q+bTWMUbzPTl16Rqa8S6pWV1Me/cBKmbfed1xk8i1tkYxNCot9UQBQABSsPFEXAFLR2u4/pWAeg3D0+Z5ZVKmS1V7wroeuikS+hYXM2AhLoxjVdOx3+d2RKe8ei9ZaK+/xd72kiiuVRCLv7cbNsJZvG3ZKAUABULDixEEATHzgTVWldt2C+cznkP3+Tl5X2KjUmXvMeOYzVaNZq9Dn21bUI5PvJP+OQm+4ZvPWasazn1u19a5zloTezqvUrqcmPfgvq/k2tXUKAAqAghUnDgJAKon0MMPcS5BBe7Ne/d564yDTjWS0td9ixunz6rTrpESomDZkvP7/Fk+SaXV1O3QNbXmXVqvhSQhc6k7TfkNCm29pe8Iy9z+7rlAAUAAUrDRxEQBi9INOuVRVqlylYH6dOi6b5zXefaCn04JE/FSuVSd0+a7bvoua+Pe36Pwtb1IkEa+6u3QOXXlLFG6/y+7yrLxlal2jPv1Dl+9KVcrU4NOu8Czf2Q7d7WcKAAqAghUmTgJAKsfoa/6hqjXS38TDpuNHUZHqOHWhmvXKd543DvKetE7bjgXL2mreKlh6WULVtsPAbhu/OJ8vUZWWww4ITXmLIBl/18ue2/msl79VHSbPU1K3/LTn8p5VvUkLtf91D3ueb11bpgCgAChYUeImAKSiHPz8l0rmTQcZGm+yxyC1//WP+NowiNDou/FMVbV+o4JlXl5jZuP7ep12VWFZB1230YzSdftedKuq17F7YOUtexTIdD8/RG52uYy+9iHVeLcBgeW7cs3aqvey49XBz3/lax3PZuDk8+TXtyo3WwHLuZgw34SrrErLw2cCiVwKuKIKMPOFr9Ww829Q7SfOUbKmeM2WO28bLCihSps/4nClEZbV2nZbeZKacPcrgTYK0hjLa4HOBy9S8vqhdpv2VvObYVdWr4GSMH/zgcNVzyM3qLE3PxVoviuyhzj/f8xfn1Q9j1ivZPEdKRMpm0w52fwttiQ2JatZio357fhzy1CiDrutOHFb3ZM6KHXRZn4z95K2Q9qQDpPmqmEX3KikbclNSxj/Hv0qBYDPvjiQx1EAWH7PGsbKzDRxF0HaAG3AjQ10f4kCIBCP7PNDKQAoACLRI3HTePFcOjvagL4NjHttqyp9jgLAZ18cyOMoACgAKABoA7QB2sA2Gxjx6lZVTcP5cwxAIP7b+KHaAqDBpAWqz8tb+UMGtAHaAG0gwjbQ++WtquuLW1WDF9z3+rMHCnIQoLE/9v0G2gIABy1wsvlXnQAAArtJREFUPUo021j42ayykR/50QZoA2GyAQoA3/238QMpAJ5lIxKmRoRpoT3SBqJpAxQAxv7Y9xtQAFAAMJJDG6AN0AaMbYACwHf/bfxACgBWfOOKzx5bNHtsLDeWm00boAAw9se+34ACgAKAAoA2QBugDRjbAAWA7/7b+IEUAKz4xhXfZi+C92KvlDYQTRugADD2x77fgAKAAoACgDZAG6ANGNsABYDv/tv4gRQArPjGFZ89tmj22FhuLDebNkABYOyPfb8BBQAFAAUAbYA2QBswtgEKAN/9t/EDKQBY8Y0rvs1eBO/FXiltIJo2QAFg7I99vwEFAAUABQBtgDZAGzC2AQoA3/238QMpAFjxjSs+e2zR7LGx3FhuNm2AAsDYH/t+A30BACjwhwxoA7QB2gBtwNwGxBfx8JkABYC54bLykyFtgDZAGzCzAQoAn52/PG4ee/GMZNAGaAO0AdpAwDYgvoiHzwQOCLjQqZrNVDP5kR9tgDYQBxvY32ffx8cB2I0CgMqfNkAboA3QBgK2gV70yP4TqAbg24ALPg7qlXlgL4w2QBugDejZgPgg8UU8AiBwEwUA1T9tgDZAG6ANBGQD1wfg9/jINIGDAip0qmU9tUxu5EYboA3EyQbG0xsHR6AIwJMUAVT/tAHaAG2ANuCzDTwBQHwQjwAJDACw1eeCj5OCZV7YI6MN0AZoA+5sQHzOXgH6PT46i8CRFABU/7QB2gBtgDbgkw0syvI//BgCAif4VPBUyu6UMnmRF22ANhAXG/gfgOND4O+YhDwEZgD4jkKAvQDaAG2ANkAbsGwDMuVvah6/w69CRKAZgAsA/Gy58OOiYJkP9sZoA7QB2oBzG/gFwDUAWofIzzEpFRBoCkA2abgFwEsAvqQgYI+ANkAboA3QBiqwAfEV4jNuBrAw1aFsUoGviey//z89AjsQhJiJMAAAAABJRU5ErkJggg==;" vertex="1" parent="1">
          <mxGeometry x="450" y="260.5" width="76.5" height="76.5" as="geometry" />
        </mxCell>
        <mxCell id="yqI1gPK7mimHnNKxgcp7-5" value="" style="shape=image;verticalLabelPosition=bottom;labelBackgroundColor=default;verticalAlign=top;aspect=fixed;imageAspect=0;image=data:image/png,iVBORw0KGgoAAAANSUhEUgAAAgAAAAIACAYAAAD0eNT6AAAAAXNSR0IArs4c6QAAIABJREFUeAHtnQeYVEX29t8ZZmDIQXJGkAySDCBJQEFAAUEykkFFJSk5GBDdXXN2P3XN65rXsOawrjmsOesaUXfNrhnd+vrw79am6em5t6pufu/zzDM9PTdU/epUnbfOrQDwIIHkEGgMYAqAMwHcBeBNAJ8D+BnA9wA+BfASgBsBnABgOIDqMcBTF8BYACcDuA3Aq+l8/whAheBnazo9b6f5PwHgbgCXAFiT+u6gVJnsCqBaDMqCWSABEiABEvCJQC0AhwB4WNPR/QDgegBjAFTyKc02HlOWEjjT00JHBE4YHL1pGv4H4B0AVwCYB2AXG6B4DxIgARIggXgRkF7vcQC+sOj8XgcwJ+RCoCqA5QA+tJhvU8ft5fVb0oJAIjuMEMSrDjM3JEACJOCKQBGAmQD+7aED/CeAPVylyp+TRwH4l4f59tKR27j31wAuAzAi5CLNH2vgU0iABEggQQRqA7jGJwf4C4CTQuJopNd/gU/5tuGo/bjHxwB+B6BpguyfWSUBEiCBRBLomOr5yyAyP5xL9jNuTw2uqxEg8SYAJCKRnSZ+/o2HjOH4fwDaB1hGfDQJkAAJkIBHBPoA+CRAJyij1nfyKG+FbrszgLcCzHeUhIZEbK4D0KMQUP6PBEiABEggOgQ6p6fvBe2MRAT4GQloCEAGJQad76g9X4SAjBNoEB0TZ0pJgARIgARyCYgTfC9ETvCW1MyD4txEevC3vPN/JkT5jpoIkPR+lhooemhIxnB4YCK8JQmQAAnEl4A42jtC6ARX+YBc3mlH0emGMc0ipHr6UGZ8BAmQAAmQgCUCR4bUCcqqdrJqnVfHASHNdxidu9M0yUDBJQBkCikPEiABEiCBEBOQJX1tLvDj1FE4PU9WHfTCmUjoP8nz/J3y1z1Plh+WWRU8SIAESIAEQkrgvAj0gid4wG5lBPKt63zDct1HAIZ4UHa8JQmQAAmQgCEB6f3Lxj1hcRjlpeNZy1EAWds/Kcv7lsfUr+/lNc4CQzvl5SRAAiRAApYJHBsB559xVIMs5n12hPKdyX+Uf8vGQ+stlh9vRQIkQAIkYEBA3qtbeQe+V8tW6oL9D1SvHXmU+mbtcerzVRvV04ccqU4YOly1rlPXluO60CCvuZfeb0MAdG3YSJ06YrR6/rAl6qs1x6pfjjkx8J8fN5ygPl25Qb21ZIV6YdFS9eCcQ9TFYyeo1QP2VhO6dFPdGzVWlYqLbZWJ2/tIGZbkFgb/JgESIAES8JeArPjntgHf7vzaZWXq2onTCjq979YdrzYMHqqKi4q2u1bj2TLX3MYWwrLegSxgo52eKiUl6uxRY9RPG04omPcwCIJ8afhs1UZ189SZanm/Aap302baHDQZ3kQR4G9F59NIgARIIJfACs0GfJvDqFe12rYeZj4Hk++7yw+cpIpgLAJ652ZC4++JJvkW53/vrPmRdPz5ykW+e/3Io9RxQ/ZRnRs09EsMXO7TIk8a5sFLSIAESCD+BGSlPe0G/44Zc1w7wRX9B2k/L53WpRaK5SyTfJ+//zjX+S7P8Ybx+8cXLFKTuu6qSrx/TXCuhbLkLUiABEiABDQIvKHrCPfv0EnLCcp78sY1apqIgD9q5DP3EpmfrpWGHo2bqK0bN2vlPYzOvlCa3ly8Qi3ava+qWlqqxcoh4825hcO/SYAESIAEvCVQCuBnh430Dg7gtmmztJ2gvHfWfS4AGbxneryr+/xzRo3RznchZxvm/729dKU6qEt3kzKr6NqFpgXK60mABEiABJwTqK/rBCU0LAP7dJ3WnTPmVOQQCv3/eedZLPfMb3TzLu/KdfMd9evum7VA7dq4SaGy0f2fLB28W7mlxX+QAAmQAAlYJdBG1wk2q1XLyAm+csRyXUch171tSEE2PZI56a7TIAMYv1+/ySjvURcBMsVQZnR4MI1QdqEUUcqDBEiABEjAYwIddZygXNOxfgMjJ7jlqDWunW9WWmVpWZNDVgDUen5ZSYlRvqPu/LPTf+/M+ap5rdpaHAvwv8fSNE8T++C1JEACJBB7AhQALoUABcD2ixz9Z8V6Nah1G9siYHXsax4zSAIkQAIBE6AAoAAwjmjIK5Fp3XvaFAEyHkBskwcJkAAJkIBHBCgAKACMBYC8Fvh54+ZtywwXCO27FQj3Wt74yaMqxNuSAAmQQDQJUABQAFgRAJmxAesHDXXr6Audf3A0qxVTTQIkQALhJ0ABQAFgVQCIEFjSt38hp+7mf59wVkD4GxGmkARIIJoEKAAoAKwLAHkdMKdXHzeOvtC5p0azajHVJEACJBBuAhQAFADWBYBEAX5Yv0kNaNW6kGN3+r/vATQNdzVi6kiABEggegQoAEIgAB6cc4ia33t31bVhI9WgenVVt2pV45/61aqrnevW27Zq3wEdO2/b8vdPYw9Sby1Z4YnDz4wByP4taz00rVnLqaMvdN4p0ataTDEJkAAJhJsABUCAAuCL1ceocZ26FHJ8nvyvVZ06297TPzZ/kedi4P7ZC2zsKPgtgEbhrkpMHQmQAAlEiwAFQEACQJx/90aNPXHwbqbiybr+lx04cVvIPrv3bvPzMrONnzKMGAWIVtvC1JIACYScAAVAQAJgYldPd9bLOE3Hv9vW20ldN2m6JxGB/649btvrCDfCJM+5XwKoGvL6xOSRAAmQQGQIUAAEIAAeX7BIyaZCeZxc4N8Na7uLemfpKutC4Pbps23kbXJkahYTSgIkQAIhJ0ABEIAAsDhP3oZT3eEeMgjxLwdNtS4CRnfotMOzXIqgO0Nen5g8EiABEogMAQqAAARA3xYtTR2h59dLhEJW9ZM5/bbGAzy18AjTyMcvAFpEpnYxoSRAAiQQYgIUAAEIAHnf7rLnG9j5M3v0VlstioAxHTub5mVtiOsTk0YCJEACkSFAARCAAJBpeFERAJLOWT3tiQCJAhjm/YnI1C4mlARIgARCTIACIAAB0LpOXVMn6Pv18jrA1quAPZq3MEn/zwDqhbhOMWkkQAIkEAkCFAABCIA2daMnAGRMwPWWpgmeN3qsiQCQaw+MRO1iIkmABEggxAQoACgAHDvj2mVl6r1lq40jAbIIUrXSUsfPzfPK4NwQ1ykmjQRIgAQiQYACIAABIGv053FqkfhO9hWw8SrgoC5GCyG9EYnaxUSSAAmQQIgJUABQALgWHncdPNdYBFw4Zrzr5+aIpoYhrldMGgmQAAmEngAFQAACIErTAHOc7jan3adpc+P1Ad5dtspUAAwKfe1iAkmABEggxAQoAAIQALvsVN/E+fUCUNfBT1MAuwKYCOACAFvyOXPd7+6ZOc84CtChfgMTDgtDXK+YNBIgARIIPQEKgOgJgF00raoygNkA3tZ1+tnXyTt807EAc3r1MREAp2ty4GUkQAIkQAIAKAACEADtzSIAugIgY/C1AFyS7cx1PleuVEl9ufoYIxHwh31HmgiAOzIZ4m8SIAESIAH3BCgAkicAMlZyvI7jz77mhskzjATAbdNmmQgAiWTwIAESIAES0CRAARCAADB8991es6zzXXZptkN3+/mQ3fY0EgBvLl5hIgB+yJchfkcCJEACJOCMAAVAAAKgo9ngtw7OitbRWXVMBgf2a9HKSADIJkPFRUUmIqCmo1zyJBIgARIggR0IUAAEIAA6NWho4vRsCgAxiHVue/6Z8+uUlRkJABlEWKtKFRMWrXewaH5BAiRAAiTgiAAFQAACoLOZAJAys3mIE9V2wv9de5yRCGhWq5b2swHYFkM2ufJeJEACJBBqAhQALp1fWUmJkcOTXm/IBEARgG91RcCWo9YY8TCMhnQPde1i4kiABEggxAQoAAIQAF0aNjLp9XbywJ4+0BUAMpDPZD2Ank2amrCQRZF4kAAJkAAJaBCgAKAAKE2NA/hZVwD8Z8V6IwFgOCPCCzGkUY14CQmQAAlEjwAFQAACoKtZBKCzZTMboOv8i1Ckfli/yUgAGI4BaGWZBW9HAiRAAokhQAEQgADo1qixSdi7i2Xr1F4LoFWdOkbO38IsAO4IaNkYeDsSIIHkEKAAiJ4AsBkB2MMk/D+yfUcjAfD5qo0mQuh/AKokp6oypyRAAiRglwAFQAACYNfGTUwcX1dLJlAfwKu64X+5buPgYUYC4KmFR5hw+NgSB96GBEiABBJJgAIgmQKgAYBnTZy/XPvo/MOMBMB1k6abCICnE1ljmWkSIAESsESAAiAAAdDDLALQzbDsRwL4yNT5N61ZS8lSviZTANcNGmIiAP5qyIGXkwAJkECiCVAABCAADOe+6wiAEgD7AbjP1PFnrl8zcG8j5y/CYVjbXUwEwO8TXXOZeRIgARIwJEABED0BcCyABQ5+jgJwKgDpKX+dcdw2fpcUF6t/LVlpJAAkelC7rMxEAEwztH1eTgIkQAKJJkABED0BYOI0rVw7v/fuRs5fev+PzDvMNC22BkMmugFg5kmABJJLgAIgAAHQu2kzU+cX2PXVSkvVu8tWGQsAeYVgEI34HoCsYMiDBEiABEhAkwAFAAWAK0d8yvBRxs5fIgCGqyHer2nvvIwESIAESCBNgAIgAAHQp2lzV07XoKds9Tl9W7RUP204wVgAPH/YEtN0bWANJgESIAESMCNAAUAB4MgZN6pRQ72z1Dz0L73/w/fo5+iZBYRPfzOz59UkQAIkQAIUAAEIgN2btTB1gL5eX1ZSoh6cc4hxz1+c/3/XHqfqmI3+/xJAZVZdEiABEiABMwIUABQABcVE5UqV1M1TZ1px/iIAzhp5QMHnFej1Z66TzYt4kAAJkAAJGBKgAAhAAAxq3SbjzEL9u0blyuoWi87/+/WblOwg6MDJFzpnlKHN83ISIAESIAEAFAABCIBp3XsWcnCh+F+L2rXV04ccaa3nL73/c0aNMc3bFwz/s90iARIgATsEKAACEAAXj51g6gg9vX5spy7q3yvWWXX+X6w+RjWpWdM03WfaMXvehQRIgARIgAIgAAHw5epjlIyqNwyFW79eHPSl4yZadfzS85cfCyP/Jb9c/Y9tFgmQAAlYIkABEIAAEId4xfhJ1h24rqCQNfnXDhyivlpzrCfO/6mFR6hKxcWm+X3Aks3zNiRAAiRAAhwDANdOSabEZXq1pr+PG7KPKkKR6zToOvrc6zrWb6D+sO9IJeF507yUd/03a49TXRo2spHH8ayxJEACJEAC9ggwAhBQBCDjMG+YPEPtXLeeDQdZ4T2qlJSo/i1bq3WDhlgf4JfJT+7vRbv3rTBducIkz98vASi2Z/a8EwmQAAmQAAVAwAJAHOYP6zepuw6eq9YPGqpm9uitJnTppiZ27a5k1z3dnyV9+29z9NLDv2biNPXPQ45U36473rOefq7jl7+vmzTdVoRjEqsqCZAACZCAXQIUACEQAPmcZ9S/e2LB4ap65crs/dutr7wbCZAACVgjQAFAAWA9KiDbBTetWcuG85d7jLBm7bwRCZAACZDArwQoACgArAqAD49aqzo3aGjL+d/8q6XyAwmQAAmQgFUCFAAUANYEgDj/Tvac/48A2lu1dt6MBEiABEjgVwIUABQAVgTAG4uPVh3qN7DV85f7rPvVSvmBBEiABEjAOgEKAAoAYwHwyLzDbK9s+DSAUuvWzhuSAAmQAAn8SoACgALASADIvgZVS0tt9vy/B9D5VwvlBxIgARIgAU8IUABQAGgJAFnhb17v3Ww6/sy9Fnhi6bwpCZAACZDAdgQoACgAXAuA+2YtUO13qp9x2DZ/X7qddfIPEiABEiABzwi0ybPsqqMGvUfjJq4dR/biNluOWuPoOeWk7yNDImXl3LfCNNncCyCbRxQ+yxbBslKhR/sXPAegmmG58nISIAESIAGHBMQR/qLjDEe270gBkN7qNgrO2ySNX685Vp04bISqW7VqhQJJx5YAbAHQyqHN8jQSIAESIAFLBB7WabRPHj6KAiDmAuCzVRu37RbYsHoNrxy/3PcrALtasmXehgRIgARIwAWBWW4FgKzx/sHyNRQAMRUAzxy6WC3os4ettfwLiYcfAAx1Yas8lQRIgARIwCKBSgAedSMCNg8bbuT8JRzNMQAnGjM0CevnXvvioqVq4+BhNpfxLeT45X/i/EdatGPeigRIgARIQINAEwCvOREBB/fopX7euNnYeVEAhEMA/HXKwap/y9YVOWvb/5e5/tzkR6Oi8hISIAES8IJAXQCXlTcosE5ZmTptxGgrzp8RgOCd/48bTlCLdu9r27E7uZ+88x/mhQHzniRAAiRAAmYEOgBYDeCK3Zq12DK7Zx8lq73JgLDcsLHJ34wABCsClvTt78RZ2z5HRvv3NDNPXk0CJEACJOA5gV+O2fxnEydf6FoKgOAEwL2z5ns1l7+QYJD1/Zt6brR8AAmQAAmQgDkBCgDs4NDisBDQqPYdd8iXk/EfBufIqyUu8mNeJXkHEiABEvCHAAVA/ATA9+s3qZLiYr8EwDcAZvhjrXwKCZAACZCANQIUAPETAM8ftsQv5y8LTMleEzxIgARIgASiRoACIH4CQBb5MQjlO7n2OwArAcj6EjxIgARIgASiSIACIH4CQDb08VAAXJ+aSrpzFG2daSYBEiABEsgiQAEQPwEgMzN6NWlqWwTICP9BWabDjyRAAiRAAlEmQAHgnwD46Oi16uapM9Ul4w5St0ydabzXQqEpmOeOHmtTAMhukgOjbOdMOwmQAAmQQA4BCgDvBcBj8xepYW13UcVFRds5Zfl7UOud1SPzDrO6AJMIg60bN9te/vdTDvjLqTz8kwRIgASiTIACwFsBIEsrV6pgSl4RipTp1sv5ogFvL12pmtastZ3oMBwb8C8AjaNs70w7CZAACZBAmgAFgHcCQEL9bhzu7/bZz3ok4OlDjlQ1q1RxlY4K0vwUgBqsQCRAAiRAAhEnQAHgjQCQ9/21y8pcOV6JBFw5frJ1EXDHjDmqtFIlV2mpQATcBqAk4qbP5JMACZBAsglQAHgjAI4bso+Ww61SUqJkHf98IX2T72SzJxEYFTh2N///Y7JrDnNPAiRAAhEnQAHgjQDo26KlG2e63bl1q1ZVLyxaal0EbBw8bLvnWBAD6yJu/kw+CZAACSSXAAWANwKgXtVqRs62Wa1a6p2lq6yLgEN229MoXTmi4X8AZiW39jDnJEACJBBhAhQA3ggA2VEwx1m6/rtH4ybqy9XHWBUBP6zfpIa3a+86LQXy8hOAYRGuAkw6CZAACSSTAAVAeAWAON3BbXZWsrufyfv/3GtFVPS0u1Lg1wB6JLMGMdckQAIkEFECFADhFgAiAqZ066F+3rjZqgj4YPka1bpOXZuRgC0AWka0GjDZJEACJJA8AhQA4RcAIgI2DB5qVQBIVODFRUuV6ViFnFcDLwGom7xaxByTAAmQQLQIVAfQ7dpJ0+555Yjl25aOzQ0Vm/695ag1Jj3MjwxxluU4J8dpkff3pnm3MQYgN/3njBpjnK7cfD0we6GynNYHAFQxLDteTgIkQAIk4AEBeVd7Q2o/9++zHUyjGjXUUXsNVJ+sXG/NyVAA7BhdyGbu9rMsKXzTlIOtlU9GDFx90JQd9ilwm7ac8/8MoMgD2+UtSYAESIAENAkcBeDnnMZ6u55x4xo11cPzDrXiZCgA7AoAKTdZ1vephUdYKZ+MAJDfv9935HZ2UMhGHP5vs6aN8jISIAESIAHLBBY7bLi3OZnnDlti7GQoAOwLACnDJjVrqreWrDAun2wBIJ+P2KOfbRFwuGUb5u1IgARIgARcEmgPQOZrO27gezVpajwugALAOW83ZSPndmrQ0OrrGhEAsoXwuE5dHNuIgzRLtGmsS1vl6SRAAiRAAhYJXOSgsd6h4b956kyjXiYFgHcCQMpzQKvW6tt1xxuVUW4U4Ju1x6l+LVrtYAs69pO+5jsAfS3aMm9FAiRAAiTgkEAxgE91GvA5vfoYORcKAG8FgJTpQV26G0dqckXAf1asVx3qN7ApAj4BsItDe+VpJEACJEAClgg01HH+cs1eLVtRABxzohYDy1PrCjrj5f0GaKUx1/Fn//3G4qOVzAzRtZ08170JQGyRBwmQAAmQgE8EOuRpjB017PKeOdspuP3MCID3EYBM2Z6+3/5GZZWvbB9fsEhVr1zZka1k0lHB78cBVPPJ7vkYEiABEkg8gY4VNMrlNvAd6zcwcioUAP4JgOKiInXdpOlG5ZVPBNwydaYqKS4u10Y0bOtmAJUSXysJgARIgAR8IEAB4GL2gzi0sK4EWJGzrVpaqv4x9xDrIuD8/cfZFAByr/N8sHs+ggRIgAQST4ACICECQATCTtWqqZcPX2ZdBBy910DbImBZ4msmAZAACZCAxwQoABIkAEQE7Fy3nvrwqLVWRYDsRjh91542RcD/AEzz2PZ5exIgARJINAEKgIQJABEBfZo2V1+vOdaqCPhh/SY1dOd2NkXAjwCGJLp2MvMkQAIk4CEBCoAECgARASPbd1Q/bjjBqgj4YvUxqnujxjZFwJeyK6WH9s9bkwAJkEBiCVAAJFQAiAiY33t3qwJAZgq8t2y1alG7tk0R8DaAxomtocw4CZAACXhEgAIgegLgD+K8bf2cOGyEdRHw9CFHbts0ylYaATwKoIpHdYC3JQESIIFEEqAAcOlMQzANsCqAS2051yIUqSvHT7YuAm6fPluVVqpkTagAuCCRNZSZJgESIAGPCFAARE8AlAEoTW2ic6ctESCO+q6D51oXAVeMn6REYNhKJ4AxHtUD3pYESIAEEkeAAiCaAkAMtRaA52w51zplZer5w5ZYFwEbBw+zKQDeT+c7cRWVGSYBEiAB2wQoAKIrAMQWmgJ415YIaFarlnpn6SrrIuCQ3fa0KQI22q4EvB8JkAAJJJEABUC0BYDYbFcAMl3OipPt0biJ+nL1MVZFgKwRMLxdeyvpA/AFgDpJrKzMMwmQAAnYJEAB4NJxhmAQoIwByD0GAfjBlggY3GZn9f36TVZFgIiKnk2a2hIBS3IB8G8SIAESIAF3BCgA4iEApNQnA5AldK042SndeihZ4jffLoC6332wfI1qXaeujfS94M7MeTYJkAAJkEAuAQoAlw4zpBGATLmutiUA5D7rBw21KgBEOLy4aKmqV7WaDREgtsuDBEiABEhAkwAFQLwEgJjBWTZFwDmjxlgXAQ/MXrhtW2XDdC7WtHleRgIkQAIkAIACIH4CoBKAWwyd66899JLiYvW36bOti4AzRx7w6zM003o9azAJkAAJkIA+AQqA+AkAsYbqAJ7QdKw7OOaaVaqopxYeYVUEyPiCfi1a7fAsF2l+Q9/seSUJkAAJkAAFQDwFgFh2QwBvuXCoBZ1xk5o11b+WrLQqAq6bNL3gMytI+y/pFRFZi0mABEiABDQIUADEVwCIObQF8O8KHKljJ9ypQUP1ycr11kTAV2uOVfKKwSB9TTRsnpeQAAmQAAlwDID7KXMhnwWQz6j7AfjOwMlu56AHtmqjvlt3vDURsHPdetvd32U6u+TLML8jARIgARKomMAuLhvcXxvrNnXrGjkBCSfrPhvABxVnreAZspmO1vOlx7rVYH68XFvJrNcraXd7HAhAQuZaec69bmLX7kYMstcR6NygoUmaOrsFwfNJgARIgAT+j0Dj3Mbd6d9VS0uNFop5aO6hJg3/KxYK8Hunec0978Oj1mqLH1kMJ/d+Lv6WnrzuIdPmTJ693bXL+w3QZpAtAGQTIoN0tdeFwetIgARIIOkEqhk0vkYjw/+w70iThv9RCwWn/W78+knTtZ3ftROnmeT7I8N8n2xS3rnXnrHf/tocRAS8csRyExZyLfcEMDQIXk4CJJBsAuJUtBpi3V6gTAHr3bSZ1jPTab3SQpGJiNBKw/jOXbUd37hOXbSemU7rw4b5LgZwjW6+c6+TVxk3TJ6hzWLdoCEmLL42ZMHLSYAESCDxBB7Ibdid/l2ttFRr+9irD5pi0vDLtRsslNolTvOZe14RitTjCxa5dnyPzDtMybW593Px98UW8i2bCT3o4pkF0yuvguR1TnZY38nn95evVrWqVCl47wrS+JgFFrwFCZAACSSawO8raGgLNtJ7NG+hvnUxKvzVI5bbWAt+uIUSO8wk3zJ6/d8r1jl2fHKuDJw0eSaAhRbyLbeoB+Blw7T8mpf61aqrFxYtdcxC7EV2HDR8/pmWWPA2JEACJJBYAiMMG2K1V8tWysnAOOkBN61Zy7Th/zG90p1pgWmvgZDhJfPiRdBU1OOVd91ybuY6g98ya8PW0TolKLRf/+TmYadq1dTf5yyskMXHR69T+7TdxQYLmdnAgwRIgARIwIBAVQBf5Tbobv+uW7WqOnHYCCWj3HMd4vOHLVHze+9uuuhLxmncbpDX3Etfd5vP3PMlBL6y/2D15uIVO+T7jcVHqxX9Byk5J/c6jb9tzHzIzX9vAP/VSEve/BQXFalZPXvnHRz6nxXr1cnDR6lGNWrkvdZlGmQ2hCx3zIMESIAESMCQwEUuG+ByG3FxAtLblV6eLBrTsnadcs/VfOY0w7xmX75eMw1587TLTvXV3m3abvtpV2+nvOcYPG9tdsItft4PwFaDdOXNZ7NatVT/lq3V8HbtVdeGjZTYhcVn/MVi/nkrEiABEkg0gT0sNs42G/rce/0HgExdtHW0ACCvFHKfE7a/fwDQzFam89xnXgQYZJfJwDx54FckQAIkQAKaBO6JgBNYrZm3QpddGIF8X1AoA5b+d1wEOIgIkF0OeZAACZAACVgk0Dc1ve5/IXYCHwKoaTG/mVu1sblWvgf8vgXQMpNYD38XAdCeGulBvrN7/NmfB3vIgLcmARIggcQSCHNveIqHpbLORweW7cycfPYi6lEeStln4K4Qs7i2vITzexIgARIgATMCMj/83RA6gJvMslXh1VUAPB3CfEu4u3KFqbd7Qi0Az4aQhSzd3MBuVnk3EiABEiCBbAKyfexPIXIAbwOom51Ajz63BfBliPL9BQB5PRHEIQMO3wsRC5lPN0/zAAAgAElEQVSlYGPxpyBY8pkkQAIkECkCMtXO2vaxBo5EHPKuPpIbFpJZATLqf28f853vUV0AfGpQdk5ebzg954h8CeR3JEACJEAC3hBYEvCgQFmcaC9vslbwrgcFHAGRaYnjC6bQv3/2AiCRCKeO2ovzvFr/wD+KfBIJkAAJRJDAwQE5w48BiPMJ6pDFcb4JwPHJqnz7BpXpcp4r5fBBACwkArW8nDTxaxIgARIgAR8ISChapuB50bvLd89HfJr2VhE6efXwmo/5lqV+u1WUqID+3yT1Dl57+2QNhp+n5vuPDCivfCwJkAAJkEAWgUYAZApWPodt6zt5730sAJmKFpZD1h04z+PxED+nRrefA6BGWDJdTjpKAKwC8L3HdnCbx6selpM9fk0CJEACJFCIgIzE/qdlByCLD90AwOZOd4XyoPO/3QA8YDnfIpzuAyAb8kTpkHK6ygNR9FLKtg6IEgimlQRIgASSRkBWjBsFQHpqJpvIyAh/WXioa4QA9gcgG9GY9IJlJ7urAxrgaBO1zBI423CQoLznlyWoxwAotpk43osESIAESMBbAvJqYG6q934lgHcqmDUgo9tfSDuNsQBkG+KoHrUBTAUguyjKlsISxi/vVYj8T84RsSOrGcq1cTqkHEUQnpFy5M+kXhPIq5zyWMj3sr6ACKBDAMjYAh4kQAIkQAIxICDOQHr0A9KDuGREu+wxIGFjeYcc10NW6+uU7tWPACA/MoVRvvN7Jb+gGVcC0A6A7DC5D4DRAIak7SLs4xyCZsfnkwAJkAAJkAAJkAAJkAAJkAAJkAAJkAAJkAAJkAAJkAAJkAAJkAAJkAAJkAAJkAAJkAAJkAAJkAAJkAAJkAAJkAAJkAAJkAAJkAAJkAAJkAAJkAAJkAAJkAAJkAAJkAAJkAAJkAAJkAAJkAAJkAAJkAAJkAAJkAAJkAAJkAAJkAAJkAAJkAAJkAAJkAAJkAAJkAAJkAAJkAAJkAAJkAAJkAAJkAAJkAAJkAAJkAAJkAAJkAAJkAAJkAAJkAAJkAAJkAAJkAAJkAAJkAAJkAAJOCFQG0A3AKMBzASwDMAmAOcC+COAa/L8XAHgAgCnAVgPYBGAKQAGAWgDoLKTB/McEkgT6A3g+JQdXg/gbwAuAjAdQI2EERoI4HcAbgJwK4DzAUwAUCVhHJhdEiABywTaAhgLYA2AP6c+PwvgSwDKg59fAGxJCYL700Li0LQ4ELHBgwQyBJqlHX55NvhvALMyJ8f4d0cADxeoh+8COCDG+WfWSIAELBIoAzA03TuXnsQnBRqX8hpfL74XYfAygIsBLADQyWKeeatoERCn96FDuzwDQHG0suc4tcMAfOGAw/9S5y12fFeeSAIkkCgCuwI4GsBdAL5z0KB44eB17vkBgD8BmApgp0SVWHIzK6H9113aqLyKilsofDKAH11wEAE9PLlmw5yTAAlkE+iS+uMYAK+6aER0nLRf1/wM4KF0T0fCwzziSWCdpr3eC6BWTJBIb14cutu69UpqvESlmDBgNkiABFwSaJcepPeeRuPhtrEJ8nxpHGUMwcEAqrtkxNPDTUDeaeva1ksARPhG9aiaHlyrm3+5bnBUM890kwAJuCcgoc8ZAB4EIO8CTRqPKF77dXpkeB/36HhFyAjsbMF+vwUwN2T5cpIcGfPyvIX8S9SPBwmQQMwJNAKwEoC8J4+i4/YizU+lowKlMS/7uGZvL4u2LOMCmkYAVAmAIwB8YynvMj2XBwmQQEwJSC9J5kK7GSDkhbMN8z0ljCzrD8iMBx7RIdDTkhPM2KY4VekRh3Xtid0APGE5z6dGp7iZUhIgAacEWqcX2NlqucHINJZx/C1zxSVKIu9WeYSfgAzi+8kD+5axAZNCNECua3q9DS9e2c0PfzEzhSRAAk4JyPQ3metMx6//qkMWHpK1BThC2qnVBXfe7R4IgIy4lemF8wKcMrgngL96OFZHxFMUXnsEZ118MglEhID0WqX36tWKfJlGMUm/pSc4KiLln9RkyjgAL3rG2Xb+WXop3QEAijwG3SK19sYKSwP8svOQ7/N5HueFtycBEvCBgKy9/46HPaF8jUeSvrsBANcS8MGQNR9xgo+2L/VM9q6QxaZs9J5FuA9JrU54XHoJX535/Dp1UVbRjMs6CJpmw8tIINoEmgC4zMfGT6ehics1Ml1MIix8LRC+OiNL+54ZUD14E8AtAE4BcAiAEakVNPsB6J6qmzIAtyUAWapYpp3KUr0iHGSg4VWp6NKTAH4IIN3i/CXSwIMESCCiBGTuMsP9+u/5dYWJjMKWBp1H+AjIinhevw7QtZuwXPc4gPrhKzqmiARIwAmBhumBQWFpULLTIcvvyqqC/0hHJk5O7xi4EMBB6R9Zf1x6QvKzf/o72a71yFTmpWd0VnoL02dS330eQO8oOz/lfZb9EWQuttfvg53YA8/ZnoCs9ujFzIDybCFK30ukotr2uPgXCZBAVAiIw5SpamFodGTXMRmBvTm1f4BsRNINgBcL6tQDIHubyzbAMmjpnyGa4XCnpffAUbG/qKRT6oms+BiGehKWNPy/1LLfsogQDxIggYgRkPfOJwUc3hSHf116elzngLdUlfX8ZQ3zY1PvXB8DIJGHoBraj1L7DAyKmD0lIbntAUgUKSi7CMtzJVrFrX+TYPHMYywJSMj/voAaMhnxLGF8mWoV5sFvEiWQwVXXB7R9say5INsn85VAuKqg7Hsha2KExRn7nQ4Z7CeROR4kQAIRJCAjh/1eu1/eu8uIall2NIoOTaID8kpCwvN+TanKNOwSIeE71vBVNBl/IhGsTDkl4bes8c8VLcNni0wRCTgiMNbihh9OGjwZuCe96Dith98qRVoGFkqY3gkDG+fILIHGjkqYJ/lJILNCpt+i0IZNubnHawD29RMsn0UCJGCXwDKfeq8yWvqK9BxluzkI190kFDzTx3fC8upE1m/nET4CXmyo48ZBe3Vu2DcyCp8lMEUkEDICEnI/zYfeqjj+CwHIhkFJO2SEuGwD7FVDnLmvrNEgS8fyyE+gL4A/pMTnralBlPenN7uRhXSkp+71IaPhD08NaP3QBzvI2INXv6Uu/8mn2Siy4NJIAOemZwDdm362RA75usFrq+X9Y01AKpdM1fGqoZD7yiIpl6dXKIs1zAoyJ0JrDAAZJOUlb1k9kOHY7QujeWqlvLsKcBfhtGT7Szz7S7b9lXUDJGzupR14cW9ZQVBWAW3nGZ3tb9wLwHMFOL0PQF5b8iABEnBJQEbYX1KgctloQGQFMFmilMdvBKQnKLv+ebm2wo8Axv/2yER/6uCi1y31wa9561L/pBcra0zYqGte3kM2JpK1N2R2kF+HiGURsxXlSzoYnHLoV6nwObEgIL1R6ZVXVLl0//8fANMiOqLfrwKum97gxatlZGWaoKwRn+RDZme47WnfGMBWvF1ShSQDR9/ysE66rcvfp/cbkNkMErXw85C2w83W4jLIUlb55EECJOCAwGEeNTTizKQX5cc7VQfZjMQp8s7+FY/KQ6ahJXl2wCpNrncENLVSXsnJAk/yvvtVzbS7dfTZ50tP/6bULp+zAty1T6JjOrMmXgh4obBINDZMJAnIwBkvws8fpwfrkLB7AjIN8lSPVl083X1yYnPFGwZO9NkQbMcsO2/KawLZCljGjrjpFWc79vI+S539a3r8Q4+AHahEJSUKUl5anXzP142xqbrMiFcEZES6k8rk5hzpMUljxcOMwFAAMrDJDfuKzhWxJz3LpB3NLHB8G4AsQR2WQ/a9kOWGRwNYnorunJ9K3zWpVTPvTg38fCQ9YE5eI7ybjirJzBP5n/Tq5ZWfOFgRFLLYV+2wZCr9yuVKC+UlER8eJEACBQgcZ6GiZZyO9Ehk/QAe9gg0AHCPxTKSskri1MvelhjKDIED7BUv75RDQISaiJdMm2LyW5Zg5kECJFCAwNmWKpuED7khTQHQBv+SEeInWnwlIM4waYeM/jdxJtnXytgW2RgrzHtTRLF8ZcdNmytmbooiBKaZBPwkYCMCIO9HZW512A5Jk+zYNzu9Uc7G1GIhv0u/Q5XVBy8GIAJIGvPV6elDEwHIfOOaYctM6r2vpE1GY2c7I53PSYwAyLgKWalOh1d510hkRnqsPMwIiJBa58GYBnm9wYMESKAAAdMxALKgSq0C9/fjX9KA9Ew7cHkHKouFOJkzXF7DnvleohqyP4GIhEkhGdewp+GgzaSOARA7vNayABA7kZHyE/ww8pg+o01qyt5DHpSLbEEsO3TyIAESKEDAZBbART4ulJKbBenFHpVexlXey2actte/X08vYSzzoYNaelRWXvuXZp6TPAtg11RP82dNbhXZlUSUZLwGD2cEZCCqLLv8lUflIZE+HiRAAg4I6KwDIANsZKqOn4coelk2VUYye7VgTkUNffb/pZchEQeJosiIbD8Peb3hdr2ApK8DIOVztEcOR+xCtrGWeet+1ws/7c7Gs3YBcJ+H5SCrKXJLbBslxXskgoA0WG6m3ZzgMxVZ1etvHvbesp267udPAJzs81gIWYr1GYcNqczQ2M/ncgvr42RApW45O7nuwdSqeUkcaFlRectql7K+hWwe5ISjzjkyHsnPJYoryjP/TwKRICDv0SVsVihE+t/0qmB+ZEhChNKzfszDxkKnganoGmncZIMUWc7Vj6NGOgpRKF2y45wMhuTxG4G1HtuVrF4nq2CGcXDsbxT8+SRLBy9K7X74qcfMHwUgIoMHCZCAJoFOqaV7z0qvNCYhbnlH92QqrHmsT8paHP+8kK2DXsi5lvc/eUVxM4DumuXg9jKZQnVpSqC9k5rRIJv/SGP79/SqbrIGPo8dCcimMV6/SpId86Q+JXG2gLwWmw9AFlAqr57Y+l5eKYgY5kECJBBRArIimah4W41CGO4jPUGJCNSPaJnEPdlTAIiT9tpWZPqmrOkvK/fF/RBHfIRPjl/K7c8BbNgU9zJk/kjANwKyQY2sby7O0uuGOKj7y3Qx6XFy8RjfzMrxg/r7EJ7O2J3Y+C0A9onhkswypU9eI8pgyEx+vf4t45E46NKxqfNEEggXgZkeTgXyuvHRuf/jAGQaH49wEZCR6W63CtYp/+xrJDQui1O1ChcKV6mRqbCyXe+9Pgt4ec0111VKeTIJkEBoCMhKe7IhSXaDmJTPXwOYHpqSYEIyBGRDHNkox287lHEIMthV1rWIwiqNMqZE1sH4iwerKzphLxtk9c0UGn+TAAlEi4AstSsL6jip7HE+R8YGcOBSuGxXwsmyLHSh2TBe2+RL6elywwGEYQCnDMyVRZRkDQVZg8PGctS6DGWwH6f5havOMDUk4JiALJTix6Ar3QbG7+tkMR8JP/MIF4EhqdkoH4RApMr6DbKwjSxHLYtgyZLXVTxEJQJI3uXLFFzZLli29vZzpc3y6p8IsuMDXHnUQ+S8NQkkg8DKEDSo5TUwQX4vU/YY0gxfHZCVJ73YP8DU1kQUyHiFW1PLD58DYEX6PfyI1IJZu6derbUF0DQ9J17mxcteHfJ7p9SMlJ3TU1NlXYjxqcGPh6dWzft9Opz/RGo7b3k9ZZo+29fLWAkZqMmDBEggggRk5Pt5IWxYbDdUJveTneqkAecRPgKzQtILNrGvqF4riykFvdlY+CySKSKBiBCQbVivC8j5y+Cqd1O9B9m29fzUoi8b0gOt5DWEzP+Whv3Q1DtNiUxsTs8nlkWPggp5yshmbmEaTsOWqaoyZiOqjjRq6ZbNrmQMBA8SIIGIEpCev8x59qvxkS2AxdnL1CoJcZpsCCJLuIpIkMiFDMryKw8yT3xiRMs7Cckek5p+JqPQ/bKHpD1HXm/IKwmTupsEO2QeSSD0BGQ0tdcNmPSaRWSIs/ZyxLTM3V/vkxgQISMDsXiEk4A4J4kayd4YXtt3ku4vMwy6hbPImSoSIAE3BGROtZehdNngRhphGdjk9yE7vcnuidJb8aqBvsjvTPF5rgnI+v5xX8HSK/vOvu+rAEa7ps8LSIAEQktgskfOUdYPkM2CvJwK5RSqLNoiG714MS/6CwCymQqP8BPomt6R0euNhbKdZhw+y+h+GY9TEv4iZgpJgATcEDjZsgCQUfIyLzkMjj+XQwuPBoh1zH0Q/w41AVng6q8+7DAYdef/RnoALh1/qM2ZiSMBfQIXWhQAV6XnNeunxp8r90vNx5bGzVYD3c+fZPMplgnIeJEzUivnyVgOW7YQh/s8lV7MiI7fssHxdiQQNgIykte00foqPbgvbHkrlB7Z48DWdLEOhR7E/4WeQIPUksLrfNwW17S+eXH9d+n6sFvoS4sJJAESsEZAVhkzaVCktxDlXfNk2VaTUeKyfTC3DrZmjoHeSNbSl5XsZMBgUqICUn9l++sgBukGWth8OAmQwP9tciNL3OqIAAn5V44BRBkcpruevCzxyiN+BGQKoayzL1EiGdeiUz/Ceo2slyHjdDrFr9iYIxIgAbcEjtBo4E4HID2muBwtUwv7vOySg0yflLXcecSbgCxxOwnAnwBscWkjYRABEt6XzYKWRTxaF28rY+5IICACsrOYzJd30ljJFKpVAaXT68dKGPRhhxx+AjDS6wTx/qEkIIvgLE1vQBRGQSCvLx5IL5u9L4CqoaTIRJEACYSGgLzHPrGCRXPkVcG40KTYm4TIngj/r4IpYvK6YJA3j+ddI0hAokeyLPSm1A5+N6RnmMhS0U4Etek5nwC4L73OxcLUzoN9OF8/ghbEJJNASAi0ByBrAzwLQBoXWcnv7+nNeWTVwKQcsp/7ueklhT9Ph35lCdRF7FElxQSM8ilCUtaHkJ0jxTGfAECm3N4I4EEALwJ4K/W/jwCIfcmPzKaR3zKwVP4ni2k9BuC21NbBlwOQ124SxpeBu7LKZX2jFPJiEiABEiABEiABEiABEiABEiABEiABEiABEiABEiABEiABEiABEiABEiABEiABEiABEiABEiABEiABEiABEiABEiABEiABEiABEiABEiABEiABEiABEiABEiABEiABEiABEiABEiABEiABEiABEiABEiABEiABEiABEiABEiABEiABEiABEiABEiABEiABEiABEiABEiABEiABEiABEiABEiABEiABEiABEiABEiABEiABEiABEiABEiABEiABEiABEiCBUBGoCmBXABMBrAdwJYAHADwF4E0AHwH4AsDnAN4B8BKAJwDcDuDc1PdHAhgOoDWA4lDljIkhgd8IiG2KjYqtLk7brtiw2LLYtNi22LjYuti82L7UgfvTdWJduo5IXZE6w4MESIAEIkdAGq/+AFYCuBvAjwCUpZ+v0/eUe/cGUBQ5OkxwnAjsDGABgGsAfGrJxqWu/JwWBycBGEZBECeTYV5IIH4EqgA4EMBNAH6w2BBWJBw+AHAygG7xQ8ochZRAdwCnANjio51/n4qi3QhgHIDKIeXCZJEACSSMgIQrzwHwmY+NYXmi4BkASwDUTlgZMLveE6gDYCmAZ0Ng5xJpOBuACBEeJEACJOA7gZ7psOf/QtAg5goCeU1wBoDGvlPhA+NGoH4qQ8ek393n2lkY/pZXbH3jBp35IQESCCeBvQDcF0Knn68x/gbAqQDqhRMlUxViAuL4TwPwbURs/R4KgRBbE5NGAhEnIE5UetW/RKRBzBYEMvJaRmVzBkHEjdCH5Mug0oMB/CeCdi7RuMtSsw8a+sCJjyABEkgAAXGaMso5DO/4s526zueH+N40ARarn0UZz/JIBB1/bl2QMQLzKXj1DYFXkgAJABIG/VsMGsTsBnJrqmDlnS6jAbTwDAHp9UuEyOZ01WybC+rzvRwHkyli/iYBEnBDYJDP05z8biRv5tgAN+YQ23Nlxsi1MRO52XXpYwD7xLb0mDESIAHrBNamFyLJbkji+FlWZutjnR5vGBUCuwN4L8bOP1NnZVGh1VEpFKaTBEggGAKVUiHD8xPQIGYaRvktMwX2CwY3nxoggaEAZLpoti3E/fOfAJQEyJyPJgESCCkBWclPljONeyOYL3/y7ndKSMuFybJPYCqAnxJq67JSJ/cZsG9TvCMJRJZA9fSGJPmcY1K+k+mNiyJbgky4UwJHAAjj4lV+1jPZfEjqPA8SIIGEEyiN4Uh/3cZUHMPshNtDnLM/jc7/1wifLBwkUT8eJEACCSUgU+Fka15dh+nqurIaNVWbbj1Vr31GqiHT5qixR6xQk1cfr2Yc83s1e9OpatamU9XUdZvVxBUb1eiFi1X/A6eorv33Vo3btFPFlUpcPcsgTxIa5piA+FWIUQBkCqjndlRaWqp67rGHmjx3nlq5+SR17l+uVdfc/6C6+fGn1L0vv6bue+U1dfszz6kbHn5UXXzzreq4M89Wc45covYeOUrV3Wknz9OXxeBy7qYZP0NnjkjAKQFZ6tTTBqdB85aq7wET1EFHrVcLTz5PLTzlfK2fuSeeoUYuOFJ17T9YlVWv4Wma0wMD93AKkeeFnkA/r5f0FcctDv+sq65W/3jzbfXklo+1fp744CN11T33qcUbNqoOXbt5bedyf9nVkAcJkEDCCMzyyvmXVK6iug0cqiYevUHL2VckEub//mw1fPahqtkuHb1sIGWrVy6pGv1KIRtCfeSVre8+YKA65U+XqkfffV/L4VckFK6+9wE1ed58VbVaNS9tfUb0i5k5IAEScEqgc7qXa7VRqVxWti28P/O4kz1x/PmEwdgjV6qWnTzrKd3JFQOdmlQoz5NXXPKu26qdy/0G7LOvuuS22z1x+vlEwd0vvLztNUG1Gp5Ev/4LoGMoS5CJIgESsEqgzIs9zVt17qamrT/RN8efKwb2P3SpqtuosfWGPjVdbI1V+ryZnwQ22nb+LVq3UWdecZVvjj9XDMjYgZETDvLCzl8AUM3PwuGzSIAE/Cdwgc1GsVqt2mrUwsWBOf5sITDvd2epHkNGqKKiIpsNpAwc437r/tup6RP721zNsri4WM0+crF6+O33AnP+2WLgzCv/rOo3bGTTzuVe55pC5/UkQALhJbCXzWlQzdp12DaCP9sJh+Hz6EOXqmo1a9lsHKV3JNMleUSDgKx295wtoSsD/ILs9Wc7/uzPdz3/kuq79xCbdi5rYVDsRsPGmUoScEXAaqO46+B91AKDUf1eC4XpG05UtRtY7SEtdUWbJwdJ4Ghbzr9dx07qb08/E4pef7bzz3x+/P0P1fi582yKgH8CkCXBeZAACcSIwDIrjWJRkdpj1LhQhPwrEhHjVx6r6rdoZatxlHXjm8XIHuKalRYAZFCbcbl37dlL3fPiK6F1/hkR8MDb76uZK9eoouJi4zynuclqiTxIgARiQmAnWxufDBg/JRLOX8TBtONOVmOP3qDqt2htq2G8JCb2EOdsWFnYqlffvuqht94JvfMXEfDQe1vU1S+8quasWW/Lzr8EUDfORsK8kUCSCBxno0fUZ/j+kXH+IgBmHH+KGr/6eHXAsnWqTqMmNhpH2Va1XZIMJ2J5bWtjtT8J+8uKfZkedth/P/Leh9sEgIiACYcebsPO5R4bIlb2TC4JkEAeArUAfG4qADru0T9Szl8EwMGbTt0mAEQEjDpihZKliE05AJBZFDzCSeBC0/Jt2KSJuuOZ5yPj/EWcPPb+bwJARMDgsQfasPPPUqsE1gxnMTNVJEACTgmsMm0U6zVppuaedFbkBMDME077VQCICBg0fa6N96SyV0BLp/B5nm8E5N2/bOus7fwqlZSoP95wU6ScvwiAJz74+NcIgAiAy596TrXu2EmbQxZDGUzJgwRIIKIEZOqa0TKopVXK1ORVx0bO+UsEYObmM7YTACICugwcaqNh/H1E7SHOyT45y3FplfGiVWsi5/wzryeufvHV7UTAqTf/TZWZLx/8IQCZPcSDBEggggT2N20U+405KJLOXwTArM2n7yAADlx1rI3xALJPAKdKhadCiJMyErodu3VTj7+3JcIC4LXtBIBEAqYvX6ElhHLajJHhKWamhARIwA2Ba3Iqs6sGQUL/839/TqwEgEQBhsw6xMZqgcPdFATP9ZSAbPXryrazz5dV/i6+5bbIOn+JAlz94o4C4MpnX1KtOhhvmPVnT0uONycBEvCEgEzj+T67oXP7+YBFR0XW+ZcXARABID+tuvXQdhhpjjLdjEc4CFzt1razzz9g8pRIO//yBIBEAdZfdKmpnX8HoHY4ipmpIAEScEpgfnYj5/Zz07btI+38KxIAwxcuUUVFRgunfAugutPC4HmeEZCR6tpCVwb+3fjIY7EVACICOvbqYyoCZntWerwxCZCAJwSudev0s88fHZINfsSR6/7kGwOQiQDI7xadjbcRHuFJyfGmbgiMzrZbt59HHDg+8s6/UARABMDq8y80FQB8DeDGInkuCQRMoAjAJ24bw8z59Ro31Xa6us7ai+sqEgB7z1xo2jByNkDAhp6aq35Kxm51fl92+12xFwAiApq3bWdi6x8DkDaFBwmQQAQI7KrTGGau2XP/8YkQABIFqLlTA5OG8ckI2ELck/hMxm7d/m7Tvn0snH9FEQARAFOWLDOxc7m2a9wNifkjgbgQkJ3rtCp8UVGRmr7hpMQIgC6DhmlxSvOVpYG5ZnpwtaYeANnCVqsMj1i7PjEC4Nx7/66KiytpcUrzPTK4YuaTSYAE3BDQ3hClUeu2sXD+8kqholcAEgHYd8GRJo2iXDvUTcHwXKsE9tF1/nLdDQ89khgBIFGAdt13NbH1y62WHG9GAiTgGYGndRvGXvuMSpQAEBFQtWYtk4bxMM9KkTeuiIBsW6tVdg0aN4mN83fyCkAEwNh5C7RYpRk/UVFh8P8kQALBE5DBOtr7oe9/6NLECYCWXYx6RmcEX+SJTcHZugJg1ISJiRMAa/94sYkA+IoDARNbz5jxCBFortsooqhIzdl8euIEwK77jDRpGO+MkG3ELal369r60Zs2J04AXPzokyZ2Ltc2jZsBMT8kEDcCe+s2ivJ5rIkAACAASURBVNVq1Y6N83c6BkBeAfSfNNOkYXw7bgYUofy8o2vrZ//5L4kTAPIaoE79+ia2PihCtsGkkkAiCYzXbRSbtuuQSAEw4lCjKVJfJtLKwpFp7VddtzzxdCIFQKfeu5kIgHHhKHamggRIoDwCM3UFQPvd+iZSAMgOgUCRbsMo09C4SEp51ujd98JcawqgTHV9/P0PEykABuw/RtfO5bqDvStO3pkESMAGAe2R0V37D06kAJDXAJVKS00aRu4JYMNy3d1D9gDQKrNq1avHyvk7nQUgrwD2nTxVi1ma9SJ3RcSzSYAE/CawWrdh7Dl0RGIFQFn1GiYNY2O/C5nPQxNdO6/fsFFiBcCYuUZTAVfR7kiABMJN4HjdhnG3EQckVgBUr1vPRAC0DbdJxDJ1wlyrzJq3ap1YATDx8MVazNKspW3hQQIkEGICFADpHQSdrAQo4X/5qWEmANqF2B7imjRhruXMWrRuQwGgx44CIK61ifmKDQEKAAqA2BhzgYxQAGz5+Fchc/WLryl5x1/RDyMABSyK/yKBGBCgAKAAiIEZV5gFCgAKgAqNhCeQQNIIUABQACTB5ikAKACSYOfMIwm4IkABQAHgymAiejIFAAVARE2XySYB7whQAFAAeGdd4bkzBQAFQHiskSkhgZAQoACgAAiJKXqaDAoACgBPDYw3J4EoEqAAoACIot26TTMFAAWAW5vh+SQQewIUABQAsTdyABQAFABJsHPmkQRcEaAAoABwZTARPZkCgAIgoqbLZJOAdwQoACgAvLOu8NyZAoACIDzWyJSQQEgIUABQAITEFD1NBgUABYCnBsabk0AUCVAAUABE0W7dppkCgALArc3wfBKIPQEKAAqA2Bs5BwH+tg/Ak1s+VtwLIAkmzzySQMUEKAAoACq2kuifwQgAIwDRt2LmgAQsE6AAoACwbFKhvB0FAAVAKA2TiSKBIAlQAFAABGl/fj2bAoACwC9b43NIIDIEKAAoACJjrAYJpQCgADAwH15KAvEkQAFAARBPy94+VxQAFADbWwT/IgESAAUABUASqgEFAAVAEuyceSQBVwQoACgAXBlMRE+mAKAAiKjpMtkk4B0BCgAKAO+sKzx3pgCgAAiPNTIlJBASAhQAFAAhMUVPk0EBQAHgqYHx5iQQRQIUABQAUbRbt2mmAKAAcGszPJ8EYk+AAoACIPZGzqWAuRRwEoyceSQBtwQoACgA3NpMFM9nBIARgCjaLdNMAp4SoACgAPDUwEJycwoACoCQmCKTQQLhIUABQAEQHmv0LiUUABQA3lkX70wCESVAAUABEFHTdZVsCgAKAFcGw5NJIAkEKAAoAJJg5xQAFABJsHPmkQRcEaAASAuAmZvPUONXH+/op0bdegqA7o84Ix7+EqAA2E4AvKqufqHin4mHL9a1cblO2hYeJEACISZAAZAWAAdvOs2R8xeRQAEQYovOnzQKgLQAePyDjxw5fxEIFAD5jYnfkkBcCFAApAXAlI2/owCIi1XvmA8KgLQAuP/t9ykAdrQPfkMCiSRAAXDK+WrOSWep8Wuchf8ZAYhkPaEA2PKxeuKDj9X1L79OARBJE2aiScA+gcQLAHH+E9ae4Lj3TwFg3wh9uGPiBYCE/m9+7U3Hzp+vAHywSj6CBAImoC0Aeu0zSs058cxI/sw+6Uw184TT1dSNv3fl+DODBDkGIGCrdf94bQHQrHVr9eA7H0T2R0L+d775trr2pddcOX8KAPdGxitIIGoEtAVAl4FDtZxnxolG+TcFQNTMHNoCoHHLlq4dp5MR9lE4h4MAI2fnTDAJuCJAAeBw6l+2YKEAcGVjYTiZAsDBtL9cUUIBEAbTZRpIwDsCFAAUAN5ZV3juTAFAARAea2RKSCAkBCgAKABCYoqeJoMCgALAUwPjzUkgigQoACgAomi3btNMAUAB4NZmeD4JxJ4ABQAFQOyNHOAgwNz3+07+5hiAJFQN5jHJBCgAKACSYP+MADACkAQ7Zx5JwBUBCgAKAFcGE9GTKQAoACJqukw2CXhHgAKAAsA76wrPnSkAKADCY41MCQmEhAAFAAVASEzR02RQAFAAeGpgvDkJhJ1AEYBdAEwDsAnApanPb+jua19Wo6aq27hpIn+KK5WY7JN+N4BzAKwCsC+AumE3nAimT5gOTzMW1sJcq8xKK1dWO3fu4ulPlz32VIPGjFVH/O4UddlTz/q68uBVz72kVpx9vhp20CS16179t8tn3YYNtZilWUvbIm2MtDVT021PBE2JSSaB6BIoTjuZCwB8pNsI8jo95+GQ2/8APAFgdarBbBNdUws85W0BrAXwJABhauK8Aru2XqPGavkZZ/siAjZd+RfVot0ufub1QwDnAxgGQDokPEiABDwgUBXAYpMeflQb0Iin+xcAtwAY7IFNxPWWewO4DYCw89OZefasoqIiNWv1Ok9FwMpzzlelVap4lgcHZfE6gCMBlMXVMJkvEvCbgKjquQA+cFABg6z8fHbFzup2AN38NqAIPW9XAHfF1c6Liyup9Rde4okIOP22u1TV6tXDUgffAzCLEYEI1TwmNZQEdgZwf1wbxITm68dUOHsDgNJQWlwwiaqcchbHAvgp7jbRsn0H9efnX7EuAvbcd0RYnH92Ou7lK7BgKhSfGn0CowB8GfcGMcH5exhAk+ibqXEOmqYG9z2aJDvYdNU1VgXAhQ89ripVqpTteMP0+WsA44ythDcggQQRkMFjkR30lKTG3DCvWwB0T5Bd52a1JwAZRBYmh+V5WqYvX2FVAMi7/5AzlLEcR+cWPv8mARLYkYBMsQl7hWb67JXRZwD67GgGsf9mt9SAsc+TaOsHzJqt/vrqm9Z+Dt90YlTqo7zm4UECJFAOgZVJbBCZZ4gI6FCOTcTx645Jdf5i6/OXHaWe3PKxtZ/N510QFQEg6TwqjgbNPJGAKYEJcZr2RKfuOorzJoCdTI0oAtc3APBWku1DHLZNAXDVPfdFSQDI64ADI2CnTCIJ+EZARvt/leRGkXnfJhhu8s3ignmQTGmVNRGi5LCsprWsalV1/6uvWxUAIiZatG5jNZ0el5EMbm4djAnyqSQQLgKyst8jHle4KDUOSU/r/HCZp9XUHJJ0O5995GLrzl8EwLFnnBW1evMPANL28SCBRBOYl/RGkfnfrkcsA+Pqx7BG1APwaZLLulP37uqht97xRAA88cFHasS4A6MmAmSxIB4kkFgCNQH8O8mNIvO+nfPPNOBnxrBGnJvkst5j4CB170uveuL8M+MJHnnnfTVmytSMDUXht+xlUj2Gts4skYAjAkuT3Cgy73mdvzTc3wNo5MiConGSLHj0Q9LKu7i4WHXr1Vsdf/a56vH3P/TU+WdEgPw+5+prlAiOkpLSKIgA2TuABwkkjkAJgHdtNYo16tRVXfsPVntPmaVGLVysDly6hj8eMxi3eKUaPucwtde4yapVl+6qpNRqg3t8jGrECbbsvEpZmRq473B19KbN6tRLLlN/uvVv6rLb7wrdz9X3PqDue+U135x+tgDIfP7Hm2+rax74hxU2Z//5L+qYM85UE2bOUg2bNLEpLN4GUClGts6skIAjArK3uXFFqlm3nhoydbZacPJ5auEp5/MnQAYzj/2D6jpgiCq2syyrbKgSh0FSkgfjjaykNzt53nx19wsvB+pUM841yb8lmiFioFHTpsbtV7oN3MdRi8mTSCBGBC41FQDNO3RWszedSqcfoNPPJ7oOOGyZKqtew0bjODAG9j7E1M7r1Kun/nj9TXT8FhcPsiFg7n35tW2vGkzLF8BFMbBzZoEEHBOQ+dD/Mak4LTp2UfP/cC6df8icf0YQTDx6g6pcVmYqAn7n2KLCe+LJJnZevWZNdc39D9L5h8z5ZwTEY+9+oPYcNNjUzj/m1sHhrcBMmX0CXU0axZr16qvZJ5xG5x9S558RAcNnH2LaMD5m3/R8v+OTJrZ+yp8upfMPqfPPiACJBDRp3tzU1jv5bpl8IAkERGCuSaM4dPo8Ov+QO/+MCGjevpNJw/gTgMoB2aiNx1YBsFXX1vsO3pvOP+TOPyMCjj/rHBM7l2tn2zA43oMEokBAQrtaFUZ6/ws54C8yAmj/Q5dqlXOWfUR5kyDp1Wnn/4LrbqQAiIgAkIGBhlGAE6PQcDONJGCDwHW6DWP3gUMj4/wyveAk/5ZxGmXVq2s7QQAjbRhcQPcYrWvndXfaST3+3hYKgIgIAIkETJ47z8TOrwnIRvlYEvCdwD26DeOwGfMpACIS/s8InxYdOps0jNN8t057D5yha+f9hgyh84+Q8xcBsOmc80zs/G57Zsc7kUC4CTyu2zCOOfwoCoCICYCOu/czaRhlA52oHodp2/mUqRQAERMA8spGt7wBxGHAa1TrKdPtM4FndCvKhGVrKQAiJgC6DRxq0jAu8dk2bT5O0q6V9ynzF1AAREwAXHHn3VplnbYRaRN5kEAiCFAARMyJZ8L5Or8pANyLgKnzF1IAUAAkwhkwk8kjQAFAAeC0t5TICAAFwMeRE0CMACTPkTHHegQoACgAKAAKvB6gAKAA0GtaeRUJhJ8ABQAFAAUABUDkevmZhX/y/WYEIPyOhykMBwEKAAoACgAKAAqA32xA2kQeJOApgcYAJqX2n5a91q8EcCMAmX/q98/XuqOjG7Zso5q178SfCDGoUbeeU2ef77zXArBPW/VB0p4vTxV+17hZM7X7gIH8iRCDrj17VViuBexB2kRbdufmPuIDrkhtvX0cgIkAxEfwiBGB6gAWpVZUe6KA8ZkYLq/VbORZHnrOkdzIjTbgqQ3IOi2yhoX4Dh4RJVAKYHnK+X/CyuJpZaEAogCiDdAG4mgD4juWAiiJqA9MbLI7A3iOjp+OnzZAG6AN0AYMbeBZANyuOCJyYiyAbw0LPI5qlnliL402QBugDejZwDcADoiID0xsMmXjlJ/p/Kn4aQO0AdoAbcCyDWwFMDWx3jXkGR8B4CfLBU61rKeWyY3caAO0gTjagPiYfULuCxOXvOYAPqXzp+KnDdAGaAO0AY9t4DMArRLnZUOc4ds8LvA4KlnmiT002gBtgDagZwN3hNgfJippMuiPRkwGtAHaAG2ANuCnDYxOlKcNaWafpACgAKIN0AZoA7QBn23gaQBFIfWLiUhWP58L3E91yWexN0MboA3QBsJtA3skwtOGNJPnUABQ9dMGaAO0AdpAQDZwVkh9YyKS9WZAhU5VHm5VzvJh+dAGaAN+2IBseMUjAAKN6Pyp+mkDtAHaAG0gYBtoEID/S/wjB5kUeu02u6h+x5+rRlx6R6R+ei/fpK1qd9ullrprUw/tnzMW7qL97DptOxpxHnDShdrPblG/inaehdfVK7toP7tK7XpG+Y6afdpMr7DTreNSZia2Ljaj+2yxVRMOUld0ny111CTf0kboPrvPUScY5duEWfa1e19yhyq6wOHPunMVWrTVznOa1YDEe+MAAEzWNdSyuvXV1Mc/VHPe2Bq5n30vulXbWIf3rqd+uXVv7Z+HT+6t/eyGPfYwYj3+zhe1n92xeTXtPAuvLZfvpf3sqg0aG+U7ijZqK83CTreOS5mZ2LrYjO6zxVZNGEhd0X221FGTfEsbofvs4RffZpRvE2bZ1055fasqetbFz31bFGrvpJ1vABMD8H+Jf+Q8XUPdefSkUBhqttE6/UwB4D7cSQEQPaEr9YECwL2tUwBsVa4FwLNbFYZPNBEA4ot4+EzgEF0B0HHKAgoAjUgAIwDuG2RGAPTFBwWAe3ujANAUABPmmwgA8UU8fCZAAeBylC9fAei9/uArAH0n7jSyle88CgAKgHx2UdF3WhEACgCf3bf54ygAKAAcqXa+AgjGgVfUUFf0fwoACoCKbCTf/ykAzJ1rFO5AAUABQAEQwYGs+RrtfN9RAFAA5LOLir6jAIiC+zZPIwWAWwHQp7765fYR2j8Pn7anI4ebb2xGoLMAWlTXzrPw2nLV3tr5FidWUYPF/+ePUBgJgKv2Nirzji2qa5d5oLMATtvTKN/D+9TXzndkZwHIIEC+AjD3yD7fgQLApQAYsXsL9b+/z9f+eeS8MdqNQ6ACoGUd7TwLrw9vnKadbwqA/M7diegxEQBSZia23rFlHe0yD1IASB01ybe0EfkEvJPvKAB89oAJfxwFAAWAo8ZKGnOTRpECQN+JO3H05Z1DAeD+FQAFAGcBJEUXUABQAFAAcAxAXhtgBEAv0scIgHvRBUB8EQ+fCVAAUADkbfxzw5WMAATTgy+vZ+/0e0YA3DsjRgAYAfDZDwf2OAoACgAKAEYA8toAIwCMALhZDpiDAAPz49oPpgCgAMjb+DMCEM0ef25kgBEARgBybcLJ35wGqO1TI3VhIgXA8Etud+T0cp2g/D2qb0ujwXCcBeC+QRYn5qTR4jk7ihYKAPf2xlcAfAUQKS9ukNhECoCxt/xTWwDMHdWBAkBjGiRnAezonP0QLBQAFAA6dsYIgIFXjdCliRQAM1/6RpVWr6klAs5d1p8CgAIgMhEJCgAKAAqACHlkn5OaSAEgFaLduBmuBUBZ5UrbFrQxmQ/PVwDuG2S+AtCPHlAAuLc3vgLgKwCf/XBgj0usADjovtdVpbKqrkTA6uk9jHr/IhwoANw3yBQAFABue7Gyama+MTxOvqMAoAAIzCP7/ODECgBpUPY+/UpVVFzsqKEY0qup+vHeuRQAGuF/ET4cA6DvxN06v+zzGQFwLzgpACgAfPbDgT0u0QJAGsp9/niTKqtb/uYdRUVQs/drr767e46x82cEwH1jLD02RgD0xQMFgHubowCgAAjMI/v84MQLABEBM575TO224kTVsOeeqkrteqpyaYnauWlNNW90R/XY+WOtOP7MuAG+AnDfIFMAUABkRzWcfOYrAH2bEb6cBeCzJw7ocRQAeVaBe/PRzVadfsb5MwLg3vkzAmDWkDMC4N7mGAGgAAjIH/v+WAoACgBHYyC4F4CZI3bSa/XiHAoACgAdu2IEwHdfHMgDKQAoACgA8tiATqMZxmsoACgAdOySAiAQf+z7QykA8jT+fAWwY6PJCAAjANmvspx8FptxMu0u3znj73zRaLEljgEws1cKAN99cSAPpACgAHDUSFMAmDWoOr0wG9cwArCjmM0nOLK/4xgAjgEIxBsH8FAKAAoACoA8NmDD+YbhHhQAFAA6dsgIQADeOIBHUgDkafz5CmDHRpMRAEYAnIT9s8/hK4Ad61F2pCHf5+EX32b06kPH2ee7hgIgAG8cwCMpACgAGAHIYwP5GsUofscIgHsnzFcAfAUQgC8O5JEUAHkaf0YAdmw0GQFgBCC7d+/kMyMAO9ajfL3+7O8YAQjEDyb2oRQAFACMAOSxgSj29vOlmREA906YEQBGAJKiCCgA8jT+jADs2GgyAsAIgJNef/Y5jADsWI+ye/v5PjMCkBTXG458UgBQADACkMcG8vWmo/gdIwDunTAjAIwAhMM9e58KCoA8jT8jADs2mowAMAKQ3bt38pkRgB3rUb5ef/Z3jAB47/T4hN8IUABQADACkMcGotjbz5dmRgDcO2FGABgB+M1FxvsTBUCexp8RgB0bTUYAGAFw0uvPPocRgB3rUXZvP99nRgDi7XDDljsKAAoARgDy2EC+3nQUv2MEwL0TZgSAEYCwOWqv0kMBkKfxZwRgx0aTEQBGALJ7904+MwKwYz3K1+vP/o4RAK9cHe+bjwAFAAUAIwB5bCCKvf18aWYEwL0TZgSAEYB8zjKO31EA5Gn8GQHYsdFkBIARACe9/uxzGAHYsR5l9/bzfWYEII5uNrx5ogCgAGAEII8N5OtNR/E7RgDcO2FGABgBCK/LtpsyCoA3tqrp//xU9Tl6s2rYYw9VpXY9VaVyidq5aU01b3RH9eh5Y1R2r8b0szQu+ZS/k+8kfSZOaPydL2o/mxEARgDc2j4jAO7FByMAdh0c71aYQOIFwLALblRV6uxUrmMsKoKaOaK9+u7uOVaEAAWA+0ZRerEmwifJ1zIC4N7eGAFgBKCw24zPfxMtAPY+/UpVVFxcrvPP7pUP6dVU/XjvXGMRQAHgvkGmANCPPlAAuLc3CgAKgPi4+MI5SawAOOje11SlsqqOnH9GCKye3oMC4O/ztRh8eOM0V6wzzOU3BQAFgNsojrwuy7YhN58pACgACrvN+Pw3sQKg3bgZrhuIssqVlDgyt+9Cs89nBMB9j4wCgAKAAkDfBtyyk/OnvL5VFT3r7gcT5rtuU7OEmfgiHj4TSKQAmPnSN6q0ek0tYz1n2V4UABpRAEYA/G3AM40+XwG4F5yMAFAA+OyHA3tcIgXA2Fue1nL+olbnjOxAAUABEJlBiRQAFAAZMejmNyMAgflkXx+cSAEw/JLbtQXAqL4tKQAoACgAHNgApwG6Fx+cBuir/0v8wxIpAPa96FZtATBi9xYUAA4a/+xxD/KZrwD4CiDrfW+F9U/WrHDTY809l4MAzeyNEYBkaAMKALhT6RQAnAWQ62zC/DdfAbir3yJSOAaAYwCS4f4BCgAKgAp7Y9IociVAsx5VUCKBAoACQMf2GAFIhgSgAKAAoADgXgB5bcB0yivHALgXHxwDkAzHG5ZcUgBQAORt/HPf1zICwAhA7riOiv6mAKAAyG1HCvwtvoiHzwQoACgAKAAYAchrA4wA6I13kXFCBRxdwf8xAuCzB0z44ygAKAAKNkiZhowRAEYAKurx5/6fEQBGADLth4PfjAAEIEYoACgAKAAYAchrA4wAMALgZjlgLgUcgAc3fCQFAAVA3sY/V7EzAsAIQG4Pv6K/GQFgBCC3HSnwNyMAhs5c53IKAAoACgBGAPLaACMAjAAwAqDjVqNzDQUABUDexj9XqTMCwAhART3+3P8zAsAIQG47UuBvRgAC0A0UABQAFACMAOS1AUYAGAFgBCAAr+zjIykAXAqAob2bqc9uPVj7585TRuZtbAso41/Pl/XNdVb1ylwj66s7eU6+c3ZpXls7z8Lrlcsnaj9bVrPL5IG/3UUiTFYClDIzsXWxmXy25OS7IPcCkDpqkm9pI5zkMd85nAboo/fjo7gUcL5KGNbvghQAQTKhAHDn9LNFkokACLLMgxQAQeabAoBe2U8CjAC4jAAE2ThQAOg7wmynmKTPFADu38MHWccpAPx0f3xWIgXAiEvv0A7RBdk4NOqzl1EofMI9r0Yy39UbNzfKd5Icfm5ehV2QNqv7bLHV3Ly4+Vvqiu6zg7xuxKV3GuXbDaNC53IzoGSIg0QKgHG3PhPJxqHNfhOMGocZz30RyXzX797HKN+FGrq4/69+116RLHOxVZOyaT38wEjm+8DbnzfKtwmz7GspACgAClagjlMWhMJQs43W6edpT35cMG9B9gAKPbvzwYcbMy+tXjNyeW85dH/jfDu1jbid12LvUZEr79IatYzLu/OMwyKXb6n70576j3HebdgwBQAFQMEKFGUBIBWkdptdCuavkCMO6n+DT7vcuHFo2m9o5PLde/km43zbaBSjeI9eS4+NXHk3G7CvcXkPOvmSyOW7Vut2xvm2ZaMUABQABStQ1AVAt3nLCuYvKCdf3nOLS0rV9Kc/MW4g9txwRqTyLTwOvOMF43zbahijdp9xtz0bufLud+zZxuUtdaW4tHKk8t594QrjfNuyTwoACoCClSfqAmDsLU+rouLignkszxkH8X3rEeOtNA5THnlflVStFpl81+/W20q+bTWMUbzPTl16Rqa8S6pWV1Me/cBKmbfed1xk8i1tkYxNCot9UQBQABSsPFEXAFLR2u4/pWAeg3D0+Z5ZVKmS1V7wroeuikS+hYXM2AhLoxjVdOx3+d2RKe8ei9ZaK+/xd72kiiuVRCLv7cbNsJZvG3ZKAUABULDixEEATHzgTVWldt2C+cznkP3+Tl5X2KjUmXvMeOYzVaNZq9Dn21bUI5PvJP+OQm+4ZvPWasazn1u19a5zloTezqvUrqcmPfgvq/k2tXUKAAqAghUnDgJAKon0MMPcS5BBe7Ne/d564yDTjWS0td9ixunz6rTrpESomDZkvP7/Fk+SaXV1O3QNbXmXVqvhSQhc6k7TfkNCm29pe8Iy9z+7rlAAUAAUrDRxEQBi9INOuVRVqlylYH6dOi6b5zXefaCn04JE/FSuVSd0+a7bvoua+Pe36Pwtb1IkEa+6u3QOXXlLFG6/y+7yrLxlal2jPv1Dl+9KVcrU4NOu8Czf2Q7d7WcKAAqAghUmTgJAKsfoa/6hqjXS38TDpuNHUZHqOHWhmvXKd543DvKetE7bjgXL2mreKlh6WULVtsPAbhu/OJ8vUZWWww4ITXmLIBl/18ue2/msl79VHSbPU1K3/LTn8p5VvUkLtf91D3ueb11bpgCgAChYUeImAKSiHPz8l0rmTQcZGm+yxyC1//WP+NowiNDou/FMVbV+o4JlXl5jZuP7ep12VWFZB1230YzSdftedKuq17F7YOUtexTIdD8/RG52uYy+9iHVeLcBgeW7cs3aqvey49XBz3/lax3PZuDk8+TXtyo3WwHLuZgw34SrrErLw2cCiVwKuKIKMPOFr9Ww829Q7SfOUbKmeM2WO28bLCihSps/4nClEZbV2nZbeZKacPcrgTYK0hjLa4HOBy9S8vqhdpv2VvObYVdWr4GSMH/zgcNVzyM3qLE3PxVoviuyhzj/f8xfn1Q9j1ivZPEdKRMpm0w52fwttiQ2JatZio357fhzy1CiDrutOHFb3ZM6KHXRZn4z95K2Q9qQDpPmqmEX3KikbclNSxj/Hv0qBYDPvjiQx1EAWH7PGsbKzDRxF0HaAG3AjQ10f4kCIBCP7PNDKQAoACLRI3HTePFcOjvagL4NjHttqyp9jgLAZ18cyOMoACgAKABoA7QB2sA2Gxjx6lZVTcP5cwxAIP7b+KHaAqDBpAWqz8tb+UMGtAHaAG0gwjbQ++WtquuLW1WDF9z3+rMHCnIQoLE/9v0G2gIABy1wsvlXnQAAArtJREFUPUo021j42ayykR/50QZoA2GyAQoA3/238QMpAJ5lIxKmRoRpoT3SBqJpAxQAxv7Y9xtQAFAAMJJDG6AN0AaMbYACwHf/bfxACgBWfOOKzx5bNHtsLDeWm00boAAw9se+34ACgAKAAoA2QBugDRjbAAWA7/7b+IEUAKz4xhXfZi+C92KvlDYQTRugADD2x77fgAKAAoACgDZAG6ANGNsABYDv/tv4gRQArPjGFZ89tmj22FhuLDebNkABYOyPfb8BBQAFAAUAbYA2QBswtgEKAN/9t/EDKQBY8Y0rvs1eBO/FXiltIJo2QAFg7I99vwEFAAUABQBtgDZAGzC2AQoA3/238QMpAFjxjSs+e2zR7LGx3FhuNm2AAsDYH/t+A30BACjwhwxoA7QB2gBtwNwGxBfx8JkABYC54bLykyFtgDZAGzCzAQoAn52/PG4ee/GMZNAGaAO0AdpAwDYgvoiHzwQOCLjQqZrNVDP5kR9tgDYQBxvY32ffx8cB2I0CgMqfNkAboA3QBgK2gV70yP4TqAbg24ALPg7qlXlgL4w2QBugDejZgPgg8UU8AiBwEwUA1T9tgDZAG6ANBGQD1wfg9/jINIGDAip0qmU9tUxu5EYboA3EyQbG0xsHR6AIwJMUAVT/tAHaAG2ANuCzDTwBQHwQjwAJDACw1eeCj5OCZV7YI6MN0AZoA+5sQHzOXgH6PT46i8CRFABU/7QB2gBtgDbgkw0syvI//BgCAif4VPBUyu6UMnmRF22ANhAXG/gfgOND4O+YhDwEZgD4jkKAvQDaAG2ANkAbsGwDMuVvah6/w69CRKAZgAsA/Gy58OOiYJkP9sZoA7QB2oBzG/gFwDUAWofIzzEpFRBoCkA2abgFwEsAvqQgYI+ANkAboA3QBiqwAfEV4jNuBrAw1aFsUoGviey//z89AjsQhJiJMAAAAABJRU5ErkJggg==;" vertex="1" parent="1">
          <mxGeometry x="360" y="350" width="76.5" height="76.5" as="geometry" />
        </mxCell>
        <mxCell id="yqI1gPK7mimHnNKxgcp7-6" value="" style="shape=image;verticalLabelPosition=bottom;labelBackgroundColor=default;verticalAlign=top;aspect=fixed;imageAspect=0;image=data:image/png,iVBORw0KGgoAAAANSUhEUgAAAgAAAAIACAYAAAD0eNT6AAAAAXNSR0IArs4c6QAAIABJREFUeAHtnQeYVEX29t8ZZmDIQXJGkAySDCBJQEFAAUEykkFFJSk5GBDdXXN2P3XN65rXsOawrjmsOesaUXfNrhnd+vrw79am6em5t6pufu/zzDM9PTdU/epUnbfOrQDwIIHkEGgMYAqAMwHcBeBNAJ8D+BnA9wA+BfASgBsBnABgOIDqMcBTF8BYACcDuA3Aq+l8/whAheBnazo9b6f5PwHgbgCXAFiT+u6gVJnsCqBaDMqCWSABEiABEvCJQC0AhwB4WNPR/QDgegBjAFTyKc02HlOWEjjT00JHBE4YHL1pGv4H4B0AVwCYB2AXG6B4DxIgARIggXgRkF7vcQC+sOj8XgcwJ+RCoCqA5QA+tJhvU8ft5fVb0oJAIjuMEMSrDjM3JEACJOCKQBGAmQD+7aED/CeAPVylyp+TRwH4l4f59tKR27j31wAuAzAi5CLNH2vgU0iABEggQQRqA7jGJwf4C4CTQuJopNd/gU/5tuGo/bjHxwB+B6BpguyfWSUBEiCBRBLomOr5yyAyP5xL9jNuTw2uqxEg8SYAJCKRnSZ+/o2HjOH4fwDaB1hGfDQJkAAJkIBHBPoA+CRAJyij1nfyKG+FbrszgLcCzHeUhIZEbK4D0KMQUP6PBEiABEggOgQ6p6fvBe2MRAT4GQloCEAGJQad76g9X4SAjBNoEB0TZ0pJgARIgARyCYgTfC9ETvCW1MyD4txEevC3vPN/JkT5jpoIkPR+lhooemhIxnB4YCK8JQmQAAnEl4A42jtC6ARX+YBc3mlH0emGMc0ipHr6UGZ8BAmQAAmQgCUCR4bUCcqqdrJqnVfHASHNdxidu9M0yUDBJQBkCikPEiABEiCBEBOQJX1tLvDj1FE4PU9WHfTCmUjoP8nz/J3y1z1Plh+WWRU8SIAESIAEQkrgvAj0gid4wG5lBPKt63zDct1HAIZ4UHa8JQmQAAmQgCEB6f3Lxj1hcRjlpeNZy1EAWds/Kcv7lsfUr+/lNc4CQzvl5SRAAiRAApYJHBsB559xVIMs5n12hPKdyX+Uf8vGQ+stlh9vRQIkQAIkYEBA3qtbeQe+V8tW6oL9D1SvHXmU+mbtcerzVRvV04ccqU4YOly1rlPXluO60CCvuZfeb0MAdG3YSJ06YrR6/rAl6qs1x6pfjjkx8J8fN5ygPl25Qb21ZIV6YdFS9eCcQ9TFYyeo1QP2VhO6dFPdGzVWlYqLbZWJ2/tIGZbkFgb/JgESIAES8JeArPjntgHf7vzaZWXq2onTCjq979YdrzYMHqqKi4q2u1bj2TLX3MYWwrLegSxgo52eKiUl6uxRY9RPG04omPcwCIJ8afhs1UZ189SZanm/Aap302baHDQZ3kQR4G9F59NIgARIIJfACs0GfJvDqFe12rYeZj4Hk++7yw+cpIpgLAJ652ZC4++JJvkW53/vrPmRdPz5ykW+e/3Io9RxQ/ZRnRs09EsMXO7TIk8a5sFLSIAESCD+BGSlPe0G/44Zc1w7wRX9B2k/L53WpRaK5SyTfJ+//zjX+S7P8Ybx+8cXLFKTuu6qSrx/TXCuhbLkLUiABEiABDQIvKHrCPfv0EnLCcp78sY1apqIgD9q5DP3EpmfrpWGHo2bqK0bN2vlPYzOvlCa3ly8Qi3ava+qWlqqxcoh4825hcO/SYAESIAEvCVQCuBnh430Dg7gtmmztJ2gvHfWfS4AGbxneryr+/xzRo3RznchZxvm/729dKU6qEt3kzKr6NqFpgXK60mABEiABJwTqK/rBCU0LAP7dJ3WnTPmVOQQCv3/eedZLPfMb3TzLu/KdfMd9evum7VA7dq4SaGy0f2fLB28W7mlxX+QAAmQAAlYJdBG1wk2q1XLyAm+csRyXUch171tSEE2PZI56a7TIAMYv1+/ySjvURcBMsVQZnR4MI1QdqEUUcqDBEiABEjAYwIddZygXNOxfgMjJ7jlqDWunW9WWmVpWZNDVgDUen5ZSYlRvqPu/LPTf+/M+ap5rdpaHAvwv8fSNE8T++C1JEACJBB7AhQALoUABcD2ixz9Z8V6Nah1G9siYHXsax4zSAIkQAIBE6AAoAAwjmjIK5Fp3XvaFAEyHkBskwcJkAAJkIBHBCgAKACMBYC8Fvh54+ZtywwXCO27FQj3Wt74yaMqxNuSAAmQQDQJUABQAFgRAJmxAesHDXXr6Audf3A0qxVTTQIkQALhJ0ABQAFgVQCIEFjSt38hp+7mf59wVkD4GxGmkARIIJoEKAAoAKwLAHkdMKdXHzeOvtC5p0azajHVJEACJBBuAhQAFADWBYBEAX5Yv0kNaNW6kGN3+r/vATQNdzVi6kiABEggegQoAEIgAB6cc4ia33t31bVhI9WgenVVt2pV45/61aqrnevW27Zq3wEdO2/b8vdPYw9Sby1Z4YnDz4wByP4taz00rVnLqaMvdN4p0ataTDEJkAAJhJsABUCAAuCL1ceocZ26FHJ8nvyvVZ06297TPzZ/kedi4P7ZC2zsKPgtgEbhrkpMHQmQAAlEiwAFQEACQJx/90aNPXHwbqbiybr+lx04cVvIPrv3bvPzMrONnzKMGAWIVtvC1JIACYScAAVAQAJgYldPd9bLOE3Hv9vW20ldN2m6JxGB/649btvrCDfCJM+5XwKoGvL6xOSRAAmQQGQIUAAEIAAeX7BIyaZCeZxc4N8Na7uLemfpKutC4Pbps23kbXJkahYTSgIkQAIhJ0ABEIAAsDhP3oZT3eEeMgjxLwdNtS4CRnfotMOzXIqgO0Nen5g8EiABEogMAQqAAARA3xYtTR2h59dLhEJW9ZM5/bbGAzy18AjTyMcvAFpEpnYxoSRAAiQQYgIUAAEIAHnf7rLnG9j5M3v0VlstioAxHTub5mVtiOsTk0YCJEACkSFAARCAAJBpeFERAJLOWT3tiQCJAhjm/YnI1C4mlARIgARCTIACIAAB0LpOXVMn6Pv18jrA1quAPZq3MEn/zwDqhbhOMWkkQAIkEAkCFAABCIA2daMnAGRMwPWWpgmeN3qsiQCQaw+MRO1iIkmABEggxAQoACgAHDvj2mVl6r1lq40jAbIIUrXSUsfPzfPK4NwQ1ykmjQRIgAQiQYACIAABIGv053FqkfhO9hWw8SrgoC5GCyG9EYnaxUSSAAmQQIgJUABQALgWHncdPNdYBFw4Zrzr5+aIpoYhrldMGgmQAAmEngAFQAACIErTAHOc7jan3adpc+P1Ad5dtspUAAwKfe1iAkmABEggxAQoAAIQALvsVN/E+fUCUNfBT1MAuwKYCOACAFvyOXPd7+6ZOc84CtChfgMTDgtDXK+YNBIgARIIPQEKgOgJgF00raoygNkA3tZ1+tnXyTt807EAc3r1MREAp2ty4GUkQAIkQAIAKAACEADtzSIAugIgY/C1AFyS7cx1PleuVEl9ufoYIxHwh31HmgiAOzIZ4m8SIAESIAH3BCgAkicAMlZyvI7jz77mhskzjATAbdNmmQgAiWTwIAESIAES0CRAARCAADB8991es6zzXXZptkN3+/mQ3fY0EgBvLl5hIgB+yJchfkcCJEACJOCMAAVAAAKgo9ngtw7OitbRWXVMBgf2a9HKSADIJkPFRUUmIqCmo1zyJBIgARIggR0IUAAEIAA6NWho4vRsCgAxiHVue/6Z8+uUlRkJABlEWKtKFRMWrXewaH5BAiRAAiTgiAAFQAACoLOZAJAys3mIE9V2wv9de5yRCGhWq5b2swHYFkM2ufJeJEACJBBqAhQALp1fWUmJkcOTXm/IBEARgG91RcCWo9YY8TCMhnQPde1i4kiABEggxAQoAAIQAF0aNjLp9XbywJ4+0BUAMpDPZD2Ank2amrCQRZF4kAAJkAAJaBCgAKAAKE2NA/hZVwD8Z8V6IwFgOCPCCzGkUY14CQmQAAlEjwAFQAACoKtZBKCzZTMboOv8i1Ckfli/yUgAGI4BaGWZBW9HAiRAAokhQAEQgADo1qixSdi7i2Xr1F4LoFWdOkbO38IsAO4IaNkYeDsSIIHkEKAAiJ4AsBkB2MMk/D+yfUcjAfD5qo0mQuh/AKokp6oypyRAAiRglwAFQAACYNfGTUwcX1dLJlAfwKu64X+5buPgYUYC4KmFR5hw+NgSB96GBEiABBJJgAIgmQKgAYBnTZy/XPvo/MOMBMB1k6abCICnE1ljmWkSIAESsESAAiAAAdDDLALQzbDsRwL4yNT5N61ZS8lSviZTANcNGmIiAP5qyIGXkwAJkECiCVAABCAADOe+6wiAEgD7AbjP1PFnrl8zcG8j5y/CYVjbXUwEwO8TXXOZeRIgARIwJEABED0BcCyABQ5+jgJwKgDpKX+dcdw2fpcUF6t/LVlpJAAkelC7rMxEAEwztH1eTgIkQAKJJkABED0BYOI0rVw7v/fuRs5fev+PzDvMNC22BkMmugFg5kmABJJLgAIgAAHQu2kzU+cX2PXVSkvVu8tWGQsAeYVgEI34HoCsYMiDBEiABEhAkwAFAAWAK0d8yvBRxs5fIgCGqyHer2nvvIwESIAESCBNgAIgAAHQp2lzV07XoKds9Tl9W7RUP204wVgAPH/YEtN0bWANJgESIAESMCNAAUAB4MgZN6pRQ72z1Dz0L73/w/fo5+iZBYRPfzOz59UkQAIkQAIUAAEIgN2btTB1gL5eX1ZSoh6cc4hxz1+c/3/XHqfqmI3+/xJAZVZdEiABEiABMwIUABQABcVE5UqV1M1TZ1px/iIAzhp5QMHnFej1Z66TzYt4kAAJkAAJGBKgAAhAAAxq3SbjzEL9u0blyuoWi87/+/WblOwg6MDJFzpnlKHN83ISIAESIAEAFAABCIBp3XsWcnCh+F+L2rXV04ccaa3nL73/c0aNMc3bFwz/s90iARIgATsEKAACEAAXj51g6gg9vX5spy7q3yvWWXX+X6w+RjWpWdM03WfaMXvehQRIgARIgAIgAAHw5epjlIyqNwyFW79eHPSl4yZadfzS85cfCyP/Jb9c/Y9tFgmQAAlYIkABEIAAEId4xfhJ1h24rqCQNfnXDhyivlpzrCfO/6mFR6hKxcWm+X3Aks3zNiRAAiRAAhwDANdOSabEZXq1pr+PG7KPKkKR6zToOvrc6zrWb6D+sO9IJeF507yUd/03a49TXRo2spHH8ayxJEACJEAC9ggwAhBQBCDjMG+YPEPtXLeeDQdZ4T2qlJSo/i1bq3WDhlgf4JfJT+7vRbv3rTBducIkz98vASi2Z/a8EwmQAAmQAAVAwAJAHOYP6zepuw6eq9YPGqpm9uitJnTppiZ27a5k1z3dnyV9+29z9NLDv2biNPXPQ45U36473rOefq7jl7+vmzTdVoRjEqsqCZAACZCAXQIUACEQAPmcZ9S/e2LB4ap65crs/dutr7wbCZAACVgjQAFAAWA9KiDbBTetWcuG85d7jLBm7bwRCZAACZDArwQoACgArAqAD49aqzo3aGjL+d/8q6XyAwmQAAmQgFUCFAAUANYEgDj/Tvac/48A2lu1dt6MBEiABEjgVwIUABQAVgTAG4uPVh3qN7DV85f7rPvVSvmBBEiABEjAOgEKAAoAYwHwyLzDbK9s+DSAUuvWzhuSAAmQAAn8SoACgALASADIvgZVS0tt9vy/B9D5VwvlBxIgARIgAU8IUABQAGgJAFnhb17v3Ww6/sy9Fnhi6bwpCZAACZDAdgQoACgAXAuA+2YtUO13qp9x2DZ/X7qddfIPEiABEiABzwi0ybPsqqMGvUfjJq4dR/biNluOWuPoOeWk7yNDImXl3LfCNNncCyCbRxQ+yxbBslKhR/sXPAegmmG58nISIAESIAGHBMQR/qLjDEe270gBkN7qNgrO2ySNX685Vp04bISqW7VqhQJJx5YAbAHQyqHN8jQSIAESIAFLBB7WabRPHj6KAiDmAuCzVRu37RbYsHoNrxy/3PcrALtasmXehgRIgARIwAWBWW4FgKzx/sHyNRQAMRUAzxy6WC3os4ettfwLiYcfAAx1Yas8lQRIgARIwCKBSgAedSMCNg8bbuT8JRzNMQAnGjM0CevnXvvioqVq4+BhNpfxLeT45X/i/EdatGPeigRIgARIQINAEwCvOREBB/fopX7euNnYeVEAhEMA/HXKwap/y9YVOWvb/5e5/tzkR6Oi8hISIAES8IJAXQCXlTcosE5ZmTptxGgrzp8RgOCd/48bTlCLdu9r27E7uZ+88x/mhQHzniRAAiRAAmYEOgBYDeCK3Zq12DK7Zx8lq73JgLDcsLHJ34wABCsClvTt78RZ2z5HRvv3NDNPXk0CJEACJOA5gV+O2fxnEydf6FoKgOAEwL2z5ns1l7+QYJD1/Zt6brR8AAmQAAmQgDkBCgDs4NDisBDQqPYdd8iXk/EfBufIqyUu8mNeJXkHEiABEvCHAAVA/ATA9+s3qZLiYr8EwDcAZvhjrXwKCZAACZCANQIUAPETAM8ftsQv5y8LTMleEzxIgARIgASiRoACIH4CQBb5MQjlO7n2OwArAcj6EjxIgARIgASiSIACIH4CQDb08VAAXJ+aSrpzFG2daSYBEiABEsgiQAEQPwEgMzN6NWlqWwTICP9BWabDjyRAAiRAAlEmQAHgnwD46Oi16uapM9Ul4w5St0ydabzXQqEpmOeOHmtTAMhukgOjbOdMOwmQAAmQQA4BCgDvBcBj8xepYW13UcVFRds5Zfl7UOud1SPzDrO6AJMIg60bN9te/vdTDvjLqTz8kwRIgASiTIACwFsBIEsrV6pgSl4RipTp1sv5ogFvL12pmtastZ3oMBwb8C8AjaNs70w7CZAACZBAmgAFgHcCQEL9bhzu7/bZz3ok4OlDjlQ1q1RxlY4K0vwUgBqsQCRAAiRAAhEnQAHgjQCQ9/21y8pcOV6JBFw5frJ1EXDHjDmqtFIlV2mpQATcBqAk4qbP5JMACZBAsglQAHgjAI4bso+Ww61SUqJkHf98IX2T72SzJxEYFTh2N///Y7JrDnNPAiRAAhEnQAHgjQDo26KlG2e63bl1q1ZVLyxaal0EbBw8bLvnWBAD6yJu/kw+CZAACSSXAAWANwKgXtVqRs62Wa1a6p2lq6yLgEN229MoXTmi4X8AZiW39jDnJEACJBBhAhQA3ggA2VEwx1m6/rtH4ybqy9XHWBUBP6zfpIa3a+86LQXy8hOAYRGuAkw6CZAACSSTAAVAeAWAON3BbXZWsrufyfv/3GtFVPS0u1Lg1wB6JLMGMdckQAIkEFECFADhFgAiAqZ066F+3rjZqgj4YPka1bpOXZuRgC0AWka0GjDZJEACJJA8AhQA4RcAIgI2DB5qVQBIVODFRUuV6ViFnFcDLwGom7xaxByTAAmQQLQIVAfQ7dpJ0+555Yjl25aOzQ0Vm/695ag1Jj3MjwxxluU4J8dpkff3pnm3MQYgN/3njBpjnK7cfD0we6GynNYHAFQxLDteTgIkQAIk4AEBeVd7Q2o/9++zHUyjGjXUUXsNVJ+sXG/NyVAA7BhdyGbu9rMsKXzTlIOtlU9GDFx90JQd9ilwm7ac8/8MoMgD2+UtSYAESIAENAkcBeDnnMZ6u55x4xo11cPzDrXiZCgA7AoAKTdZ1vephUdYKZ+MAJDfv9935HZ2UMhGHP5vs6aN8jISIAESIAHLBBY7bLi3OZnnDlti7GQoAOwLACnDJjVrqreWrDAun2wBIJ+P2KOfbRFwuGUb5u1IgARIgARcEmgPQOZrO27gezVpajwugALAOW83ZSPndmrQ0OrrGhEAsoXwuE5dHNuIgzRLtGmsS1vl6SRAAiRAAhYJXOSgsd6h4b956kyjXiYFgHcCQMpzQKvW6tt1xxuVUW4U4Ju1x6l+LVrtYAs69pO+5jsAfS3aMm9FAiRAAiTgkEAxgE91GvA5vfoYORcKAG8FgJTpQV26G0dqckXAf1asVx3qN7ApAj4BsItDe+VpJEACJEAClgg01HH+cs1eLVtRABxzohYDy1PrCjrj5f0GaKUx1/Fn//3G4qOVzAzRtZ08170JQGyRBwmQAAmQgE8EOuRpjB017PKeOdspuP3MCID3EYBM2Z6+3/5GZZWvbB9fsEhVr1zZka1k0lHB78cBVPPJ7vkYEiABEkg8gY4VNMrlNvAd6zcwcioUAP4JgOKiInXdpOlG5ZVPBNwydaYqKS4u10Y0bOtmAJUSXysJgARIgAR8IEAB4GL2gzi0sK4EWJGzrVpaqv4x9xDrIuD8/cfZFAByr/N8sHs+ggRIgAQST4ACICECQATCTtWqqZcPX2ZdBBy910DbImBZ4msmAZAACZCAxwQoABIkAEQE7Fy3nvrwqLVWRYDsRjh91542RcD/AEzz2PZ5exIgARJINAEKgIQJABEBfZo2V1+vOdaqCPhh/SY1dOd2NkXAjwCGJLp2MvMkQAIk4CEBCoAECgARASPbd1Q/bjjBqgj4YvUxqnujxjZFwJeyK6WH9s9bkwAJkEBiCVAAJFQAiAiY33t3qwJAZgq8t2y1alG7tk0R8DaAxomtocw4CZAACXhEgAIgegLgD+K8bf2cOGyEdRHw9CFHbts0ylYaATwKoIpHdYC3JQESIIFEEqAAcOlMQzANsCqAS2051yIUqSvHT7YuAm6fPluVVqpkTagAuCCRNZSZJgESIAGPCFAARE8AlAEoTW2ic6ctESCO+q6D51oXAVeMn6REYNhKJ4AxHtUD3pYESIAEEkeAAiCaAkAMtRaA52w51zplZer5w5ZYFwEbBw+zKQDeT+c7cRWVGSYBEiAB2wQoAKIrAMQWmgJ415YIaFarlnpn6SrrIuCQ3fa0KQI22q4EvB8JkAAJJJEABUC0BYDYbFcAMl3OipPt0biJ+nL1MVZFgKwRMLxdeyvpA/AFgDpJrKzMMwmQAAnYJEAB4NJxhmAQoIwByD0GAfjBlggY3GZn9f36TVZFgIiKnk2a2hIBS3IB8G8SIAESIAF3BCgA4iEApNQnA5AldK042SndeihZ4jffLoC6332wfI1qXaeujfS94M7MeTYJkAAJkEAuAQoAlw4zpBGATLmutiUA5D7rBw21KgBEOLy4aKmqV7WaDREgtsuDBEiABEhAkwAFQLwEgJjBWTZFwDmjxlgXAQ/MXrhtW2XDdC7WtHleRgIkQAIkAIACIH4CoBKAWwyd66899JLiYvW36bOti4AzRx7w6zM003o9azAJkAAJkIA+AQqA+AkAsYbqAJ7QdKw7OOaaVaqopxYeYVUEyPiCfi1a7fAsF2l+Q9/seSUJkAAJkAAFQDwFgFh2QwBvuXCoBZ1xk5o11b+WrLQqAq6bNL3gMytI+y/pFRFZi0mABEiABDQIUADEVwCIObQF8O8KHKljJ9ypQUP1ycr11kTAV2uOVfKKwSB9TTRsnpeQAAmQAAlwDID7KXMhnwWQz6j7AfjOwMlu56AHtmqjvlt3vDURsHPdetvd32U6u+TLML8jARIgARKomMAuLhvcXxvrNnXrGjkBCSfrPhvABxVnreAZspmO1vOlx7rVYH68XFvJrNcraXd7HAhAQuZaec69bmLX7kYMstcR6NygoUmaOrsFwfNJgARIgAT+j0Dj3Mbd6d9VS0uNFop5aO6hJg3/KxYK8Hunec0978Oj1mqLH1kMJ/d+Lv6WnrzuIdPmTJ693bXL+w3QZpAtAGQTIoN0tdeFwetIgARIIOkEqhk0vkYjw/+w70iThv9RCwWn/W78+knTtZ3ftROnmeT7I8N8n2xS3rnXnrHf/tocRAS8csRyExZyLfcEMDQIXk4CJJBsAuJUtBpi3V6gTAHr3bSZ1jPTab3SQpGJiNBKw/jOXbUd37hOXbSemU7rw4b5LgZwjW6+c6+TVxk3TJ6hzWLdoCEmLL42ZMHLSYAESCDxBB7Ibdid/l2ttFRr+9irD5pi0vDLtRsslNolTvOZe14RitTjCxa5dnyPzDtMybW593Px98UW8i2bCT3o4pkF0yuvguR1TnZY38nn95evVrWqVCl47wrS+JgFFrwFCZAACSSawO8raGgLNtJ7NG+hvnUxKvzVI5bbWAt+uIUSO8wk3zJ6/d8r1jl2fHKuDJw0eSaAhRbyLbeoB+Blw7T8mpf61aqrFxYtdcxC7EV2HDR8/pmWWPA2JEACJJBYAiMMG2K1V8tWysnAOOkBN61Zy7Th/zG90p1pgWmvgZDhJfPiRdBU1OOVd91ybuY6g98ya8PW0TolKLRf/+TmYadq1dTf5yyskMXHR69T+7TdxQYLmdnAgwRIgARIwIBAVQBf5Tbobv+uW7WqOnHYCCWj3HMd4vOHLVHze+9uuuhLxmncbpDX3Etfd5vP3PMlBL6y/2D15uIVO+T7jcVHqxX9Byk5J/c6jb9tzHzIzX9vAP/VSEve/BQXFalZPXvnHRz6nxXr1cnDR6lGNWrkvdZlGmQ2hCx3zIMESIAESMCQwEUuG+ByG3FxAtLblV6eLBrTsnadcs/VfOY0w7xmX75eMw1587TLTvXV3m3abvtpV2+nvOcYPG9tdsItft4PwFaDdOXNZ7NatVT/lq3V8HbtVdeGjZTYhcVn/MVi/nkrEiABEkg0gT0sNs42G/rce/0HgExdtHW0ACCvFHKfE7a/fwDQzFam89xnXgQYZJfJwDx54FckQAIkQAKaBO6JgBNYrZm3QpddGIF8X1AoA5b+d1wEOIgIkF0OeZAACZAACVgk0Dc1ve5/IXYCHwKoaTG/mVu1sblWvgf8vgXQMpNYD38XAdCeGulBvrN7/NmfB3vIgLcmARIggcQSCHNveIqHpbLORweW7cycfPYi6lEeStln4K4Qs7i2vITzexIgARIgATMCMj/83RA6gJvMslXh1VUAPB3CfEu4u3KFqbd7Qi0Az4aQhSzd3MBuVnk3EiABEiCBbAKyfexPIXIAbwOom51Ajz63BfBliPL9BQB5PRHEIQMO3wsRC5lPN0/zAAAgAElEQVSlYGPxpyBY8pkkQAIkECkCMtXO2vaxBo5EHPKuPpIbFpJZATLqf28f853vUV0AfGpQdk5ebzg954h8CeR3JEACJEAC3hBYEvCgQFmcaC9vslbwrgcFHAGRaYnjC6bQv3/2AiCRCKeO2ovzvFr/wD+KfBIJkAAJRJDAwQE5w48BiPMJ6pDFcb4JwPHJqnz7BpXpcp4r5fBBACwkArW8nDTxaxIgARIgAR8ISChapuB50bvLd89HfJr2VhE6efXwmo/5lqV+u1WUqID+3yT1Dl57+2QNhp+n5vuPDCivfCwJkAAJkEAWgUYAZApWPodt6zt5730sAJmKFpZD1h04z+PxED+nRrefA6BGWDJdTjpKAKwC8L3HdnCbx6selpM9fk0CJEACJFCIgIzE/qdlByCLD90AwOZOd4XyoPO/3QA8YDnfIpzuAyAb8kTpkHK6ygNR9FLKtg6IEgimlQRIgASSRkBWjBsFQHpqJpvIyAh/WXioa4QA9gcgG9GY9IJlJ7urAxrgaBO1zBI423CQoLznlyWoxwAotpk43osESIAESMBbAvJqYG6q934lgHcqmDUgo9tfSDuNsQBkG+KoHrUBTAUguyjKlsISxi/vVYj8T84RsSOrGcq1cTqkHEUQnpFy5M+kXhPIq5zyWMj3sr6ACKBDAMjYAh4kQAIkQAIxICDOQHr0A9KDuGREu+wxIGFjeYcc10NW6+uU7tWPACA/MoVRvvN7Jb+gGVcC0A6A7DC5D4DRAIak7SLs4xyCZsfnkwAJkAAJkAAJkAAJkAAJkAAJkAAJkAAJkAAJkAAJkAAJkAAJkAAJkAAJkAAJkAAJkAAJkAAJkAAJkAAJkAAJkAAJkAAJkAAJkAAJkAAJkAAJkAAJkAAJkAAJkAAJkAAJkAAJkAAJkAAJkAAJkAAJkAAJkAAJkAAJkAAJkAAJkAAJkAAJkAAJkAAJkAAJkAAJkAAJkAAJkAAJkAAJkAAJkAAJkAAJkAAJkAAJkAAJkAAJkAAJkAAJkAAJkAAJkAAJkAAJkAAJkAAJkAAJkAAJOCFQG0A3AKMBzASwDMAmAOcC+COAa/L8XAHgAgCnAVgPYBGAKQAGAWgDoLKTB/McEkgT6A3g+JQdXg/gbwAuAjAdQI2EERoI4HcAbgJwK4DzAUwAUCVhHJhdEiABywTaAhgLYA2AP6c+PwvgSwDKg59fAGxJCYL700Li0LQ4ELHBgwQyBJqlHX55NvhvALMyJ8f4d0cADxeoh+8COCDG+WfWSIAELBIoAzA03TuXnsQnBRqX8hpfL74XYfAygIsBLADQyWKeeatoERCn96FDuzwDQHG0suc4tcMAfOGAw/9S5y12fFeeSAIkkCgCuwI4GsBdAL5z0KB44eB17vkBgD8BmApgp0SVWHIzK6H9113aqLyKilsofDKAH11wEAE9PLlmw5yTAAlkE+iS+uMYAK+6aER0nLRf1/wM4KF0T0fCwzziSWCdpr3eC6BWTJBIb14cutu69UpqvESlmDBgNkiABFwSaJcepPeeRuPhtrEJ8nxpHGUMwcEAqrtkxNPDTUDeaeva1ksARPhG9aiaHlyrm3+5bnBUM890kwAJuCcgoc8ZAB4EIO8CTRqPKF77dXpkeB/36HhFyAjsbMF+vwUwN2T5cpIcGfPyvIX8S9SPBwmQQMwJNAKwEoC8J4+i4/YizU+lowKlMS/7uGZvL4u2LOMCmkYAVAmAIwB8YynvMj2XBwmQQEwJSC9J5kK7GSDkhbMN8z0ljCzrD8iMBx7RIdDTkhPM2KY4VekRh3Xtid0APGE5z6dGp7iZUhIgAacEWqcX2NlqucHINJZx/C1zxSVKIu9WeYSfgAzi+8kD+5axAZNCNECua3q9DS9e2c0PfzEzhSRAAk4JyPQ3metMx6//qkMWHpK1BThC2qnVBXfe7R4IgIy4lemF8wKcMrgngL96OFZHxFMUXnsEZ118MglEhID0WqX36tWKfJlGMUm/pSc4KiLln9RkyjgAL3rG2Xb+WXop3QEAijwG3SK19sYKSwP8svOQ7/N5HueFtycBEvCBgKy9/46HPaF8jUeSvrsBANcS8MGQNR9xgo+2L/VM9q6QxaZs9J5FuA9JrU54XHoJX535/Dp1UVbRjMs6CJpmw8tIINoEmgC4zMfGT6ehics1Ml1MIix8LRC+OiNL+54ZUD14E8AtAE4BcAiAEakVNPsB6J6qmzIAtyUAWapYpp3KUr0iHGSg4VWp6NKTAH4IIN3i/CXSwIMESCCiBGTuMsP9+u/5dYWJjMKWBp1H+AjIinhevw7QtZuwXPc4gPrhKzqmiARIwAmBhumBQWFpULLTIcvvyqqC/0hHJk5O7xi4EMBB6R9Zf1x6QvKzf/o72a71yFTmpWd0VnoL02dS330eQO8oOz/lfZb9EWQuttfvg53YA8/ZnoCs9ujFzIDybCFK30ukotr2uPgXCZBAVAiIw5SpamFodGTXMRmBvTm1f4BsRNINgBcL6tQDIHubyzbAMmjpnyGa4XCnpffAUbG/qKRT6oms+BiGehKWNPy/1LLfsogQDxIggYgRkPfOJwUc3hSHf116elzngLdUlfX8ZQ3zY1PvXB8DIJGHoBraj1L7DAyKmD0lIbntAUgUKSi7CMtzJVrFrX+TYPHMYywJSMj/voAaMhnxLGF8mWoV5sFvEiWQwVXXB7R9say5INsn85VAuKqg7Hsha2KExRn7nQ4Z7CeROR4kQAIRJCAjh/1eu1/eu8uIall2NIoOTaID8kpCwvN+TanKNOwSIeE71vBVNBl/IhGsTDkl4bes8c8VLcNni0wRCTgiMNbihh9OGjwZuCe96Dith98qRVoGFkqY3gkDG+fILIHGjkqYJ/lJILNCpt+i0IZNubnHawD29RMsn0UCJGCXwDKfeq8yWvqK9BxluzkI190kFDzTx3fC8upE1m/nET4CXmyo48ZBe3Vu2DcyCp8lMEUkEDICEnI/zYfeqjj+CwHIhkFJO2SEuGwD7FVDnLmvrNEgS8fyyE+gL4A/pMTnralBlPenN7uRhXSkp+71IaPhD08NaP3QBzvI2INXv6Uu/8mn2Siy4NJIAOemZwDdm362RA75usFrq+X9Y01AKpdM1fGqoZD7yiIpl6dXKIs1zAoyJ0JrDAAZJOUlb1k9kOHY7QujeWqlvLsKcBfhtGT7Szz7S7b9lXUDJGzupR14cW9ZQVBWAW3nGZ3tb9wLwHMFOL0PQF5b8iABEnBJQEbYX1KgctloQGQFMFmilMdvBKQnKLv+ebm2wo8Axv/2yER/6uCi1y31wa9561L/pBcra0zYqGte3kM2JpK1N2R2kF+HiGURsxXlSzoYnHLoV6nwObEgIL1R6ZVXVLl0//8fANMiOqLfrwKum97gxatlZGWaoKwRn+RDZme47WnfGMBWvF1ShSQDR9/ysE66rcvfp/cbkNkMErXw85C2w83W4jLIUlb55EECJOCAwGEeNTTizKQX5cc7VQfZjMQp8s7+FY/KQ6ahJXl2wCpNrncENLVSXsnJAk/yvvtVzbS7dfTZ50tP/6bULp+zAty1T6JjOrMmXgh4obBINDZMJAnIwBkvws8fpwfrkLB7AjIN8lSPVl083X1yYnPFGwZO9NkQbMcsO2/KawLZCljGjrjpFWc79vI+S539a3r8Q4+AHahEJSUKUl5anXzP142xqbrMiFcEZES6k8rk5hzpMUljxcOMwFAAMrDJDfuKzhWxJz3LpB3NLHB8G4AsQR2WQ/a9kOWGRwNYnorunJ9K3zWpVTPvTg38fCQ9YE5eI7ybjirJzBP5n/Tq5ZWfOFgRFLLYV+2wZCr9yuVKC+UlER8eJEACBQgcZ6GiZZyO9Ehk/QAe9gg0AHCPxTKSskri1MvelhjKDIED7BUv75RDQISaiJdMm2LyW5Zg5kECJFCAwNmWKpuED7khTQHQBv+SEeInWnwlIM4waYeM/jdxJtnXytgW2RgrzHtTRLF8ZcdNmytmbooiBKaZBPwkYCMCIO9HZW512A5Jk+zYNzu9Uc7G1GIhv0u/Q5XVBy8GIAJIGvPV6elDEwHIfOOaYctM6r2vpE1GY2c7I53PSYwAyLgKWalOh1d510hkRnqsPMwIiJBa58GYBnm9wYMESKAAAdMxALKgSq0C9/fjX9KA9Ew7cHkHKouFOJkzXF7DnvleohqyP4GIhEkhGdewp+GgzaSOARA7vNayABA7kZHyE/ww8pg+o01qyt5DHpSLbEEsO3TyIAESKEDAZBbART4ulJKbBenFHpVexlXey2actte/X08vYSzzoYNaelRWXvuXZp6TPAtg11RP82dNbhXZlUSUZLwGD2cEZCCqLLv8lUflIZE+HiRAAg4I6KwDIANsZKqOn4coelk2VUYye7VgTkUNffb/pZchEQeJosiIbD8Peb3hdr2ApK8DIOVztEcOR+xCtrGWeet+1ws/7c7Gs3YBcJ+H5SCrKXJLbBslxXskgoA0WG6m3ZzgMxVZ1etvHvbesp267udPAJzs81gIWYr1GYcNqczQ2M/ncgvr42RApW45O7nuwdSqeUkcaFlRectql7K+hWwe5ISjzjkyHsnPJYoryjP/TwKRICDv0SVsVihE+t/0qmB+ZEhChNKzfszDxkKnganoGmncZIMUWc7Vj6NGOgpRKF2y45wMhuTxG4G1HtuVrF4nq2CGcXDsbxT8+SRLBy9K7X74qcfMHwUgIoMHCZCAJoFOqaV7z0qvNCYhbnlH92QqrHmsT8paHP+8kK2DXsi5lvc/eUVxM4DumuXg9jKZQnVpSqC9k5rRIJv/SGP79/SqbrIGPo8dCcimMV6/SpId86Q+JXG2gLwWmw9AFlAqr57Y+l5eKYgY5kECJBBRArIimah4W41CGO4jPUGJCNSPaJnEPdlTAIiT9tpWZPqmrOkvK/fF/RBHfIRPjl/K7c8BbNgU9zJk/kjANwKyQY2sby7O0uuGOKj7y3Qx6XFy8RjfzMrxg/r7EJ7O2J3Y+C0A9onhkswypU9eI8pgyEx+vf4t45E46NKxqfNEEggXgZkeTgXyuvHRuf/jAGQaH49wEZCR6W63CtYp/+xrJDQui1O1ChcKV6mRqbCyXe+9Pgt4ec0111VKeTIJkEBoCMhKe7IhSXaDmJTPXwOYHpqSYEIyBGRDHNkox287lHEIMthV1rWIwiqNMqZE1sH4iwerKzphLxtk9c0UGn+TAAlEi4AstSsL6jip7HE+R8YGcOBSuGxXwsmyLHSh2TBe2+RL6elywwGEYQCnDMyVRZRkDQVZg8PGctS6DGWwH6f5havOMDUk4JiALJTix6Ar3QbG7+tkMR8JP/MIF4EhqdkoH4RApMr6DbKwjSxHLYtgyZLXVTxEJQJI3uXLFFzZLli29vZzpc3y6p8IsuMDXHnUQ+S8NQkkg8DKEDSo5TUwQX4vU/YY0gxfHZCVJ73YP8DU1kQUyHiFW1PLD58DYEX6PfyI1IJZu6derbUF0DQ9J17mxcteHfJ7p9SMlJ3TU1NlXYjxqcGPh6dWzft9Opz/RGo7b3k9ZZo+29fLWAkZqMmDBEggggRk5Pt5IWxYbDdUJveTneqkAecRPgKzQtILNrGvqF4riykFvdlY+CySKSKBiBCQbVivC8j5y+Cqd1O9B9m29fzUoi8b0gOt5DWEzP+Whv3Q1DtNiUxsTs8nlkWPggp5yshmbmEaTsOWqaoyZiOqjjRq6ZbNrmQMBA8SIIGIEpCev8x59qvxkS2AxdnL1CoJcZpsCCJLuIpIkMiFDMryKw8yT3xiRMs7Cckek5p+JqPQ/bKHpD1HXm/IKwmTupsEO2QeSSD0BGQ0tdcNmPSaRWSIs/ZyxLTM3V/vkxgQISMDsXiEk4A4J4kayd4YXtt3ku4vMwy6hbPImSoSIAE3BGROtZehdNngRhphGdjk9yE7vcnuidJb8aqBvsjvTPF5rgnI+v5xX8HSK/vOvu+rAEa7ps8LSIAEQktgskfOUdYPkM2CvJwK5RSqLNoiG714MS/6CwCymQqP8BPomt6R0euNhbKdZhw+y+h+GY9TEv4iZgpJgATcEDjZsgCQUfIyLzkMjj+XQwuPBoh1zH0Q/w41AVng6q8+7DAYdef/RnoALh1/qM2ZiSMBfQIXWhQAV6XnNeunxp8r90vNx5bGzVYD3c+fZPMplgnIeJEzUivnyVgOW7YQh/s8lV7MiI7fssHxdiQQNgIykte00foqPbgvbHkrlB7Z48DWdLEOhR7E/4WeQIPUksLrfNwW17S+eXH9d+n6sFvoS4sJJAESsEZAVhkzaVCktxDlXfNk2VaTUeKyfTC3DrZmjoHeSNbSl5XsZMBgUqICUn9l++sgBukGWth8OAmQwP9tciNL3OqIAAn5V44BRBkcpruevCzxyiN+BGQKoayzL1EiGdeiUz/Ceo2slyHjdDrFr9iYIxIgAbcEjtBo4E4HID2muBwtUwv7vOySg0yflLXcecSbgCxxOwnAnwBscWkjYRABEt6XzYKWRTxaF28rY+5IICACsrOYzJd30ljJFKpVAaXT68dKGPRhhxx+AjDS6wTx/qEkIIvgLE1vQBRGQSCvLx5IL5u9L4CqoaTIRJEACYSGgLzHPrGCRXPkVcG40KTYm4TIngj/r4IpYvK6YJA3j+ddI0hAokeyLPSm1A5+N6RnmMhS0U4Etek5nwC4L73OxcLUzoN9OF8/ghbEJJNASAi0ByBrAzwLQBoXWcnv7+nNeWTVwKQcsp/7ueklhT9Ph35lCdRF7FElxQSM8ilCUtaHkJ0jxTGfAECm3N4I4EEALwJ4K/W/jwCIfcmPzKaR3zKwVP4ni2k9BuC21NbBlwOQ124SxpeBu7LKZX2jFPJiEiABEiABEiABEiABEiABEiABEiABEiABEiABEiABEiABEiABEiABEiABEiABEiABEiABEiABEiABEiABEiABEiABEiABEiABEiABEiABEiABEiABEiABEiABEiABEiABEiABEiABEiABEiABEiABEiABEiABEiABEiABEiABEiABEiABEiABEiABEiABEiABEiABEiABEiABEiABEiABEiABEiABEiABEiABEiABEiABEiABEiABEiABEiABEiABEiCBUBGoCmBXABMBrAdwJYAHADwF4E0AHwH4AsDnAN4B8BKAJwDcDuDc1PdHAhgOoDWA4lDljIkhgd8IiG2KjYqtLk7brtiw2LLYtNi22LjYuti82L7UgfvTdWJduo5IXZE6w4MESIAEIkdAGq/+AFYCuBvAjwCUpZ+v0/eUe/cGUBQ5OkxwnAjsDGABgGsAfGrJxqWu/JwWBycBGEZBECeTYV5IIH4EqgA4EMBNAH6w2BBWJBw+AHAygG7xQ8ochZRAdwCnANjio51/n4qi3QhgHIDKIeXCZJEACSSMgIQrzwHwmY+NYXmi4BkASwDUTlgZMLveE6gDYCmAZ0Ng5xJpOBuACBEeJEACJOA7gZ7psOf/QtAg5goCeU1wBoDGvlPhA+NGoH4qQ8ek393n2lkY/pZXbH3jBp35IQESCCeBvQDcF0Knn68x/gbAqQDqhRMlUxViAuL4TwPwbURs/R4KgRBbE5NGAhEnIE5UetW/RKRBzBYEMvJaRmVzBkHEjdCH5Mug0oMB/CeCdi7RuMtSsw8a+sCJjyABEkgAAXGaMso5DO/4s526zueH+N40ARarn0UZz/JIBB1/bl2QMQLzKXj1DYFXkgAJABIG/VsMGsTsBnJrqmDlnS6jAbTwDAHp9UuEyOZ01WybC+rzvRwHkyli/iYBEnBDYJDP05z8biRv5tgAN+YQ23Nlxsi1MRO52XXpYwD7xLb0mDESIAHrBNamFyLJbkji+FlWZutjnR5vGBUCuwN4L8bOP1NnZVGh1VEpFKaTBEggGAKVUiHD8xPQIGYaRvktMwX2CwY3nxoggaEAZLpoti3E/fOfAJQEyJyPJgESCCkBWclPljONeyOYL3/y7ndKSMuFybJPYCqAnxJq67JSJ/cZsG9TvCMJRJZA9fSGJPmcY1K+k+mNiyJbgky4UwJHAAjj4lV+1jPZfEjqPA8SIIGEEyiN4Uh/3cZUHMPshNtDnLM/jc7/1wifLBwkUT8eJEACCSUgU+Fka15dh+nqurIaNVWbbj1Vr31GqiHT5qixR6xQk1cfr2Yc83s1e9OpatamU9XUdZvVxBUb1eiFi1X/A6eorv33Vo3btFPFlUpcPcsgTxIa5piA+FWIUQBkCqjndlRaWqp67rGHmjx3nlq5+SR17l+uVdfc/6C6+fGn1L0vv6bue+U1dfszz6kbHn5UXXzzreq4M89Wc45covYeOUrV3Wknz9OXxeBy7qYZP0NnjkjAKQFZ6tTTBqdB85aq7wET1EFHrVcLTz5PLTzlfK2fuSeeoUYuOFJ17T9YlVWv4Wma0wMD93AKkeeFnkA/r5f0FcctDv+sq65W/3jzbfXklo+1fp744CN11T33qcUbNqoOXbt5bedyf9nVkAcJkEDCCMzyyvmXVK6iug0cqiYevUHL2VckEub//mw1fPahqtkuHb1sIGWrVy6pGv1KIRtCfeSVre8+YKA65U+XqkfffV/L4VckFK6+9wE1ed58VbVaNS9tfUb0i5k5IAEScEqgc7qXa7VRqVxWti28P/O4kz1x/PmEwdgjV6qWnTzrKd3JFQOdmlQoz5NXXPKu26qdy/0G7LOvuuS22z1x+vlEwd0vvLztNUG1Gp5Ev/4LoGMoS5CJIgESsEqgzIs9zVt17qamrT/RN8efKwb2P3SpqtuosfWGPjVdbI1V+ryZnwQ22nb+LVq3UWdecZVvjj9XDMjYgZETDvLCzl8AUM3PwuGzSIAE/Cdwgc1GsVqt2mrUwsWBOf5sITDvd2epHkNGqKKiIpsNpAwc437r/tup6RP721zNsri4WM0+crF6+O33AnP+2WLgzCv/rOo3bGTTzuVe55pC5/UkQALhJbCXzWlQzdp12DaCP9sJh+Hz6EOXqmo1a9lsHKV3JNMleUSDgKx295wtoSsD/ILs9Wc7/uzPdz3/kuq79xCbdi5rYVDsRsPGmUoScEXAaqO46+B91AKDUf1eC4XpG05UtRtY7SEtdUWbJwdJ4Ghbzr9dx07qb08/E4pef7bzz3x+/P0P1fi582yKgH8CkCXBeZAACcSIwDIrjWJRkdpj1LhQhPwrEhHjVx6r6rdoZatxlHXjm8XIHuKalRYAZFCbcbl37dlL3fPiK6F1/hkR8MDb76uZK9eoouJi4zynuclqiTxIgARiQmAnWxufDBg/JRLOX8TBtONOVmOP3qDqt2htq2G8JCb2EOdsWFnYqlffvuqht94JvfMXEfDQe1vU1S+8quasWW/Lzr8EUDfORsK8kUCSCBxno0fUZ/j+kXH+IgBmHH+KGr/6eHXAsnWqTqMmNhpH2Va1XZIMJ2J5bWtjtT8J+8uKfZkedth/P/Leh9sEgIiACYcebsPO5R4bIlb2TC4JkEAeArUAfG4qADru0T9Szl8EwMGbTt0mAEQEjDpihZKliE05AJBZFDzCSeBC0/Jt2KSJuuOZ5yPj/EWcPPb+bwJARMDgsQfasPPPUqsE1gxnMTNVJEACTgmsMm0U6zVppuaedFbkBMDME077VQCICBg0fa6N96SyV0BLp/B5nm8E5N2/bOus7fwqlZSoP95wU6ScvwiAJz74+NcIgAiAy596TrXu2EmbQxZDGUzJgwRIIKIEZOqa0TKopVXK1ORVx0bO+UsEYObmM7YTACICugwcaqNh/H1E7SHOyT45y3FplfGiVWsi5/wzryeufvHV7UTAqTf/TZWZLx/8IQCZPcSDBEggggT2N20U+405KJLOXwTArM2n7yAADlx1rI3xALJPAKdKhadCiJMyErodu3VTj7+3JcIC4LXtBIBEAqYvX6ElhHLajJHhKWamhARIwA2Ba3Iqs6sGQUL/839/TqwEgEQBhsw6xMZqgcPdFATP9ZSAbPXryrazz5dV/i6+5bbIOn+JAlz94o4C4MpnX1KtOhhvmPVnT0uONycBEvCEgEzj+T67oXP7+YBFR0XW+ZcXARABID+tuvXQdhhpjjLdjEc4CFzt1razzz9g8pRIO//yBIBEAdZfdKmpnX8HoHY4ipmpIAEScEpgfnYj5/Zz07btI+38KxIAwxcuUUVFRgunfAugutPC4HmeEZCR6tpCVwb+3fjIY7EVACICOvbqYyoCZntWerwxCZCAJwSudev0s88fHZINfsSR6/7kGwOQiQDI7xadjbcRHuFJyfGmbgiMzrZbt59HHDg+8s6/UARABMDq8y80FQB8DeDGInkuCQRMoAjAJ24bw8z59Ro31Xa6us7ai+sqEgB7z1xo2jByNkDAhp6aq35Kxm51fl92+12xFwAiApq3bWdi6x8DkDaFBwmQQAQI7KrTGGau2XP/8YkQABIFqLlTA5OG8ckI2ELck/hMxm7d/m7Tvn0snH9FEQARAFOWLDOxc7m2a9wNifkjgbgQkJ3rtCp8UVGRmr7hpMQIgC6DhmlxSvOVpYG5ZnpwtaYeANnCVqsMj1i7PjEC4Nx7/66KiytpcUrzPTK4YuaTSYAE3BDQ3hClUeu2sXD+8kqholcAEgHYd8GRJo2iXDvUTcHwXKsE9tF1/nLdDQ89khgBIFGAdt13NbH1y62WHG9GAiTgGYGndRvGXvuMSpQAEBFQtWYtk4bxMM9KkTeuiIBsW6tVdg0aN4mN83fyCkAEwNh5C7RYpRk/UVFh8P8kQALBE5DBOtr7oe9/6NLECYCWXYx6RmcEX+SJTcHZugJg1ISJiRMAa/94sYkA+IoDARNbz5jxCBFortsooqhIzdl8euIEwK77jDRpGO+MkG3ELal369r60Zs2J04AXPzokyZ2Ltc2jZsBMT8kEDcCe+s2ivJ5rIkAACAASURBVNVq1Y6N83c6BkBeAfSfNNOkYXw7bgYUofy8o2vrZ//5L4kTAPIaoE79+ia2PihCtsGkkkAiCYzXbRSbtuuQSAEw4lCjKVJfJtLKwpFp7VddtzzxdCIFQKfeu5kIgHHhKHamggRIoDwCM3UFQPvd+iZSAMgOgUCRbsMo09C4SEp51ujd98JcawqgTHV9/P0PEykABuw/RtfO5bqDvStO3pkESMAGAe2R0V37D06kAJDXAJVKS00aRu4JYMNy3d1D9gDQKrNq1avHyvk7nQUgrwD2nTxVi1ma9SJ3RcSzSYAE/CawWrdh7Dl0RGIFQFn1GiYNY2O/C5nPQxNdO6/fsFFiBcCYuUZTAVfR7kiABMJN4HjdhnG3EQckVgBUr1vPRAC0DbdJxDJ1wlyrzJq3ap1YATDx8MVazNKspW3hQQIkEGICFADpHQSdrAQo4X/5qWEmANqF2B7imjRhruXMWrRuQwGgx44CIK61ifmKDQEKAAqA2BhzgYxQAGz5+Fchc/WLryl5x1/RDyMABSyK/yKBGBCgAKAAiIEZV5gFCgAKgAqNhCeQQNIIUABQACTB5ikAKACSYOfMIwm4IkABQAHgymAiejIFAAVARE2XySYB7whQAFAAeGdd4bkzBQAFQHiskSkhgZAQoACgAAiJKXqaDAoACgBPDYw3J4EoEqAAoACIot26TTMFAAWAW5vh+SQQewIUABQAsTdyABQAFABJsHPmkQRcEaAAoABwZTARPZkCgAIgoqbLZJOAdwQoACgAvLOu8NyZAoACIDzWyJSQQEgIUABQAITEFD1NBgUABYCnBsabk0AUCVAAUABE0W7dppkCgALArc3wfBKIPQEKAAqA2Bs5BwH+tg/Ak1s+VtwLIAkmzzySQMUEKAAoACq2kuifwQgAIwDRt2LmgAQsE6AAoACwbFKhvB0FAAVAKA2TiSKBIAlQAFAABGl/fj2bAoACwC9b43NIIDIEKAAoACJjrAYJpQCgADAwH15KAvEkQAFAARBPy94+VxQAFADbWwT/IgESAAUABUASqgEFAAVAEuyceSQBVwQoACgAXBlMRE+mAKAAiKjpMtkk4B0BCgAKAO+sKzx3pgCgAAiPNTIlJBASAhQAFAAhMUVPk0EBQAHgqYHx5iQQRQIUABQAUbRbt2mmAKAAcGszPJ8EYk+AAoACIPZGzqWAuRRwEoyceSQBtwQoACgA3NpMFM9nBIARgCjaLdNMAp4SoACgAPDUwEJycwoACoCQmCKTQQLhIUABQAEQHmv0LiUUABQA3lkX70wCESVAAUABEFHTdZVsCgAKAFcGw5NJIAkEKAAoAJJg5xQAFABJsHPmkQRcEaAASAuAmZvPUONXH+/op0bdegqA7o84Ix7+EqAA2E4AvKqufqHin4mHL9a1cblO2hYeJEACISZAAZAWAAdvOs2R8xeRQAEQYovOnzQKgLQAePyDjxw5fxEIFAD5jYnfkkBcCFAApAXAlI2/owCIi1XvmA8KgLQAuP/t9ykAdrQPfkMCiSRAAXDK+WrOSWep8Wuchf8ZAYhkPaEA2PKxeuKDj9X1L79OARBJE2aiScA+gcQLAHH+E9ae4Lj3TwFg3wh9uGPiBYCE/m9+7U3Hzp+vAHywSj6CBAImoC0Aeu0zSs058cxI/sw+6Uw184TT1dSNv3fl+DODBDkGIGCrdf94bQHQrHVr9eA7H0T2R0L+d775trr2pddcOX8KAPdGxitIIGoEtAVAl4FDtZxnxolG+TcFQNTMHNoCoHHLlq4dp5MR9lE4h4MAI2fnTDAJuCJAAeBw6l+2YKEAcGVjYTiZAsDBtL9cUUIBEAbTZRpIwDsCFAAUAN5ZV3juTAFAARAea2RKSCAkBCgAKABCYoqeJoMCgALAUwPjzUkgigQoACgAomi3btNMAUAB4NZmeD4JxJ4ABQAFQOyNHOAgwNz3+07+5hiAJFQN5jHJBCgAKACSYP+MADACkAQ7Zx5JwBUBCgAKAFcGE9GTKQAoACJqukw2CXhHgAKAAsA76wrPnSkAKADCY41MCQmEhAAFAAVASEzR02RQAFAAeGpgvDkJhJ1AEYBdAEwDsAnApanPb+jua19Wo6aq27hpIn+KK5WY7JN+N4BzAKwCsC+AumE3nAimT5gOTzMW1sJcq8xKK1dWO3fu4ulPlz32VIPGjFVH/O4UddlTz/q68uBVz72kVpx9vhp20CS16179t8tn3YYNtZilWUvbIm2MtDVT021PBE2JSSaB6BIoTjuZCwB8pNsI8jo95+GQ2/8APAFgdarBbBNdUws85W0BrAXwJABhauK8Aru2XqPGavkZZ/siAjZd+RfVot0ufub1QwDnAxgGQDokPEiABDwgUBXAYpMeflQb0Iin+xcAtwAY7IFNxPWWewO4DYCw89OZefasoqIiNWv1Ok9FwMpzzlelVap4lgcHZfE6gCMBlMXVMJkvEvCbgKjquQA+cFABg6z8fHbFzup2AN38NqAIPW9XAHfF1c6Liyup9Rde4okIOP22u1TV6tXDUgffAzCLEYEI1TwmNZQEdgZwf1wbxITm68dUOHsDgNJQWlwwiaqcchbHAvgp7jbRsn0H9efnX7EuAvbcd0RYnH92Ou7lK7BgKhSfGn0CowB8GfcGMcH5exhAk+ibqXEOmqYG9z2aJDvYdNU1VgXAhQ89ripVqpTteMP0+WsA44ythDcggQQRkMFjkR30lKTG3DCvWwB0T5Bd52a1JwAZRBYmh+V5WqYvX2FVAMi7/5AzlLEcR+cWPv8mARLYkYBMsQl7hWb67JXRZwD67GgGsf9mt9SAsc+TaOsHzJqt/vrqm9Z+Dt90YlTqo7zm4UECJFAOgZVJbBCZZ4gI6FCOTcTx645Jdf5i6/OXHaWe3PKxtZ/N510QFQEg6TwqjgbNPJGAKYEJcZr2RKfuOorzJoCdTI0oAtc3APBWku1DHLZNAXDVPfdFSQDI64ADI2CnTCIJ+EZARvt/leRGkXnfJhhu8s3ignmQTGmVNRGi5LCsprWsalV1/6uvWxUAIiZatG5jNZ0el5EMbm4djAnyqSQQLgKyst8jHle4KDUOSU/r/HCZp9XUHJJ0O5995GLrzl8EwLFnnBW1evMPANL28SCBRBOYl/RGkfnfrkcsA+Pqx7BG1APwaZLLulP37uqht97xRAA88cFHasS4A6MmAmSxIB4kkFgCNQH8O8mNIvO+nfPPNOBnxrBGnJvkst5j4CB170uveuL8M+MJHnnnfTVmytSMDUXht+xlUj2Gts4skYAjAkuT3Cgy73mdvzTc3wNo5MiConGSLHj0Q9LKu7i4WHXr1Vsdf/a56vH3P/TU+WdEgPw+5+prlAiOkpLSKIgA2TuABwkkjkAJgHdtNYo16tRVXfsPVntPmaVGLVysDly6hj8eMxi3eKUaPucwtde4yapVl+6qpNRqg3t8jGrECbbsvEpZmRq473B19KbN6tRLLlN/uvVv6rLb7wrdz9X3PqDue+U135x+tgDIfP7Hm2+rax74hxU2Z//5L+qYM85UE2bOUg2bNLEpLN4GUClGts6skIAjArK3uXFFqlm3nhoydbZacPJ5auEp5/MnQAYzj/2D6jpgiCq2syyrbKgSh0FSkgfjjaykNzt53nx19wsvB+pUM841yb8lmiFioFHTpsbtV7oN3MdRi8mTSCBGBC41FQDNO3RWszedSqcfoNPPJ7oOOGyZKqtew0bjODAG9j7E1M7r1Kun/nj9TXT8FhcPsiFg7n35tW2vGkzLF8BFMbBzZoEEHBOQ+dD/Mak4LTp2UfP/cC6df8icf0YQTDx6g6pcVmYqAn7n2KLCe+LJJnZevWZNdc39D9L5h8z5ZwTEY+9+oPYcNNjUzj/m1sHhrcBMmX0CXU0axZr16qvZJ5xG5x9S558RAcNnH2LaMD5m3/R8v+OTJrZ+yp8upfMPqfPPiACJBDRp3tzU1jv5bpl8IAkERGCuSaM4dPo8Ov+QO/+MCGjevpNJw/gTgMoB2aiNx1YBsFXX1vsO3pvOP+TOPyMCjj/rHBM7l2tn2zA43oMEokBAQrtaFUZ6/ws54C8yAmj/Q5dqlXOWfUR5kyDp1Wnn/4LrbqQAiIgAkIGBhlGAE6PQcDONJGCDwHW6DWP3gUMj4/wyveAk/5ZxGmXVq2s7QQAjbRhcQPcYrWvndXfaST3+3hYKgIgIAIkETJ47z8TOrwnIRvlYEvCdwD26DeOwGfMpACIS/s8InxYdOps0jNN8t057D5yha+f9hgyh84+Q8xcBsOmc80zs/G57Zsc7kUC4CTyu2zCOOfwoCoCICYCOu/czaRhlA52oHodp2/mUqRQAERMA8spGt7wBxGHAa1TrKdPtM4FndCvKhGVrKQAiJgC6DRxq0jAu8dk2bT5O0q6V9ynzF1AAREwAXHHn3VplnbYRaRN5kEAiCFAARMyJZ8L5Or8pANyLgKnzF1IAUAAkwhkwk8kjQAFAAeC0t5TICAAFwMeRE0CMACTPkTHHegQoACgAKAAKvB6gAKAA0GtaeRUJhJ8ABQAFAAUABUDkevmZhX/y/WYEIPyOhykMBwEKAAoACgAKAAqA32xA2kQeJOApgcYAJqX2n5a91q8EcCMAmX/q98/XuqOjG7Zso5q178SfCDGoUbeeU2ef77zXArBPW/VB0p4vTxV+17hZM7X7gIH8iRCDrj17VViuBexB2kRbdufmPuIDrkhtvX0cgIkAxEfwiBGB6gAWpVZUe6KA8ZkYLq/VbORZHnrOkdzIjTbgqQ3IOi2yhoX4Dh4RJVAKYHnK+X/CyuJpZaEAogCiDdAG4mgD4juWAiiJqA9MbLI7A3iOjp+OnzZAG6AN0AYMbeBZANyuOCJyYiyAbw0LPI5qlnliL402QBugDejZwDcADoiID0xsMmXjlJ/p/Kn4aQO0AdoAbcCyDWwFMDWx3jXkGR8B4CfLBU61rKeWyY3caAO0gTjagPiYfULuCxOXvOYAPqXzp+KnDdAGaAO0AY9t4DMArRLnZUOc4ds8LvA4KlnmiT002gBtgDagZwN3hNgfJippMuiPRkwGtAHaAG2ANuCnDYxOlKcNaWafpACgAKIN0AZoA7QBn23gaQBFIfWLiUhWP58L3E91yWexN0MboA3QBsJtA3skwtOGNJPnUABQ9dMGaAO0AdpAQDZwVkh9YyKS9WZAhU5VHm5VzvJh+dAGaAN+2IBseMUjAAKN6Pyp+mkDtAHaAG0gYBtoEID/S/wjB5kUeu02u6h+x5+rRlx6R6R+ei/fpK1qd9ullrprUw/tnzMW7qL97DptOxpxHnDShdrPblG/inaehdfVK7toP7tK7XpG+Y6afdpMr7DTreNSZia2Ljaj+2yxVRMOUld0ny111CTf0kboPrvPUScY5duEWfa1e19yhyq6wOHPunMVWrTVznOa1YDEe+MAAEzWNdSyuvXV1Mc/VHPe2Bq5n30vulXbWIf3rqd+uXVv7Z+HT+6t/eyGPfYwYj3+zhe1n92xeTXtPAuvLZfvpf3sqg0aG+U7ijZqK83CTreOS5mZ2LrYjO6zxVZNGEhd0X221FGTfEsbofvs4RffZpRvE2bZ1055fasqetbFz31bFGrvpJ1vABMD8H+Jf+Q8XUPdefSkUBhqttE6/UwB4D7cSQEQPaEr9YECwL2tUwBsVa4FwLNbFYZPNBEA4ot4+EzgEF0B0HHKAgoAjUgAIwDuG2RGAPTFBwWAe3ujANAUABPmmwgA8UU8fCZAAeBylC9fAei9/uArAH0n7jSyle88CgAKgHx2UdF3WhEACgCf3bf54ygAKAAcqXa+AgjGgVfUUFf0fwoACoCKbCTf/ykAzJ1rFO5AAUABQAEQwYGs+RrtfN9RAFAA5LOLir6jAIiC+zZPIwWAWwHQp7765fYR2j8Pn7anI4ebb2xGoLMAWlTXzrPw2nLV3tr5FidWUYPF/+ePUBgJgKv2Nirzji2qa5d5oLMATtvTKN/D+9TXzndkZwHIIEC+AjD3yD7fgQLApQAYsXsL9b+/z9f+eeS8MdqNQ6ACoGUd7TwLrw9vnKadbwqA/M7diegxEQBSZia23rFlHe0yD1IASB01ybe0EfkEvJPvKAB89oAJfxwFAAWAo8ZKGnOTRpECQN+JO3H05Z1DAeD+FQAFAGcBJEUXUABQAFAAcAxAXhtgBEAv0scIgHvRBUB8EQ+fCVAAUADkbfxzw5WMAATTgy+vZ+/0e0YA3DsjRgAYAfDZDwf2OAoACgAKAEYA8toAIwCMALhZDpiDAAPz49oPpgCgAMjb+DMCEM0ef25kgBEARgBybcLJ35wGqO1TI3VhIgXA8Etud+T0cp2g/D2qb0ujwXCcBeC+QRYn5qTR4jk7ihYKAPf2xlcAfAUQKS9ukNhECoCxt/xTWwDMHdWBAkBjGiRnAezonP0QLBQAFAA6dsYIgIFXjdCliRQAM1/6RpVWr6klAs5d1p8CgAIgMhEJCgAKAAqACHlkn5OaSAEgFaLduBmuBUBZ5UrbFrQxmQ/PVwDuG2S+AtCPHlAAuLc3vgLgKwCf/XBgj0usADjovtdVpbKqrkTA6uk9jHr/IhwoANw3yBQAFABue7Gyama+MTxOvqMAoAAIzCP7/ODECgBpUPY+/UpVVFzsqKEY0qup+vHeuRQAGuF/ET4cA6DvxN06v+zzGQFwLzgpACgAfPbDgT0u0QJAGsp9/niTKqtb/uYdRUVQs/drr767e46x82cEwH1jLD02RgD0xQMFgHubowCgAAjMI/v84MQLABEBM575TO224kTVsOeeqkrteqpyaYnauWlNNW90R/XY+WOtOP7MuAG+AnDfIFMAUABkRzWcfOYrAH2bEb6cBeCzJw7ocRQAeVaBe/PRzVadfsb5MwLg3vkzAmDWkDMC4N7mGAGgAAjIH/v+WAoACgBHYyC4F4CZI3bSa/XiHAoACgAdu2IEwHdfHMgDKQAoACgA8tiATqMZxmsoACgAdOySAiAQf+z7QykA8jT+fAWwY6PJCAAjANmvspx8FptxMu0u3znj73zRaLEljgEws1cKAN99cSAPpACgAHDUSFMAmDWoOr0wG9cwArCjmM0nOLK/4xgAjgEIxBsH8FAKAAoACoA8NmDD+YbhHhQAFAA6dsgIQADeOIBHUgDkafz5CmDHRpMRAEYAnIT9s8/hK4Ad61F2pCHf5+EX32b06kPH2ee7hgIgAG8cwCMpACgAGAHIYwP5GsUofscIgHsnzFcAfAUQgC8O5JEUAHkaf0YAdmw0GQFgBCC7d+/kMyMAO9ajfL3+7O8YAQjEDyb2oRQAFACMAOSxgSj29vOlmREA906YEQBGAJKiCCgA8jT+jADs2GgyAsAIgJNef/Y5jADsWI+ye/v5PjMCkBTXG458UgBQADACkMcG8vWmo/gdIwDunTAjAIwAhMM9e58KCoA8jT8jADs2mowAMAKQ3bt38pkRgB3rUb5ef/Z3jAB47/T4hN8IUABQADACkMcGotjbz5dmRgDcO2FGABgB+M1FxvsTBUCexp8RgB0bTUYAGAFw0uvPPocRgB3rUXZvP99nRgDi7XDDljsKAAoARgDy2EC+3nQUv2MEwL0TZgSAEYCwOWqv0kMBkKfxZwRgx0aTEQBGALJ7904+MwKwYz3K1+vP/o4RAK9cHe+bjwAFAAUAIwB5bCCKvf18aWYEwL0TZgSAEYB8zjKO31EA5Gn8GQHYsdFkBIARACe9/uxzGAHYsR5l9/bzfWYEII5uNrx5ogCgAGAEII8N5OtNR/E7RgDcO2FGABgBCK/LtpsyCoA3tqrp//xU9Tl6s2rYYw9VpXY9VaVyidq5aU01b3RH9eh5Y1R2r8b0szQu+ZS/k+8kfSZOaPydL2o/mxEARgDc2j4jAO7FByMAdh0c71aYQOIFwLALblRV6uxUrmMsKoKaOaK9+u7uOVaEAAWA+0ZRerEmwifJ1zIC4N7eGAFgBKCw24zPfxMtAPY+/UpVVFxcrvPP7pUP6dVU/XjvXGMRQAHgvkGmANCPPlAAuLc3CgAKgPi4+MI5SawAOOje11SlsqqOnH9GCKye3oMC4O/ztRh8eOM0V6wzzOU3BQAFgNsojrwuy7YhN58pACgACrvN+Pw3sQKg3bgZrhuIssqVlDgyt+9Cs89nBMB9j4wCgAKAAkDfBtyyk/OnvL5VFT3r7gcT5rtuU7OEmfgiHj4TSKQAmPnSN6q0ek0tYz1n2V4UABpRAEYA/G3AM40+XwG4F5yMAFAA+OyHA3tcIgXA2Fue1nL+olbnjOxAAUABEJlBiRQAFAAZMejmNyMAgflkXx+cSAEw/JLbtQXAqL4tKQAoACgAHNgApwG6Fx+cBuir/0v8wxIpAPa96FZtATBi9xYUAA4a/+xxD/KZrwD4CiDrfW+F9U/WrHDTY809l4MAzeyNEYBkaAMKALhT6RQAnAWQ62zC/DdfAbir3yJSOAaAYwCS4f4BCgAKgAp7Y9IociVAsx5VUCKBAoACQMf2GAFIhgSgAKAAoADgXgB5bcB0yivHALgXHxwDkAzHG5ZcUgBQAORt/HPf1zICwAhA7riOiv6mAKAAyG1HCvwtvoiHzwQoACgAKAAYAchrA4wA6I13kXFCBRxdwf8xAuCzB0z44ygAKAAKNkiZhowRAEYAKurx5/6fEQBGADLth4PfjAAEIEYoACgAKAAYAchrA4wAMALgZjlgLgUcgAc3fCQFAAVA3sY/V7EzAsAIQG4Pv6K/GQFgBCC3HSnwNyMAhs5c53IKAAoACgBGAPLaACMAjAAwAqDjVqNzDQUABUDexj9XqTMCwAhART3+3P8zAsAIQG47UuBvRgAC0A0UABQAFACMAOS1AUYAGAFgBCAAr+zjIykAXAqAob2bqc9uPVj7585TRuZtbAso41/Pl/XNdVb1ylwj66s7eU6+c3ZpXls7z8Lrlcsnaj9bVrPL5IG/3UUiTFYClDIzsXWxmXy25OS7IPcCkDpqkm9pI5zkMd85nAboo/fjo7gUcL5KGNbvghQAQTKhAHDn9LNFkokACLLMgxQAQeabAoBe2U8CjAC4jAAE2ThQAOg7wmynmKTPFADu38MHWccpAPx0f3xWIgXAiEvv0A7RBdk4NOqzl1EofMI9r0Yy39UbNzfKd5Icfm5ehV2QNqv7bLHV3Ly4+Vvqiu6zg7xuxKV3GuXbDaNC53IzoGSIg0QKgHG3PhPJxqHNfhOMGocZz30RyXzX797HKN+FGrq4/69+116RLHOxVZOyaT38wEjm+8DbnzfKtwmz7GspACgAClagjlMWhMJQs43W6edpT35cMG9B9gAKPbvzwYcbMy+tXjNyeW85dH/jfDu1jbid12LvUZEr79IatYzLu/OMwyKXb6n70576j3HebdgwBQAFQMEKFGUBIBWkdptdCuavkCMO6n+DT7vcuHFo2m9o5PLde/km43zbaBSjeI9eS4+NXHk3G7CvcXkPOvmSyOW7Vut2xvm2ZaMUABQABStQ1AVAt3nLCuYvKCdf3nOLS0rV9Kc/MW4g9txwRqTyLTwOvOMF43zbahijdp9xtz0bufLud+zZxuUtdaW4tHKk8t594QrjfNuyTwoACoCClSfqAmDsLU+rouLignkszxkH8X3rEeOtNA5THnlflVStFpl81+/W20q+bTWMUbzPTl16Rqa8S6pWV1Me/cBKmbfed1xk8i1tkYxNCot9UQBQABSsPFEXAFLR2u4/pWAeg3D0+Z5ZVKmS1V7wroeuikS+hYXM2AhLoxjVdOx3+d2RKe8ei9ZaK+/xd72kiiuVRCLv7cbNsJZvG3ZKAUABULDixEEATHzgTVWldt2C+cznkP3+Tl5X2KjUmXvMeOYzVaNZq9Dn21bUI5PvJP+OQm+4ZvPWasazn1u19a5zloTezqvUrqcmPfgvq/k2tXUKAAqAghUnDgJAKon0MMPcS5BBe7Ne/d564yDTjWS0td9ixunz6rTrpESomDZkvP7/Fk+SaXV1O3QNbXmXVqvhSQhc6k7TfkNCm29pe8Iy9z+7rlAAUAAUrDRxEQBi9INOuVRVqlylYH6dOi6b5zXefaCn04JE/FSuVSd0+a7bvoua+Pe36Pwtb1IkEa+6u3QOXXlLFG6/y+7yrLxlal2jPv1Dl+9KVcrU4NOu8Czf2Q7d7WcKAAqAghUmTgJAKsfoa/6hqjXS38TDpuNHUZHqOHWhmvXKd543DvKetE7bjgXL2mreKlh6WULVtsPAbhu/OJ8vUZWWww4ITXmLIBl/18ue2/msl79VHSbPU1K3/LTn8p5VvUkLtf91D3ueb11bpgCgAChYUeImAKSiHPz8l0rmTQcZGm+yxyC1//WP+NowiNDou/FMVbV+o4JlXl5jZuP7ep12VWFZB1230YzSdftedKuq17F7YOUtexTIdD8/RG52uYy+9iHVeLcBgeW7cs3aqvey49XBz3/lax3PZuDk8+TXtyo3WwHLuZgw34SrrErLw2cCiVwKuKIKMPOFr9Ww829Q7SfOUbKmeM2WO28bLCihSps/4nClEZbV2nZbeZKacPcrgTYK0hjLa4HOBy9S8vqhdpv2VvObYVdWr4GSMH/zgcNVzyM3qLE3PxVoviuyhzj/f8xfn1Q9j1ivZPEdKRMpm0w52fwttiQ2JatZio357fhzy1CiDrutOHFb3ZM6KHXRZn4z95K2Q9qQDpPmqmEX3KikbclNSxj/Hv0qBYDPvjiQx1EAWH7PGsbKzDRxF0HaAG3AjQ10f4kCIBCP7PNDKQAoACLRI3HTePFcOjvagL4NjHttqyp9jgLAZ18cyOMoACgAKABoA7QB2sA2Gxjx6lZVTcP5cwxAIP7b+KHaAqDBpAWqz8tb+UMGtAHaAG0gwjbQ++WtquuLW1WDF9z3+rMHCnIQoLE/9v0G2gIABy1wsvlXnQAAArtJREFUPUo021j42ayykR/50QZoA2GyAQoA3/238QMpAJ5lIxKmRoRpoT3SBqJpAxQAxv7Y9xtQAFAAMJJDG6AN0AaMbYACwHf/bfxACgBWfOOKzx5bNHtsLDeWm00boAAw9se+34ACgAKAAoA2QBugDRjbAAWA7/7b+IEUAKz4xhXfZi+C92KvlDYQTRugADD2x77fgAKAAoACgDZAG6ANGNsABYDv/tv4gRQArPjGFZ89tmj22FhuLDebNkABYOyPfb8BBQAFAAUAbYA2QBswtgEKAN/9t/EDKQBY8Y0rvs1eBO/FXiltIJo2QAFg7I99vwEFAAUABQBtgDZAGzC2AQoA3/238QMpAFjxjSs+e2zR7LGx3FhuNm2AAsDYH/t+A30BACjwhwxoA7QB2gBtwNwGxBfx8JkABYC54bLykyFtgDZAGzCzAQoAn52/PG4ee/GMZNAGaAO0AdpAwDYgvoiHzwQOCLjQqZrNVDP5kR9tgDYQBxvY32ffx8cB2I0CgMqfNkAboA3QBgK2gV70yP4TqAbg24ALPg7qlXlgL4w2QBugDejZgPgg8UU8AiBwEwUA1T9tgDZAG6ANBGQD1wfg9/jINIGDAip0qmU9tUxu5EYboA3EyQbG0xsHR6AIwJMUAVT/tAHaAG2ANuCzDTwBQHwQjwAJDACw1eeCj5OCZV7YI6MN0AZoA+5sQHzOXgH6PT46i8CRFABU/7QB2gBtgDbgkw0syvI//BgCAif4VPBUyu6UMnmRF22ANhAXG/gfgOND4O+YhDwEZgD4jkKAvQDaAG2ANkAbsGwDMuVvah6/w69CRKAZgAsA/Gy58OOiYJkP9sZoA7QB2oBzG/gFwDUAWofIzzEpFRBoCkA2abgFwEsAvqQgYI+ANkAboA3QBiqwAfEV4jNuBrAw1aFsUoGviey//z89AjsQhJiJMAAAAABJRU5ErkJggg==;" vertex="1" parent="1">
          <mxGeometry x="361.75" y="170" width="76.5" height="76.5" as="geometry" />
        </mxCell>
        <mxCell id="yqI1gPK7mimHnNKxgcp7-8" value="&lt;font style=&quot;font-size: 15px;&quot; data-font-src=&quot;https://fonts.googleapis.com/css?family=Quicksand&quot; face=&quot;Quicksand&quot;&gt;&lt;b&gt;North&lt;/b&gt;&lt;/font&gt;" style="rounded=1;whiteSpace=wrap;html=1;fillColor=#f8cecc;strokeColor=#b85450;" vertex="1" parent="1">
          <mxGeometry x="360" y="120" width="80" height="40" as="geometry" />
        </mxCell>
        <mxCell id="yqI1gPK7mimHnNKxgcp7-9" value="&lt;font style=&quot;font-size: 15px;&quot; data-font-src=&quot;https://fonts.googleapis.com/css?family=Quicksand&quot; face=&quot;Quicksand&quot;&gt;&lt;b&gt;South&lt;/b&gt;&lt;/font&gt;" style="rounded=1;whiteSpace=wrap;html=1;fillColor=#f8cecc;strokeColor=#b85450;" vertex="1" parent="1">
          <mxGeometry x="360" y="440" width="80" height="40" as="geometry" />
        </mxCell>
        <mxCell id="yqI1gPK7mimHnNKxgcp7-10" value="&lt;font style=&quot;font-size: 15px;&quot; data-font-src=&quot;https://fonts.googleapis.com/css?family=Quicksand&quot; face=&quot;Quicksand&quot;&gt;&lt;b&gt;East&lt;/b&gt;&lt;/font&gt;" style="rounded=1;whiteSpace=wrap;html=1;fillColor=#f8cecc;strokeColor=#b85450;" vertex="1" parent="1">
          <mxGeometry x="530" y="280.5" width="80" height="40" as="geometry" />
        </mxCell>
        <mxCell id="yqI1gPK7mimHnNKxgcp7-11" value="&lt;font style=&quot;font-size: 15px;&quot; data-font-src=&quot;https://fonts.googleapis.com/css?family=Quicksand&quot; face=&quot;Quicksand&quot;&gt;&lt;b&gt;West&lt;/b&gt;&lt;/font&gt;" style="rounded=1;whiteSpace=wrap;html=1;fillColor=#f8cecc;strokeColor=#b85450;" vertex="1" parent="1">
          <mxGeometry x="190" y="278.75" width="80" height="40" as="geometry" />
        </mxCell>
      </root>
    </mxGraphModel>
  </diagram>
</mxfile>
